<?xml version="1.0" encoding="UTF-8"?>
<svg width="933px" height="824px" viewBox="0 0 933 824" version="1.1" xmlns="http://www.w3.org/2000/svg" xmlns:xlink="http://www.w3.org/1999/xlink">
    <!-- Generator: Sketch 52.5 (67469) - http://www.bohemiancoding.com/sketch -->
    <title>Group 2</title>
    <desc>Created with Sketch.</desc>
    <defs>
        <polygon id="path-1" points="0 0 298 0 298 405 0 405"></polygon>
        <linearGradient x1="50%" y1="1.96441474%" x2="50%" y2="96.170485%" id="linearGradient-3">
            <stop stop-color="#FB9017" offset="0%"></stop>
            <stop stop-color="#E14807" offset="100%"></stop>
        </linearGradient>
        <path d="M2.11263299e-13,72.4329665 C-0.0415023568,143.231432 31.4701053,154.536877 62.5968729,200.700778 C93.725527,246.862794 78.6337609,282.66337 145.497831,309.753101 C212.361901,336.840947 209.354866,347.94101 219.936081,368.880579 C230.515409,389.822031 231.477509,451.69108 233.401709,529.741988 C235.324023,607.789128 265.115169,648.731798 268.703236,655.149522 L292.07095,540.21083 C292.07095,540.21083 316.702599,378.927351 318.340055,370.359708 C319.975625,361.793949 292.07095,264.764967 292.07095,264.764967 L198.424654,73.5145207 C198.424654,73.5145207 184.064839,11.4400903 116.36129,2.20731017 C105.76687,0.762097445 95.7666884,0.0159380698 86.4060205,0.0159380698 C35.9617922,0.0178223106 4.26908334,21.6903605 2.11263299e-13,72.4329665" id="path-4"></path>
        <linearGradient x1="1.28610164e-05%" y1="49.9999559%" x2="99.9998274%" y2="49.9999559%" id="linearGradient-6">
            <stop stop-color="#3FBA69" offset="0%"></stop>
            <stop stop-color="#C6D459" offset="100%"></stop>
        </linearGradient>
        <path d="M68.3352272,0.350390562 C49.0438572,0.372996405 29.8489064,8.49791304 20.5019314,22.6924984 C-0.039104935,53.8829099 -6.84515469,80.7574892 9.81265209,135.913862 C26.4685683,191.074002 17.6055791,195.112912 24.0278432,234.514896 C30.4501074,273.914996 75.2339148,270.571215 92.7386967,290.888216 C110.239697,311.203334 124.245035,324.201693 120.881712,348.480368 C117.516499,372.755276 143.48536,415.61407 138.861027,441.582531 C134.234804,467.550993 109.893723,550.297797 101.310538,587.714234 C92.7235721,625.134439 101.405067,662.635648 112.111361,683.376509 C121.412962,701.395249 135.985471,710.162549 145.033736,710.200225 L145.143389,710.200225 C146.466788,710.194574 147.671081,710.002424 148.718456,709.621892 C156.929199,706.643572 161.992144,694.398741 157.19955,662.013987 C152.406957,629.631118 152.78129,595.191116 170.019501,544.668942 C187.253932,494.146767 177.75382,481.941496 174.950106,438.398875 C172.146392,394.854371 180.387384,364.743388 184.039964,328.078595 C184.595791,322.493068 184.847237,318.120721 184.852908,314.582907 L184.852908,314.309753 C184.816988,294.961036 177.317099,300.970422 172.543411,268.649719 C166.886828,230.34035 164.094457,229.84679 159.082557,204.087432 C154.070658,178.329958 133.009715,156.428664 128.865587,136.561896 C124.727131,116.698895 127.731245,67.4859758 121.352464,38.6126632 C114.690098,11.9679099 91.5268417,0.371112584 68.4732387,0.350390562 L68.3352272,0.350390562 Z" id="path-7"></path>
        <path d="M38.2422141,7.45431317 C39.4251686,8.75086021 40.6327285,10.0248259 41.7380811,11.3909988 C42.8585756,12.7364722 44.0207101,14.0480734 45.0484609,15.4650545 C46.0932463,16.8726266 47.1985989,18.2256271 48.1960661,19.6557805 L51.1695404,23.9650588 C52.1461876,25.4102665 52.9960221,26.9345091 53.9139948,28.4117071 L55.265402,30.6397357 C55.695051,31.392448 56.0773819,32.1752689 56.4843182,32.9411537 C63.1050778,45.1426211 67.6249102,58.3677773 69.6671627,71.9467083 L70.7062699,82.1798328 L70.7838718,86.8221863 C70.2217318,86.0995824 69.64445,85.3957964 69.0860955,84.6750743 C67.7782211,83.1282504 66.3302848,81.7112694 64.9542722,80.2434803 C59.1530635,74.6414185 52.3373531,70.394239 45.2585536,67.044669 C41.7683648,65.2306322 38.0548341,63.9792479 34.4132271,62.6074296 C32.6132436,61.8565991 30.6864474,61.4764793 28.8353602,60.9025361 L23.2347806,59.3312491 C19.4303991,58.5823003 15.6544085,57.7467896 11.8594906,57.0806391 L0.395242302,55.5902687 L11.6702178,58.00083 C15.3818558,58.9699472 19.04239,60.1027793 22.7142807,61.1415223 L28.0801621,63.1324465 C29.8460765,63.8437597 31.6877,64.3593677 33.3760126,65.2362776 C36.8094197,66.864018 40.2901449,68.3562703 43.4812828,70.3660123 C49.9828005,74.1182834 56.028171,78.6439665 60.8508397,84.1481756 C61.9770124,85.5802109 63.1788941,86.9520292 64.2236795,88.4198183 C65.2022194,89.9346519 66.2810739,91.3817414 67.0703411,92.9774916 C67.9674938,94.5167884 68.6583392,96.1407653 69.3132228,97.7478062 C69.5744191,98.5626174 69.9378227,99.3736649 70.1195245,100.179067 C70.3504372,100.94307 70.5624227,101.891488 70.6248827,102.384514 L71.0337117,102.320534 L71.0488536,103.253897 C71.1964863,106.863153 71.7340208,110.463 72.0671408,114.074137 C74.0204352,128.481052 79.2670748,142.432576 86.7111706,154.903138 C89.1660377,159.114563 91.9843084,163.070067 94.9369627,166.910782 C92.4442411,165.951073 89.906094,165.138144 87.3206287,164.52092 C81.9225709,163.250718 76.435555,162.392626 70.948539,162.481069 C68.2135483,162.332409 65.489914,162.699356 62.7833142,162.864953 C60.0842853,163.122757 57.4193254,163.704227 54.7600438,164.103164 C57.4685364,164.014721 60.148638,163.747508 62.8306323,163.803961 C65.5145194,163.952622 68.1889429,163.901814 70.8274045,164.359087 C76.1308259,164.885985 81.2695801,166.333075 86.1830997,168.11324 C91.106083,169.906577 95.7091954,172.437572 99.9470115,175.363741 C102.068759,176.825885 104.065586,178.44798 105.973455,180.134056 C106.889535,181.014729 107.835898,181.865294 108.68384,182.787367 C109.539353,183.658632 113.061718,187.299878 114.025116,188.24265 C119.103303,193.216197 124.253413,198.04861 129.161255,202.975113 L136.370652,210.617025 C138.836876,213.196946 141.337168,215.72606 143.837461,218.221301 C147.946572,222.353692 152.076502,226.42963 156.102333,230.575193 C151.987544,228.889117 147.774333,227.479663 143.487306,226.425866 C138.626783,225.206472 133.694336,224.329562 128.735391,223.977669 C123.791588,223.488406 118.826965,223.680348 113.936158,224.007778 C118.845892,224.306981 123.715879,224.745436 128.460946,225.83875 C133.221155,226.796577 137.850765,228.253075 142.323279,230.006895 C146.805257,231.738134 151.114997,233.864546 155.203287,236.290162 C157.249325,237.500147 159.234796,238.794812 161.161592,240.145931 C180.16268,255.284858 186.650949,273.06016 188.721592,287.04932 C188.360081,272.915263 183.209971,258.924222 175.300264,247.012549 C173.714159,244.581288 164.065036,231.948893 162.361581,229.939151 C157.74522,224.512095 152.863877,219.37107 148.116917,214.171709 C145.728295,211.580497 143.369957,208.987403 141.066508,206.366082 C138.810378,203.769224 136.38958,201.102741 133.957425,198.417439 C129.028764,193.218079 124.005466,188.259586 119.12223,183.233349 C118.321606,182.411011 115.438983,179.277846 114.761387,178.679439 C111.418831,175.137928 108.165233,171.545608 105.074409,167.836618 C100.77224,162.462251 96.6063481,156.973097 93.2107956,151.051132 C86.1036052,139.401027 81.2052274,126.488246 79.1326911,112.995877 C78.7465748,109.610553 78.1409021,106.242165 77.9175603,102.830496 L77.8532076,101.251682 L78.1030476,101.212165 C78.0065185,100.769946 77.9043112,100.391708 77.8039967,100.028525 L77.4973749,92.5183371 C77.3364931,88.9090813 77.2229295,85.2979438 77.0128368,81.6962151 L75.4702641,70.9738275 C70.0494936,42.609744 53.7228294,16.5847141 30.6788765,0.0777320265 C33.387369,2.3471598 35.8668416,4.86498264 38.2422141,7.45431317" id="path-9"></path>
        <linearGradient x1="-6.48807296%" y1="49.9996087%" x2="110.05204%" y2="49.9996087%" id="linearGradient-11">
            <stop stop-color="#4669AF" offset="0%"></stop>
            <stop stop-color="#44BFEF" offset="100%"></stop>
        </linearGradient>
        <path d="M17.0101509,36.390953 C21.5972215,48.8557216 25.4093854,61.5810382 27.9287777,74.5404704 C30.2553883,86.0725525 31.5443798,97.7839975 31.6388806,109.461458 C29.1308284,106.044125 26.3562838,102.808043 23.2207459,99.9325747 C20.0833181,97.0665464 16.573557,94.5233711 12.6536622,92.8581294 C10.6974949,92.0387247 8.66950689,91.3967948 6.59237847,91.089046 C4.51336003,90.7850733 2.42111147,90.7737452 0.38556342,91.019189 C4.50390995,91.1230306 8.43892485,92.4050024 11.7823645,94.5346993 C15.1541544,96.6285236 17.9967396,99.4473512 20.4651015,102.519175 C22.9334634,105.602326 25.029492,108.98001 26.8495781,112.487969 C28.641314,115.950614 30.2648384,119.698352 31.4045185,123.217638 C31.2249669,133.465861 31.3704982,143.817925 32.9600023,154.322919 C33.485427,157.77046 34.3075843,161.242546 35.5474353,164.671207 C36.7816162,168.092316 38.5109816,171.477552 40.7355313,174.428542 C45.1203702,180.27388 50.3689467,184.285942 54.9541274,188.728474 C55.0467382,188.936158 55.1261189,189.134401 55.2281798,189.34586 L55.4530918,189.215586 C57.7362321,191.41514 59.981572,193.688327 62.0473603,196.033259 C64.1433889,198.431056 66.1260165,200.968568 67.9366525,203.645793 C71.593835,208.973811 74.7085826,214.743628 77.4434369,220.702248 C82.9358256,232.636481 86.9955816,245.30138 90.2709806,258.168299 C93.5010193,271.057874 95.9372509,284.183453 97.6817364,297.44497 C97.298063,284.072059 95.8767703,270.699149 93.4348687,257.479169 C92.232818,250.865402 90.7245847,244.293173 88.8969384,237.794576 C87.0711822,231.297868 84.9827137,224.842696 82.3612605,218.564999 C79.7568174,212.285414 76.7365706,206.126663 73.0434778,200.290765 C71.2101616,197.371872 69.2086338,194.522836 66.9500638,191.853163 C65.1772281,189.725354 63.3495819,187.701387 61.4765752,185.713292 L61.7619678,185.547145 C60.6468579,183.842255 59.5128478,181.580396 58.62454,179.450699 C57.7173319,177.271913 56.9632152,175.015719 56.3981002,172.714211 C55.2697602,168.114972 54.9182171,163.30805 55.5967331,158.576649 C56.3111594,153.858464 58.0991153,149.255449 60.8396396,145.160313 C63.6047341,141.08217 67.1882059,137.485475 71.2196117,134.44386 C66.8442229,136.962491 62.7617866,140.115499 59.3389663,144.012392 C55.9407161,147.920612 53.3476131,152.644461 51.9017503,157.7799 C50.4899078,162.922892 50.1931752,168.373632 50.8168807,173.69221 C50.8735812,174.19065 50.9756421,174.683425 51.0493528,175.181865 C49.4296084,173.522288 47.915705,171.86271 46.6682939,170.097403 C43.1188424,165.313137 41.4480676,159.397941 40.3764281,153.093812 C39.3123487,146.795347 38.8700847,140.232557 38.6413927,133.649 C38.4675112,129.2801 38.3730103,124.909313 38.3068598,120.515869 L38.442941,120.461116 C38.3975806,120.372378 38.3484401,120.291193 38.3030797,120.200568 C38.2728394,118.053879 38.2350391,115.910966 38.219919,113.737844 C38.2350391,100.083617 36.1730308,86.5615521 33.0809634,73.4057649 C29.8547048,60.2669699 25.4396256,47.4717962 19.9358968,35.1977186 C14.4510682,22.9274171 8.04958139,11.0573777 0.38556342,0.0784880697 C6.92691144,11.7427323 12.3323594,23.962057 17.0101509,36.390953" id="path-12"></path>
        <linearGradient x1="-6.48928612%" y1="49.9999386%" x2="110.051942%" y2="49.9999386%" id="linearGradient-14">
            <stop stop-color="#4669AF" offset="0%"></stop>
            <stop stop-color="#44BFEF" offset="100%"></stop>
        </linearGradient>
        <path d="M58.0052789,0.784879939 C40.5449017,0.802453571 21.5496585,2.1688035 0.292277086,3.55858494 C57.003454,65.6857693 5.01224525,150.255947 83.5328296,189.431967 C162.050493,228.609452 236.64994,106.036294 161.029683,35.8911399 C128.834009,7.6444545 97.5174877,0.824420612 58.6931208,0.784879939 L58.0052789,0.784879939 Z" id="path-15"></path>
        <linearGradient x1="50.0000017%" y1="100.000086%" x2="50.0000017%" y2="-6.23260447e-05%" id="linearGradient-17">
            <stop stop-color="#00A859" offset="0%"></stop>
            <stop stop-color="#006769" offset="100%"></stop>
        </linearGradient>
        <path d="M0,25.2948619 L0,25.5694632 C0.0065,29.2858579 0.2795,33.3631306 0.941571429,37.7651008 C4.10614286,58.7999317 17.3512857,87.4410332 32.6457857,117.238985 C51.4809286,157.701859 78.0770714,173.291049 123.448929,183.405839 C127.5365,184.316848 132.497857,183.124744 126.775071,178.046475 C104.064071,157.897605 55.8182857,98.8722401 64.2237143,9.7399969 L4.89728571,0.203167856 C4.89728571,0.203167856 0.0287857143,9.43756438 0,25.2948619" id="path-18"></path>
        <linearGradient x1="50%" y1="0%" x2="50%" y2="100%" id="linearGradient-20">
            <stop stop-color="#FF6565" offset="0%"></stop>
            <stop stop-color="#E13030" offset="100%"></stop>
        </linearGradient>
        <path d="M14.0127393,0.192694608 L6.61234568,10.984519 C22.8952585,18.5338861 25.221256,38.6389745 24.290857,41.8814318 C23.3595276,45.1229627 -0.930398998,39.4097529 0.526605833,60.918362 C2.52417248,60.3245291 5.84383611,62.6220418 9.94875649,64.9214072 C15.7758454,68.1842457 23.1864734,71.4470842 30.6482734,66.4314659 C43.3631061,57.8824956 56.9701914,61.9281559 63.4197173,59.7529302 C68.6439077,42.1500926 37.3155126,45.9910149 37.3155126,36.733336 C34.8667025,16.3002962 14.0127393,0.192694608 14.0127393,0.192694608 Z" id="path-21"></path>
        <linearGradient x1="50%" y1="0%" x2="50%" y2="97.265625%" id="linearGradient-23">
            <stop stop-color="#93CA5F" offset="0%"></stop>
            <stop stop-color="#008B60" offset="100%"></stop>
        </linearGradient>
        <path d="M39.5860339,0 C36.6164483,0.0218480341 34.1887825,1.54488599 33.0075886,4.85716294 C26.8405071,22.1470072 51.1312336,35.8554987 13.3296522,44.3365605 C3.92343206,46.4466207 0.0742818463,50.7817306 0,55.5014809 L0,55.7843554 C0.224533763,69.9821279 34.0655422,87.3093438 53.3821986,58.1347439 C74.2362642,26.638503 52.2690964,0.0914167742 39.7160271,0 L39.5860339,0 Z" id="path-24"></path>
        <linearGradient x1="25.8920294%" y1="34.9014095%" x2="87.724802%" y2="77.1309215%" id="linearGradient-26">
            <stop stop-color="#F1E4A2" offset="0%"></stop>
            <stop stop-color="#CFBC5C" offset="100%"></stop>
        </linearGradient>
        <path d="M39.5860339,0 C36.6164483,0.0218480341 34.1887825,1.54488599 33.0075886,4.85716294 C26.8405071,22.1470072 51.1312336,35.8554987 13.3296522,44.3365605 C3.92343206,46.4466207 0.0742818463,50.7817306 0,55.5014809 L0,55.7843554 C0.224533763,69.9821279 34.0655422,87.3093438 53.3821986,58.1347439 C74.2362642,26.638503 52.2690964,0.0914167742 39.7160271,0 L39.5860339,0 Z" id="path-27"></path>
        <path d="M39.5860339,0 C36.6164483,0.0218480341 34.1887825,1.54488599 33.0075886,4.85716294 C26.8405071,22.1470072 51.1312336,35.8554987 13.3296522,44.3365605 C3.92343206,46.4466207 0.0742818463,50.7817306 0,55.5014809 L0,55.7843554 C0.224533763,69.9821279 34.0655422,87.3093438 53.3821986,58.1347439 C74.2362642,26.638503 52.2690964,0.0914167742 39.7160271,0 L39.5860339,0 Z" id="path-29"></path>
        <path d="M96.8663491,0.118479844 C47.3462964,51.6520126 98.7877151,132.761545 52.9717573,222.362418 C48.5815872,174.636333 88.7756388,74.9679462 37.6221584,26.1529992 C54.3936748,99.7832968 32.5192522,160.67569 31.506136,178.233149 C26.5294249,157.100295 26.5365345,135.721108 28.2908251,120.757284 C38.7383636,31.2081764 0,31.2081764 0,31.2081764 C0,31.2081764 19.551365,47.8677698 11.8481272,129.980483 C4.14666677,212.091412 26.0673017,207.925175 42.0638731,256.12072 C58.0604444,304.316265 42.2327258,350.271609 25.1803807,408.145534 C-12.2462641,530.198074 103.910173,555.589986 104.162563,440.327663 L104.162563,439.570814 C104.135902,427.748625 102.898834,414.468075 100.161643,399.668473 C91.1111382,348.818603 87.2932899,312.684439 74.4427109,274.888422 C66.8336751,251.25654 69.3895717,238.927405 71.2913863,233.259966 C118.328416,93.0145003 68.7888116,76.5476891 96.8663491,0.118479844 Z" id="path-31"></path>
        <linearGradient x1="0%" y1="50.0000351%" x2="99.9987114%" y2="50.0000351%" id="linearGradient-33">
            <stop stop-color="#3FBA69" offset="0%"></stop>
            <stop stop-color="#C6D459" offset="100%"></stop>
        </linearGradient>
        <path d="M0.656758389,24.047432 C0.214741611,26.016284 0.00529194631,27.984 0,29.8988876 L0,30.0491361 C0.0306375839,40.9945562 6.73414094,50.1279053 14.8700906,47.3422012 C33.2526409,41.0479527 40.8036913,39.5031479 63.5718725,46.0271716 C86.3403322,52.5511953 98.7986879,1.45164497 42.1077383,0.266130178 C41.4972148,0.253349112 40.8969966,0.247100592 40.302349,0.247100592 C14.4876779,0.247668639 3.32752013,12.1474083 0.656758389,24.047432" id="path-34"></path>
        <linearGradient x1="50.0000214%" y1="99.9998668%" x2="50.0000214%" y2="-0.000358006514%" id="linearGradient-36">
            <stop stop-color="#3FBA69" offset="0%"></stop>
            <stop stop-color="#C6D459" offset="100%"></stop>
        </linearGradient>
        <path d="M0.656758389,24.047432 C0.214741611,26.016284 0.00529194631,27.984 0,29.8988876 L0,30.0491361 C0.0306375839,40.9945562 6.73414094,50.1279053 14.8700906,47.3422012 C33.2526409,41.0479527 40.8036913,39.5031479 63.5718725,46.0271716 C86.3403322,52.5511953 98.7986879,1.45164497 42.1077383,0.266130178 C41.4972148,0.253349112 40.8969966,0.247100592 40.302349,0.247100592 C14.4876779,0.247668639 3.32752013,12.1474083 0.656758389,24.047432" id="path-37"></path>
        <path d="M11.5209363,1.29647155 C9.99376828,1.04556632 7.24444189,1.99470933 4.20282568,4.09223609 C-2.47426125,8.69600169 0.279835052,14.8343558 4.20282568,21.619539 C8.12581631,28.4044665 5.73820853,35.8070658 5.73820853,35.8070658 C11.6409791,31.1815602 11.0052554,25.6071673 9.86127062,20.3335538 C9.93626429,20.3760108 10.008078,20.4189793 10.0846617,20.4611805 C21.7444555,26.8552993 19.227,32.8657711 21.7444555,41.6896552 C29.5618172,19.0544743 4.82291471,14.998301 17.6240433,5.31376856 C23.0071582,1.24097059 22.1080291,0.0608720118 19.2587994,0.0608720118 C17.1605665,0.0608720118 14.0052673,0.700539666 11.5209363,1.29647155" id="path-39"></path>
        <linearGradient x1="50.0000725%" y1="100%" x2="50.0000725%" y2="6.02720537e-05%" id="linearGradient-41">
            <stop stop-color="#3FBA69" offset="0%"></stop>
            <stop stop-color="#C6D459" offset="100%"></stop>
        </linearGradient>
        <path d="M0.526416987,0.0674863083 C-4.37724942,16.6805781 38.9323256,15.2799189 38.1642074,26.2305274 C38.1642074,26.2305274 39.2907807,36.5798711 50.8468626,43.1499815 C51.1249214,40.6810013 51.2603662,38.4050574 51.2647189,36.3091619 L51.2647189,36.0972803 C51.194052,2.8369716 17.9048346,14.6987726 0.526416987,0.0674863083 Z" id="path-42"></path>
        <linearGradient x1="50.0001114%" y1="100.000309%" x2="50.0001114%" y2="0.000134891502%" id="linearGradient-44">
            <stop stop-color="#3FBA69" offset="0%"></stop>
            <stop stop-color="#C6D459" offset="100%"></stop>
        </linearGradient>
        <path d="M0.6108318,21.6893325 C0.199724901,23.4651182 0.00492188473,25.2398793 0,26.9669923 L0,27.1025074 C0.0284951221,36.9746159 6.26322784,45.2123456 13.830237,42.6998086 C30.9273103,37.0227763 37.9503217,35.6294556 59.1263422,41.5137313 C80.3026217,47.3980069 91.8897746,1.30929616 39.1631777,0.240033361 C38.5953477,0.228505611 38.0371023,0.222869822 37.4840379,0.222869822 C13.4745661,0.223382167 3.09482931,10.9562292 0.6108318,21.6893325" id="path-45"></path>
    </defs>
    <g id="2---Fast,-Healthy,-(Vegan)" stroke="none" stroke-width="1" fill="none" fill-rule="evenodd">
        <g id="Suncraft_MENU-Copy-2" transform="translate(-99.000000, -4011.000000)">
            <g id="Group-2" transform="translate(555.500000, 4411.500000) scale(-1, 1) translate(-555.500000, -4411.500000) translate(62.000000, 3957.000000)">
                <g id="Spill" transform="translate(548.000000, 112.000000)">
                    <mask id="mask-2" fill="white">
                        <use xlink:href="#path-1"></use>
                    </mask>
                    <g id="Clip-2"></g>
                    <path d="M144.169564,22.6617558 C147.246354,40.3958359 162.044832,25.9596909 197.499996,31.29185 C217.140462,34.0702594 212.152547,8.47484273 193.983665,2.03869154 C175.816542,-4.39745966 141.092775,4.92767568 144.169564,22.6617558 M0,64.6906831 C0,64.6906831 36.9214738,24.346704 87.908271,40.3958359 C138.895068,56.448478 126.58791,79.2654853 189.881865,68.7345589 C226.39017,62.6599695 268.255605,82.1913277 286.580964,127.825342 C304.906322,173.459357 266.068448,186.91437 289.511825,231.379452 C312.953445,275.842778 280.226954,302.552718 281.891936,341.954179 C283.317809,375.637347 283.064633,413.320513 181.091038,403.379318 C79.1174439,393.438123 0,64.6906831 0,64.6906831" id="Fill-1" fill="url(#linearGradient-3)" mask="url(#mask-2)"></path>
                </g>
                <g id="Bok-Choy" transform="translate(596.186560, 631.637443) rotate(70.000000) translate(-596.186560, -631.637443) translate(431.186560, 276.137443)">
                    <g id="Group-3" transform="translate(0.250852, 43.366377)">
                        <mask id="mask-5" fill="white">
                            <use xlink:href="#path-4"></use>
                        </mask>
                        <g id="Clip-2"></g>
                        <path d="M2.11263299e-13,72.4329665 C-0.0415023568,143.231432 31.4701053,154.536877 62.5968729,200.700778 C93.725527,246.862794 78.6337609,282.66337 145.497831,309.753101 C212.361901,336.840947 209.354866,347.94101 219.936081,368.880579 C230.515409,389.822031 231.477509,451.69108 233.401709,529.741988 C235.324023,607.789128 265.115169,648.731798 268.703236,655.149522 L292.07095,540.21083 C292.07095,540.21083 316.702599,378.927351 318.340055,370.359708 C319.975625,361.793949 292.07095,264.764967 292.07095,264.764967 L198.424654,73.5145207 C198.424654,73.5145207 184.064839,11.4400903 116.36129,2.20731017 C105.76687,0.762097445 95.7666884,0.0159380698 86.4060205,0.0159380698 C35.9617922,0.0178223106 4.26908334,21.6903605 2.11263299e-13,72.4329665" id="Fill-1" fill="url(#linearGradient-6)" mask="url(#mask-5)"></path>
                    </g>
                    <g id="Group-6" transform="translate(144.115045, 0.446868)">
                        <mask id="mask-8" fill="white">
                            <use xlink:href="#path-7"></use>
                        </mask>
                        <g id="Clip-5"></g>
                        <path d="M68.3352272,0.350390562 C49.0438572,0.372996405 29.8489064,8.49791304 20.5019314,22.6924984 C-0.039104935,53.8829099 -6.84515469,80.7574892 9.81265209,135.913862 C26.4685683,191.074002 17.6055791,195.112912 24.0278432,234.514896 C30.4501074,273.914996 75.2339148,270.571215 92.7386967,290.888216 C110.239697,311.203334 124.245035,324.201693 120.881712,348.480368 C117.516499,372.755276 143.48536,415.61407 138.861027,441.582531 C134.234804,467.550993 109.893723,550.297797 101.310538,587.714234 C92.7235721,625.134439 101.405067,662.635648 112.111361,683.376509 C121.412962,701.395249 135.985471,710.162549 145.033736,710.200225 L145.143389,710.200225 C146.466788,710.194574 147.671081,710.002424 148.718456,709.621892 C156.929199,706.643572 161.992144,694.398741 157.19955,662.013987 C152.406957,629.631118 152.78129,595.191116 170.019501,544.668942 C187.253932,494.146767 177.75382,481.941496 174.950106,438.398875 C172.146392,394.854371 180.387384,364.743388 184.039964,328.078595 C184.595791,322.493068 184.847237,318.120721 184.852908,314.582907 L184.852908,314.309753 C184.816988,294.961036 177.317099,300.970422 172.543411,268.649719 C166.886828,230.34035 164.094457,229.84679 159.082557,204.087432 C154.070658,178.329958 133.009715,156.428664 128.865587,136.561896 C124.727131,116.698895 127.731245,67.4859758 121.352464,38.6126632 C114.690098,11.9679099 91.5268417,0.371112584 68.4732387,0.350390562 L68.3352272,0.350390562 Z" id="Fill-4" fill="url(#linearGradient-6)" mask="url(#mask-8)"></path>
                    </g>
                    <g id="Group-9" transform="translate(60.467301, 110.323291)">
                        <mask id="mask-10" fill="white">
                            <use xlink:href="#path-9"></use>
                        </mask>
                        <g id="Clip-8"></g>
                        <path d="M38.2422141,7.45431317 C39.4251686,8.75086021 40.6327285,10.0248259 41.7380811,11.3909988 C42.8585756,12.7364722 44.0207101,14.0480734 45.0484609,15.4650545 C46.0932463,16.8726266 47.1985989,18.2256271 48.1960661,19.6557805 L51.1695404,23.9650588 C52.1461876,25.4102665 52.9960221,26.9345091 53.9139948,28.4117071 L55.265402,30.6397357 C55.695051,31.392448 56.0773819,32.1752689 56.4843182,32.9411537 C63.1050778,45.1426211 67.6249102,58.3677773 69.6671627,71.9467083 L70.7062699,82.1798328 L70.7838718,86.8221863 C70.2217318,86.0995824 69.64445,85.3957964 69.0860955,84.6750743 C67.7782211,83.1282504 66.3302848,81.7112694 64.9542722,80.2434803 C59.1530635,74.6414185 52.3373531,70.394239 45.2585536,67.044669 C41.7683648,65.2306322 38.0548341,63.9792479 34.4132271,62.6074296 C32.6132436,61.8565991 30.6864474,61.4764793 28.8353602,60.9025361 L23.2347806,59.3312491 C19.4303991,58.5823003 15.6544085,57.7467896 11.8594906,57.0806391 L0.395242302,55.5902687 L11.6702178,58.00083 C15.3818558,58.9699472 19.04239,60.1027793 22.7142807,61.1415223 L28.0801621,63.1324465 C29.8460765,63.8437597 31.6877,64.3593677 33.3760126,65.2362776 C36.8094197,66.864018 40.2901449,68.3562703 43.4812828,70.3660123 C49.9828005,74.1182834 56.028171,78.6439665 60.8508397,84.1481756 C61.9770124,85.5802109 63.1788941,86.9520292 64.2236795,88.4198183 C65.2022194,89.9346519 66.2810739,91.3817414 67.0703411,92.9774916 C67.9674938,94.5167884 68.6583392,96.1407653 69.3132228,97.7478062 C69.5744191,98.5626174 69.9378227,99.3736649 70.1195245,100.179067 C70.3504372,100.94307 70.5624227,101.891488 70.6248827,102.384514 L71.0337117,102.320534 L71.0488536,103.253897 C71.1964863,106.863153 71.7340208,110.463 72.0671408,114.074137 C74.0204352,128.481052 79.2670748,142.432576 86.7111706,154.903138 C89.1660377,159.114563 91.9843084,163.070067 94.9369627,166.910782 C92.4442411,165.951073 89.906094,165.138144 87.3206287,164.52092 C81.9225709,163.250718 76.435555,162.392626 70.948539,162.481069 C68.2135483,162.332409 65.489914,162.699356 62.7833142,162.864953 C60.0842853,163.122757 57.4193254,163.704227 54.7600438,164.103164 C57.4685364,164.014721 60.148638,163.747508 62.8306323,163.803961 C65.5145194,163.952622 68.1889429,163.901814 70.8274045,164.359087 C76.1308259,164.885985 81.2695801,166.333075 86.1830997,168.11324 C91.106083,169.906577 95.7091954,172.437572 99.9470115,175.363741 C102.068759,176.825885 104.065586,178.44798 105.973455,180.134056 C106.889535,181.014729 107.835898,181.865294 108.68384,182.787367 C109.539353,183.658632 113.061718,187.299878 114.025116,188.24265 C119.103303,193.216197 124.253413,198.04861 129.161255,202.975113 L136.370652,210.617025 C138.836876,213.196946 141.337168,215.72606 143.837461,218.221301 C147.946572,222.353692 152.076502,226.42963 156.102333,230.575193 C151.987544,228.889117 147.774333,227.479663 143.487306,226.425866 C138.626783,225.206472 133.694336,224.329562 128.735391,223.977669 C123.791588,223.488406 118.826965,223.680348 113.936158,224.007778 C118.845892,224.306981 123.715879,224.745436 128.460946,225.83875 C133.221155,226.796577 137.850765,228.253075 142.323279,230.006895 C146.805257,231.738134 151.114997,233.864546 155.203287,236.290162 C157.249325,237.500147 159.234796,238.794812 161.161592,240.145931 C180.16268,255.284858 186.650949,273.06016 188.721592,287.04932 C188.360081,272.915263 183.209971,258.924222 175.300264,247.012549 C173.714159,244.581288 164.065036,231.948893 162.361581,229.939151 C157.74522,224.512095 152.863877,219.37107 148.116917,214.171709 C145.728295,211.580497 143.369957,208.987403 141.066508,206.366082 C138.810378,203.769224 136.38958,201.102741 133.957425,198.417439 C129.028764,193.218079 124.005466,188.259586 119.12223,183.233349 C118.321606,182.411011 115.438983,179.277846 114.761387,178.679439 C111.418831,175.137928 108.165233,171.545608 105.074409,167.836618 C100.77224,162.462251 96.6063481,156.973097 93.2107956,151.051132 C86.1036052,139.401027 81.2052274,126.488246 79.1326911,112.995877 C78.7465748,109.610553 78.1409021,106.242165 77.9175603,102.830496 L77.8532076,101.251682 L78.1030476,101.212165 C78.0065185,100.769946 77.9043112,100.391708 77.8039967,100.028525 L77.4973749,92.5183371 C77.3364931,88.9090813 77.2229295,85.2979438 77.0128368,81.6962151 L75.4702641,70.9738275 C70.0494936,42.609744 53.7228294,16.5847141 30.6788765,0.0777320265 C33.387369,2.3471598 35.8668416,4.86498264 38.2422141,7.45431317" id="Fill-7" fill="url(#linearGradient-11)" mask="url(#mask-10)"></path>
                    </g>
                    <g id="Group-12" transform="translate(201.358215, 61.558738)">
                        <mask id="mask-13" fill="white">
                            <use xlink:href="#path-12"></use>
                        </mask>
                        <g id="Clip-11"></g>
                        <path d="M17.0101509,36.390953 C21.5972215,48.8557216 25.4093854,61.5810382 27.9287777,74.5404704 C30.2553883,86.0725525 31.5443798,97.7839975 31.6388806,109.461458 C29.1308284,106.044125 26.3562838,102.808043 23.2207459,99.9325747 C20.0833181,97.0665464 16.573557,94.5233711 12.6536622,92.8581294 C10.6974949,92.0387247 8.66950689,91.3967948 6.59237847,91.089046 C4.51336003,90.7850733 2.42111147,90.7737452 0.38556342,91.019189 C4.50390995,91.1230306 8.43892485,92.4050024 11.7823645,94.5346993 C15.1541544,96.6285236 17.9967396,99.4473512 20.4651015,102.519175 C22.9334634,105.602326 25.029492,108.98001 26.8495781,112.487969 C28.641314,115.950614 30.2648384,119.698352 31.4045185,123.217638 C31.2249669,133.465861 31.3704982,143.817925 32.9600023,154.322919 C33.485427,157.77046 34.3075843,161.242546 35.5474353,164.671207 C36.7816162,168.092316 38.5109816,171.477552 40.7355313,174.428542 C45.1203702,180.27388 50.3689467,184.285942 54.9541274,188.728474 C55.0467382,188.936158 55.1261189,189.134401 55.2281798,189.34586 L55.4530918,189.215586 C57.7362321,191.41514 59.981572,193.688327 62.0473603,196.033259 C64.1433889,198.431056 66.1260165,200.968568 67.9366525,203.645793 C71.593835,208.973811 74.7085826,214.743628 77.4434369,220.702248 C82.9358256,232.636481 86.9955816,245.30138 90.2709806,258.168299 C93.5010193,271.057874 95.9372509,284.183453 97.6817364,297.44497 C97.298063,284.072059 95.8767703,270.699149 93.4348687,257.479169 C92.232818,250.865402 90.7245847,244.293173 88.8969384,237.794576 C87.0711822,231.297868 84.9827137,224.842696 82.3612605,218.564999 C79.7568174,212.285414 76.7365706,206.126663 73.0434778,200.290765 C71.2101616,197.371872 69.2086338,194.522836 66.9500638,191.853163 C65.1772281,189.725354 63.3495819,187.701387 61.4765752,185.713292 L61.7619678,185.547145 C60.6468579,183.842255 59.5128478,181.580396 58.62454,179.450699 C57.7173319,177.271913 56.9632152,175.015719 56.3981002,172.714211 C55.2697602,168.114972 54.9182171,163.30805 55.5967331,158.576649 C56.3111594,153.858464 58.0991153,149.255449 60.8396396,145.160313 C63.6047341,141.08217 67.1882059,137.485475 71.2196117,134.44386 C66.8442229,136.962491 62.7617866,140.115499 59.3389663,144.012392 C55.9407161,147.920612 53.3476131,152.644461 51.9017503,157.7799 C50.4899078,162.922892 50.1931752,168.373632 50.8168807,173.69221 C50.8735812,174.19065 50.9756421,174.683425 51.0493528,175.181865 C49.4296084,173.522288 47.915705,171.86271 46.6682939,170.097403 C43.1188424,165.313137 41.4480676,159.397941 40.3764281,153.093812 C39.3123487,146.795347 38.8700847,140.232557 38.6413927,133.649 C38.4675112,129.2801 38.3730103,124.909313 38.3068598,120.515869 L38.442941,120.461116 C38.3975806,120.372378 38.3484401,120.291193 38.3030797,120.200568 C38.2728394,118.053879 38.2350391,115.910966 38.219919,113.737844 C38.2350391,100.083617 36.1730308,86.5615521 33.0809634,73.4057649 C29.8547048,60.2669699 25.4396256,47.4717962 19.9358968,35.1977186 C14.4510682,22.9274171 8.04958139,11.0573777 0.38556342,0.0784880697 C6.92691144,11.7427323 12.3323594,23.962057 17.0101509,36.390953" id="Fill-10" fill="url(#linearGradient-14)" mask="url(#mask-13)"></path>
                    </g>
                </g>
                <g id="Group-3" transform="translate(184.819192, 355.409451) rotate(-36.000000) translate(-184.819192, -355.409451) translate(88.319192, 256.909451)">
                    <mask id="mask-16" fill="white">
                        <use xlink:href="#path-15"></use>
                    </mask>
                    <g id="Clip-2"></g>
                    <path d="M58.0052789,0.784879939 C40.5449017,0.802453571 21.5496585,2.1688035 0.292277086,3.55858494 C57.003454,65.6857693 5.01224525,150.255947 83.5328296,189.431967 C162.050493,228.609452 236.64994,106.036294 161.029683,35.8911399 C128.834009,7.6444545 97.5174877,0.824420612 58.6931208,0.784879939 L58.0052789,0.784879939 Z" id="Fill-1" fill="url(#linearGradient-17)" mask="url(#mask-16)"></path>
                </g>
                <g id="Chilli" transform="translate(559.171971, 133.820520) rotate(-28.000000) translate(-559.171971, -133.820520) translate(494.171971, 16.820520)">
                    <g id="Group-3" transform="translate(0.000000, 50.313993)">
                        <mask id="mask-19" fill="white">
                            <use xlink:href="#path-18"></use>
                        </mask>
                        <g id="Clip-2"></g>
                        <path d="M0,25.2948619 L0,25.5694632 C0.0065,29.2858579 0.2795,33.3631306 0.941571429,37.7651008 C4.10614286,58.7999317 17.3512857,87.4410332 32.6457857,117.238985 C51.4809286,157.701859 78.0770714,173.291049 123.448929,183.405839 C127.5365,184.316848 132.497857,183.124744 126.775071,178.046475 C104.064071,157.897605 55.8182857,98.8722401 64.2237143,9.7399969 L4.89728571,0.203167856 C4.89728571,0.203167856 0.0287857143,9.43756438 0,25.2948619" id="Fill-1" fill="url(#linearGradient-20)" mask="url(#mask-19)"></path>
                    </g>
                    <g id="Group-6" transform="translate(0.802469, 0.000000)">
                        <mask id="mask-22" fill="white">
                            <use xlink:href="#path-21"></use>
                        </mask>
                        <g id="Clip-5"></g>
                        <path d="M14.0127393,0.192694608 L6.61234568,10.984519 C22.8952585,18.5338861 25.221256,38.6389745 24.290857,41.8814318 C23.3595276,45.1229627 -0.930398998,39.4097529 0.526605833,60.918362 C2.52417248,60.3245291 5.84383611,62.6220418 9.94875649,64.9214072 C15.7758454,68.1842457 23.1864734,71.4470842 30.6482734,66.4314659 C43.3631061,57.8824956 56.9701914,61.9281559 63.4197173,59.7529302 C68.6439077,42.1500926 37.3155126,45.9910149 37.3155126,36.733336 C34.8667025,16.3002962 14.0127393,0.192694608 14.0127393,0.192694608 Z" id="Fill-4" fill="url(#linearGradient-23)" mask="url(#mask-22)"></path>
                    </g>
                </g>
                <g id="Group-3-Copy" transform="translate(736.746150, 490.571707) rotate(3.000000) translate(-736.746150, -490.571707) translate(705.746150, 453.571707)">
                    <mask id="mask-25" fill="white">
                        <use xlink:href="#path-24"></use>
                    </mask>
                    <g id="Clip-2"></g>
                    <path d="M39.5860339,0 C36.6164483,0.0218480341 34.1887825,1.54488599 33.0075886,4.85716294 C26.8405071,22.1470072 51.1312336,35.8554987 13.3296522,44.3365605 C3.92343206,46.4466207 0.0742818463,50.7817306 0,55.5014809 L0,55.7843554 C0.224533763,69.9821279 34.0655422,87.3093438 53.3821986,58.1347439 C74.2362642,26.638503 52.2690964,0.0914167742 39.7160271,0 L39.5860339,0 Z" id="Fill-1" fill="url(#linearGradient-26)" mask="url(#mask-25)"></path>
                </g>
                <g id="Group-3-Copy-2" transform="translate(807.091612, 506.795322) rotate(-132.000000) translate(-807.091612, -506.795322) translate(776.091612, 469.795322)">
                    <mask id="mask-28" fill="white">
                        <use xlink:href="#path-27"></use>
                    </mask>
                    <g id="Clip-2"></g>
                    <path d="M39.5860339,0 C36.6164483,0.0218480341 34.1887825,1.54488599 33.0075886,4.85716294 C26.8405071,22.1470072 51.1312336,35.8554987 13.3296522,44.3365605 C3.92343206,46.4466207 0.0742818463,50.7817306 0,55.5014809 L0,55.7843554 C0.224533763,69.9821279 34.0655422,87.3093438 53.3821986,58.1347439 C74.2362642,26.638503 52.2690964,0.0914167742 39.7160271,0 L39.5860339,0 Z" id="Fill-1" fill="url(#linearGradient-26)" mask="url(#mask-28)"></path>
                </g>
                <g id="Group-3" transform="translate(715.852204, 542.000000)">
                    <mask id="mask-30" fill="white">
                        <use xlink:href="#path-29"></use>
                    </mask>
                    <g id="Clip-2"></g>
                    <path d="M39.5860339,0 C36.6164483,0.0218480341 34.1887825,1.54488599 33.0075886,4.85716294 C26.8405071,22.1470072 51.1312336,35.8554987 13.3296522,44.3365605 C3.92343206,46.4466207 0.0742818463,50.7817306 0,55.5014809 L0,55.7843554 C0.224533763,69.9821279 34.0655422,87.3093438 53.3821986,58.1347439 C74.2362642,26.638503 52.2690964,0.0914167742 39.7160271,0 L39.5860339,0 Z" id="Fill-1" fill="url(#linearGradient-26)" mask="url(#mask-30)"></path>
                </g>
                <g id="Spring-Onion" transform="translate(184.547076, 520.970556) rotate(-33.000000) translate(-184.547076, -520.970556) translate(132.047076, 262.970556)">
                    <g id="Group-3" transform="translate(0.606407, 0.341701)">
                        <mask id="mask-32" fill="white">
                            <use xlink:href="#path-31"></use>
                        </mask>
                        <g id="Clip-2"></g>
                        <path d="M96.8663491,0.118479844 C47.3462964,51.6520126 98.7877151,132.761545 52.9717573,222.362418 C48.5815872,174.636333 88.7756388,74.9679462 37.6221584,26.1529992 C54.3936748,99.7832968 32.5192522,160.67569 31.506136,178.233149 C26.5294249,157.100295 26.5365345,135.721108 28.2908251,120.757284 C38.7383636,31.2081764 0,31.2081764 0,31.2081764 C0,31.2081764 19.551365,47.8677698 11.8481272,129.980483 C4.14666677,212.091412 26.0673017,207.925175 42.0638731,256.12072 C58.0604444,304.316265 42.2327258,350.271609 25.1803807,408.145534 C-12.2462641,530.198074 103.910173,555.589986 104.162563,440.327663 L104.162563,439.570814 C104.135902,427.748625 102.898834,414.468075 100.161643,399.668473 C91.1111382,348.818603 87.2932899,312.684439 74.4427109,274.888422 C66.8336751,251.25654 69.3895717,238.927405 71.2913863,233.259966 C118.328416,93.0145003 68.7888116,76.5476891 96.8663491,0.118479844 Z" id="Fill-1" fill="url(#linearGradient-33)" mask="url(#mask-32)"></path>
                    </g>
                </g>
                <g id="Group-12" transform="translate(323.159663, 181.578499) rotate(113.000000) translate(-323.159663, -181.578499) translate(281.659663, 157.578499)">
                    <mask id="mask-35" fill="white">
                        <use xlink:href="#path-34"></use>
                    </mask>
                    <g id="Clip-11"></g>
                    <path d="M0.656758389,24.047432 C0.214741611,26.016284 0.00529194631,27.984 0,29.8988876 L0,30.0491361 C0.0306375839,40.9945562 6.73414094,50.1279053 14.8700906,47.3422012 C33.2526409,41.0479527 40.8036913,39.5031479 63.5718725,46.0271716 C86.3403322,52.5511953 98.7986879,1.45164497 42.1077383,0.266130178 C41.4972148,0.253349112 40.8969966,0.247100592 40.302349,0.247100592 C14.4876779,0.247668639 3.32752013,12.1474083 0.656758389,24.047432" id="Fill-10" fill="url(#linearGradient-36)" mask="url(#mask-35)"></path>
                </g>
                <g id="Group-12-Copy" transform="translate(367.286022, 133.525636) rotate(185.000000) translate(-367.286022, -133.525636) translate(325.786022, 109.525636)">
                    <mask id="mask-38" fill="white">
                        <use xlink:href="#path-37"></use>
                    </mask>
                    <g id="Clip-11"></g>
                    <path d="M0.656758389,24.047432 C0.214741611,26.016284 0.00529194631,27.984 0,29.8988876 L0,30.0491361 C0.0306375839,40.9945562 6.73414094,50.1279053 14.8700906,47.3422012 C33.2526409,41.0479527 40.8036913,39.5031479 63.5718725,46.0271716 C86.3403322,52.5511953 98.7986879,1.45164497 42.1077383,0.266130178 C41.4972148,0.253349112 40.8969966,0.247100592 40.302349,0.247100592 C14.4876779,0.247668639 3.32752013,12.1474083 0.656758389,24.047432" id="Fill-10" fill="url(#linearGradient-36)" mask="url(#mask-38)"></path>
                </g>
                <g id="Group-10" transform="translate(425.187140, 133.358770) rotate(146.000000) translate(-425.187140, -133.358770) translate(386.187140, 86.858770)">
                    <g id="Group-3" transform="translate(7.664081, 51.192702)">
                        <mask id="mask-40" fill="white">
                            <use xlink:href="#path-39"></use>
                        </mask>
                        <g id="Clip-2"></g>
                        <path d="M11.5209363,1.29647155 C9.99376828,1.04556632 7.24444189,1.99470933 4.20282568,4.09223609 C-2.47426125,8.69600169 0.279835052,14.8343558 4.20282568,21.619539 C8.12581631,28.4044665 5.73820853,35.8070658 5.73820853,35.8070658 C11.6409791,31.1815602 11.0052554,25.6071673 9.86127062,20.3335538 C9.93626429,20.3760108 10.008078,20.4189793 10.0846617,20.4611805 C21.7444555,26.8552993 19.227,32.8657711 21.7444555,41.6896552 C29.5618172,19.0544743 4.82291471,14.998301 17.6240433,5.31376856 C23.0071582,1.24097059 22.1080291,0.0608720118 19.2587994,0.0608720118 C17.1605665,0.0608720118 14.0052673,0.700539666 11.5209363,1.29647155" id="Fill-1" fill="url(#linearGradient-41)" mask="url(#mask-40)"></path>
                    </g>
                    <g id="Group-6" transform="translate(25.915717, 0.674984)">
                        <mask id="mask-43" fill="white">
                            <use xlink:href="#path-42"></use>
                        </mask>
                        <g id="Clip-5"></g>
                        <path d="M0.526416987,0.0674863083 C-4.37724942,16.6805781 38.9323256,15.2799189 38.1642074,26.2305274 C38.1642074,26.2305274 39.2907807,36.5798711 50.8468626,43.1499815 C51.1249214,40.6810013 51.2603662,38.4050574 51.2647189,36.3091619 L51.2647189,36.0972803 C51.194052,2.8369716 17.9048346,14.6987726 0.526416987,0.0674863083 Z" id="Fill-4" fill="url(#linearGradient-44)" mask="url(#mask-43)"></path>
                    </g>
                    <g id="Group-9" transform="translate(0.465452, 17.028727)">
                        <mask id="mask-46" fill="white">
                            <use xlink:href="#path-45"></use>
                        </mask>
                        <g id="Clip-8"></g>
                        <path d="M0.6108318,21.6893325 C0.199724901,23.4651182 0.00492188473,25.2398793 0,26.9669923 L0,27.1025074 C0.0284951221,36.9746159 6.26322784,45.2123456 13.830237,42.6998086 C30.9273103,37.0227763 37.9503217,35.6294556 59.1263422,41.5137313 C80.3026217,47.3980069 91.8897746,1.30929616 39.1631777,0.240033361 C38.5953477,0.228505611 38.0371023,0.222869822 37.4840379,0.222869822 C13.4745661,0.223382167 3.09482931,10.9562292 0.6108318,21.6893325" id="Fill-7" fill="url(#linearGradient-36)" mask="url(#mask-46)"></path>
                    </g>
                </g>
            </g>
        </g>
    </g>
</svg>