<?xml version="1.0" encoding="UTF-8"?>
<svg width="881px" height="693px" viewBox="0 0 881 693" version="1.1" xmlns="http://www.w3.org/2000/svg" xmlns:xlink="http://www.w3.org/1999/xlink">
    <!-- Generator: Sketch 52.5 (67469) - http://www.bohemiancoding.com/sketch -->
    <title>Group 11</title>
    <desc>Created with Sketch.</desc>
    <defs>
        <path d="M2.007,5.806 C2.007,5.806 -4.295,36.306 13.038,43.64 C30.371,50.973 52.038,57.639 55.37,91.306 C58.705,124.973 76.705,137.64 103.705,141.64 C103.705,141.64 89.038,115.306 93.705,87.973 C98.371,60.64 80.371,35.973 65.705,31.306 C51.038,26.64 19.037,12.19 13.038,0.915 L2.007,5.806 Z" id="path-1"></path>
        <linearGradient x1="-0.000619573779%" y1="49.9998889%" x2="99.999475%" y2="49.9998889%" id="linearGradient-3">
            <stop stop-color="#3FBA69" offset="0%"></stop>
            <stop stop-color="#C6D459" offset="100%"></stop>
        </linearGradient>
        <path d="M162.4,5.64 C152.989,8.978 142.994,12.315 129.371,10.64 C88.705,5.64 47.371,14.307 40.038,48.915 C32.704,83.524 0.371,96.639 0.371,96.639 C50.371,113.64 79.037,68.974 79.037,68.974 C147.371,76.306 172.705,52.639 187.037,39.973 C201.371,27.306 227.038,35.713 227.038,35.713 L235.371,24.973 C213.045,5.781 198.189,0.191 185.928,0.192 C177.372,0.193 170.078,2.916 162.4,5.64" id="path-4"></path>
        <linearGradient x1="5.61276596e-05%" y1="50.0001436%" x2="100.000056%" y2="50.0001436%" id="linearGradient-6">
            <stop stop-color="#3FBA69" offset="0%"></stop>
            <stop stop-color="#C6D459" offset="100%"></stop>
        </linearGradient>
        <path d="M109.038,11.64 C55.038,40.639 36.538,87.14 28.038,128.64 C19.538,170.14 38.538,180.139 8.537,235.64 C-17.698,284.175 19.55,313.974 79.135,314 L79.272,314 C87.782,313.997 96.739,313.388 106.038,312.14 C180.538,302.14 258.538,239.14 259.038,116.139 C259.038,65.64 227.835,31.538 211.538,21.639 C211.538,21.639 185.763,0.917 150.876,0.915 C137.904,0.914 123.675,3.779 109.038,11.64" id="path-7"></path>
        <radialGradient cx="0%" cy="69.54595%" fx="0%" fy="69.54595%" r="114.198614%" gradientTransform="translate(0.000000,0.695460),scale(1.000000,0.827372),rotate(-117.900016),translate(-0.000000,-0.695460)" id="radialGradient-9">
            <stop stop-color="#F72134" offset="0%"></stop>
            <stop stop-color="#76850E" offset="69.5603219%"></stop>
            <stop stop-color="#549F04" offset="100%"></stop>
        </radialGradient>
        <linearGradient x1="50%" y1="-2.48949813e-15%" x2="50%" y2="100%" id="linearGradient-10">
            <stop stop-color="#E54415" offset="0%"></stop>
            <stop stop-color="#933E14" offset="100%"></stop>
        </linearGradient>
        <path d="M0.405,63.413 C0.405,63.413 0.013,66.334 0,71.257 L0,71.784 C0.057,92.125 6.655,144.224 69.739,168.079 C138.036,193.907 236.475,165.502 236.804,58.576 L236.804,57.519 C236.755,40.51 234.236,21.538 228.739,0.493 C228.739,0.493 95.072,50.079 0.405,63.413" id="path-11"></path>
        <linearGradient x1="50%" y1="0%" x2="50%" y2="100%" id="linearGradient-13">
            <stop stop-color="#88C861" offset="0%"></stop>
            <stop stop-color="#B9D15A" offset="100%"></stop>
        </linearGradient>
        <path d="M113.845,26.1 L113.845,26.101 C113.845,26.101 131.239,26.747 126.239,36.747 C121.239,46.747 105.739,51.746 97.239,47.246 C91.412,44.162 86.998,39.668 86.566,33.926 C58.103,41.791 28.146,49.069 0.5,53.868 C0.5,53.868 0.739,75.747 13.239,78.746 C13.239,78.746 8.239,88.746 17.739,96.746 C27.239,104.746 34.239,115.247 43.739,114.247 C43.739,114.247 40.739,119.246 46.239,122.247 C51.738,125.247 64.239,138.246 74.739,139.747 C85.239,141.247 94.739,137.246 95.739,131.746 C95.739,131.746 99.739,138.381 106.239,140.064 C112.739,141.746 122.239,140.881 128.739,140.064 C135.239,139.247 152.239,135.247 150.738,122.247 C150.738,122.247 160.239,125.747 166.239,121.747 C172.239,117.747 186.239,104.651 188.739,97.449 C191.238,90.246 193.739,87.745 183.739,81.746 C183.739,81.746 195.738,83.747 197.739,74.747 C199.739,65.747 205.239,42.247 202.239,38.747 C199.239,35.247 191.739,31.247 191.739,31.247 C191.739,31.247 198.239,29.747 197.239,20.246 C196.239,10.747 196.152,2.56 191.945,0.903 C173.942,7.164 145.817,16.603 113.845,26.1" id="path-14"></path>
        <linearGradient x1="50%" y1="0%" x2="50%" y2="98.1642883%" id="linearGradient-16">
            <stop stop-color="#CDEE84" offset="0%"></stop>
            <stop stop-color="#E4FFA7" offset="100%"></stop>
        </linearGradient>
        <path d="M55.181,1.195 L53.153,1.464 L51.146,1.843 L47.136,2.674 C45.815,3.009 44.504,3.385 43.183,3.737 C41.856,4.07 40.561,4.498 39.27,4.942 C37.982,5.393 36.669,5.783 35.398,6.28 L31.589,7.787 C30.326,8.303 29.086,8.873 27.834,9.417 C26.585,9.973 25.364,10.579 24.146,11.192 C22.928,11.806 21.69,12.384 20.507,13.061 C18.116,14.375 15.743,15.715 13.445,17.18 C11.139,18.629 8.884,20.16 6.685,21.758 C4.476,23.348 2.383,25.092 0.239,26.747 C2.745,25.643 5.058,24.229 7.466,22.997 C9.835,21.701 12.228,20.461 14.605,19.204 C17.01,17.996 19.376,16.729 21.804,15.58 C23.003,14.977 24.211,14.399 25.424,13.826 C26.632,13.246 27.843,12.668 29.077,12.145 C33.929,9.865 38.907,7.883 43.916,5.961 C48.925,4.008 54.062,2.461 59.239,0.747 C57.887,0.875 56.534,1.023 55.181,1.195" id="path-17"></path>
        <linearGradient x1="-0.804444746%" y1="49.9973362%" x2="100.468054%" y2="49.9973362%" id="linearGradient-19">
            <stop stop-color="#4669AF" offset="0%"></stop>
            <stop stop-color="#44BFEF" offset="100%"></stop>
        </linearGradient>
        <path d="M33.274,11.654 C29.523,15.505 25.841,19.414 22.133,23.295 L11.134,35.062 L5.654,40.974 L2.912,43.936 C2.462,44.439 1.986,44.909 1.524,45.402 C1.051,45.877 0.61,46.389 0.058,46.784 C1.291,46.197 2.371,45.347 3.464,44.553 C4.553,43.742 5.601,42.887 6.658,42.042 C8.741,40.315 10.787,38.547 12.776,36.718 C14.788,34.915 16.707,33.016 18.652,31.143 C20.563,29.237 22.444,27.301 24.312,25.355 C26.158,23.385 27.971,21.388 29.776,19.382 C31.528,17.328 33.337,15.328 35.019,13.214 C38.462,9.057 41.728,4.748 44.739,0.246 C40.774,3.943 37.029,7.805 33.274,11.654" id="path-20"></path>
        <linearGradient x1="-1.06187887%" y1="49.9999658%" x2="102.5661%" y2="49.9999658%" id="linearGradient-22">
            <stop stop-color="#4669AF" offset="0%"></stop>
            <stop stop-color="#44BFEF" offset="100%"></stop>
        </linearGradient>
        <path d="M9.357,15.434 C8.346,20.479 7.405,25.528 6.361,30.561 L3.372,45.7 C2.376,50.753 1.396,55.813 0.548,60.938 C2.59,56.156 4.208,51.223 5.64,46.246 C6.375,43.761 6.991,41.247 7.627,38.735 C8.222,36.214 8.782,33.686 9.302,31.147 C9.795,28.604 10.245,26.052 10.664,23.494 C10.865,22.215 11.025,20.927 11.207,19.645 C11.393,18.363 11.556,17.076 11.672,15.785 C12.257,10.634 12.517,5.438 12.405,0.246 C11.274,5.324 10.372,10.387 9.357,15.434" id="path-23"></path>
        <linearGradient x1="-12.0819691%" y1="50.0006207%" x2="112.361533%" y2="50.0006207%" id="linearGradient-25">
            <stop stop-color="#4669AF" offset="0%"></stop>
            <stop stop-color="#44BFEF" offset="100%"></stop>
        </linearGradient>
        <path d="M7.459,14.594 C9.706,19.34 11.849,24.126 13.8,28.993 C15.828,33.828 17.671,38.742 19.454,43.689 C21.223,48.643 22.909,53.629 24.541,58.692 C24.125,53.377 23.048,48.139 21.68,42.996 C21.022,40.413 20.19,37.882 19.382,35.342 C18.495,32.828 17.584,30.324 16.575,27.856 C15.577,25.383 14.43,22.973 13.319,20.551 L11.478,16.998 C11.166,16.41 10.877,15.809 10.546,15.23 L9.531,13.505 C6.915,8.861 3.805,4.496 0.405,0.412 C2.767,5.193 5.265,9.812 7.459,14.594" id="path-26"></path>
        <linearGradient x1="-5.1502258%" y1="50.0009983%" x2="106.116035%" y2="50.0009983%" id="linearGradient-28">
            <stop stop-color="#4669AF" offset="0%"></stop>
            <stop stop-color="#44BFEF" offset="100%"></stop>
        </linearGradient>
        <path d="M12.898,8.43 C16.898,11.41 20.792,14.544 24.634,17.745 C28.514,20.9 32.302,24.18 36.136,27.422 C39.953,30.685 43.786,33.943 47.722,37.14 C44.677,33.077 41.269,29.326 37.724,25.715 C35.974,23.885 34.106,22.177 32.274,20.429 C30.394,18.733 28.49,17.061 26.543,15.435 C25.568,14.625 24.579,13.832 23.569,13.062 C22.559,12.293 21.58,11.488 20.545,10.75 C18.46,9.294 16.409,7.793 14.214,6.494 C9.886,3.842 5.318,1.428 0.405,0.079 C4.822,2.578 8.883,5.464 12.898,8.43" id="path-29"></path>
        <linearGradient x1="-1.18343999%" y1="50.0002391%" x2="102.301387%" y2="50.0002391%" id="linearGradient-31">
            <stop stop-color="#4669AF" offset="0%"></stop>
            <stop stop-color="#44BFEF" offset="100%"></stop>
        </linearGradient>
        <path d="M12.984,0.641 C8.783,0.99 4.546,1.506 0.478,2.747 C4.711,2.746 8.872,2.89 13.05,2.981 L25.576,3.254 L31.846,3.307 C32.67,3.298 33.496,3.3 34.32,3.301 C35.588,3.303 36.857,3.305 38.127,3.272 C42.318,3.221 46.515,3.101 50.739,2.747 C46.591,1.862 42.41,1.333 38.221,0.942 C36.126,0.719 34.026,0.617 31.928,0.475 C29.825,0.374 27.724,0.307 25.62,0.257 C24.818,0.242 24.016,0.235 23.213,0.235 C19.804,0.235 16.392,0.37 12.984,0.641" id="path-32"></path>
        <linearGradient x1="-0.457092975%" y1="49.9929199%" x2="100.19686%" y2="49.9929199%" id="linearGradient-34">
            <stop stop-color="#4669AF" offset="0%"></stop>
            <stop stop-color="#44BFEF" offset="100%"></stop>
        </linearGradient>
        <path d="M265.552341,3.07710485 C265.552341,3.07710485 254.82051,10.6938375 240.72713,11.5405643 C226.636288,12.387291 224.098312,32.6973086 244.402119,34.3907621 C264.705926,36.0829462 283.886679,32.2733105 287.547709,18.7345682 C290.328062,8.45197917 286.198775,0.505188127 276.460562,0.503918671 C273.373114,0.503918671 269.724774,1.30240614 265.552341,3.07710485 M287.547709,46.8809342 C267.243902,55.560201 238.05718,64.8564232 194.91159,52.1631383 C151.766,39.4685839 150.497012,76.0987206 87.0476154,93.6324391 C23.5982186,111.164888 15.984291,139.755564 31.2121462,184.186504 C46.4400015,228.617444 33.7501221,248.927462 13.460274,260.352561 C4.36543747,265.474813 0.106713959,274.677096 0.0610303932,285.27324 L0.0610303932,285.62488 C0.119403838,298.588559 6.43769477,313.583366 17.8877729,325.730785 C38.8260738,347.946255 18.5222669,369.526998 48.6048949,384.759194 C76.2954806,398.782868 96.8606991,399.481068 99.9557607,399.503919 L100.275546,399.503919 C100.331381,399.503919 100.359299,399.502649 100.359299,399.502649 C100.359299,399.502649 377.645853,213.38271 392.372458,199.419969 C399.638682,192.529365 406.035651,181.003979 406.06103,163.314118 L406.06103,163.097041 C406.033113,144.959061 399.321435,120.370979 380.045509,87.7066211 C357.17327,48.951416 335.816203,38.8541675 317.999613,38.8554369 C306.05336,38.8567064 295.69715,43.396279 287.547709,46.8809342" id="path-35"></path>
        <linearGradient x1="50%" y1="-2.48949813e-15%" x2="50%" y2="100%" id="linearGradient-37">
            <stop stop-color="#E54415" offset="0%"></stop>
            <stop stop-color="#EFAC33" offset="100%"></stop>
        </linearGradient>
        <path d="M102.592916,0.24859661 C102.592916,0.24859661 92.3443855,7.2791322 92.8083855,16.3319593 C92.8083855,16.3319593 77.9030843,20.4701153 82.0958554,37.8257898 C82.0958554,37.8257898 74.6872289,43.1845831 77.4600482,54.3043932 C77.4600482,54.3043932 69.6559036,66.8208136 72.1492048,72.4072542 C72.1492048,72.4072542 66.2555663,86.3733559 69.050747,97.0783729 C69.050747,97.0783729 58.3368193,111.045871 62.5295904,124.081831 C62.5295904,124.081831 52.7464578,131.995024 50.8820723,148.754346 C49.0190843,165.513668 35.0431807,215.326563 33.1801928,228.361125 C31.3158072,241.397085 25.7254458,255.363186 24.7946506,276.312339 C23.8624578,297.260095 11.2841446,328.451986 8.02356627,343.814698 C5.0173494,357.966549 0.0363373494,376.466047 0,395.307715 L0,395.714129 C0.00279518072,397.190346 0.0363373494,398.666563 0.103421687,400.144176 C0.103421687,400.144176 4.29619277,411.040529 9.42115663,411.877098 C14.5447229,412.713668 23.8624578,408.988908 29.4528193,408.988908 C29.4528193,408.988908 37.8383614,370.350292 38.303759,354.056041 C38.7705542,337.763186 45.8032289,320.161708 47.621494,309.829586 C49.439759,299.497464 50.9100241,258.796054 56.7980723,242.327227 C62.6889157,225.859797 67.187759,215.326563 68.5853494,198.102169 C69.9829398,180.87638 88.1516145,153.410644 91.878988,147.356339 C95.6049639,141.306224 104.922699,136.184854 103.990506,115.702169 L98.8669398,115.702169 C98.8669398,115.702169 99.4623133,99.4079186 104.054795,95.2180881 C108.650072,91.0282576 115.171229,80.7869153 112.376048,62.6309831 C112.376048,62.6309831 117.450699,45.6090983 113.049687,37.8257898 C113.049687,37.8257898 115.638024,17.8361085 104.922699,11.8362712 C104.922699,11.8362712 105.854892,3.50688814 102.592916,0.24859661 Z" id="path-38"></path>
        <linearGradient x1="100%" y1="6.51744642%" x2="60.4616998%" y2="50%" id="linearGradient-40">
            <stop stop-color="#3FDF69" offset="0%"></stop>
            <stop stop-color="#35D266" offset="35.7780717%"></stop>
            <stop stop-color="#009359" offset="100%"></stop>
        </linearGradient>
        <path d="M6.51481356,16.9864034 C-2.28698305,24.8930252 4.66216949,47.2123529 4.66216949,47.2123529 C-5.06664407,53.7198319 4.19935593,74.6455966 4.19935593,74.6455966 C-3.214,88.1306555 12.0741356,113.239899 12.0741356,113.239899 C3.73515254,127.654 17.1706441,127.189479 22.7299661,145.323933 C28.2892881,163.458387 27.5943729,203.910773 35.2384407,229.021412 C42.8825085,254.130655 51.2214915,325.970992 51.2214915,325.970992 C69.9842034,340.61805 80.1758305,323.414034 80.1758305,323.414034 C76.9333559,316.437849 73.226678,300.164269 73.6908814,286.214689 C74.1536949,272.265109 69.0571864,247.620387 63.0350508,227.161933 C57.0129153,206.702084 55.6230847,186.242235 51.2214915,169.038218 C46.8198983,151.834202 42.6504068,135.559227 45.8942712,118.819731 C49.1367458,102.080235 41.2605763,81.1558655 41.2605763,81.1558655 C44.0402373,72.7861176 35.7012542,44.886958 35.7012542,44.886958 C37.5538983,34.1918151 25.7194915,12.3384034 25.7194915,12.3384034 C25.0009492,5.36361345 14.8537966,0.712823529 14.8537966,0.712823529 C10.6843051,2.10778151 15.318,9.08257143 6.51481356,16.9864034" id="path-41"></path>
        <linearGradient x1="100.000428%" y1="50.0000578%" x2="-0.000235785335%" y2="50.0000578%" id="linearGradient-43">
            <stop stop-color="#3FBA69" offset="0%"></stop>
            <stop stop-color="#C6D459" offset="100%"></stop>
        </linearGradient>
        <path d="M58.0052789,0.784879939 C40.5449017,0.802453571 21.5496585,2.1688035 0.292277086,3.55858494 C57.003454,65.6857693 5.01224525,150.255947 83.5328296,189.431967 C162.050493,228.609452 236.64994,106.036294 161.029683,35.8911399 C128.834009,7.6444545 97.5174877,0.824420612 58.6931208,0.784879939 L58.0052789,0.784879939 Z" id="path-44"></path>
        <linearGradient x1="50.0000017%" y1="100.000086%" x2="50.0000017%" y2="-6.23260447e-05%" id="linearGradient-46">
            <stop stop-color="#00A859" offset="0%"></stop>
            <stop stop-color="#8AD88E" offset="100%"></stop>
        </linearGradient>
        <path d="M0,19.5210348 L0,19.7329553 C0.005,22.6010425 0.215,25.7476334 0.724285714,29.1448061 C3.15857143,45.3782082 13.3471429,67.4816669 25.1121429,90.4779127 C39.6007143,121.704695 60.0592857,133.735483 94.9607143,141.541463 C98.105,142.244524 101.921429,141.324531 97.5192857,137.405432 C80.0492857,121.85576 42.9371429,76.3035766 49.4028571,7.51673674 L3.76714286,0.156792585 C3.76714286,0.156792585 0.0221428571,7.28333773 0,19.5210348" id="path-47"></path>
        <linearGradient x1="50%" y1="0%" x2="50%" y2="100%" id="linearGradient-49">
            <stop stop-color="#5AC77B" offset="0%"></stop>
            <stop stop-color="#7B810F" offset="100%"></stop>
        </linearGradient>
        <path d="M10.6954928,0.14976 L5.047,8.53704 C17.4752464,14.40432 19.2506087,30.02976 18.5404638,32.54976 C17.8296087,35.06904 -0.710144928,30.6288 0.401942029,47.34504 C1.92662319,46.88352 4.46042029,48.66912 7.59357971,50.45616 C12.0412174,52.992 17.6975217,55.52784 23.3928841,51.62976 C33.0977246,44.9856 43.4835942,48.12984 48.4063188,46.43928 C52.3937826,32.75856 28.4817826,35.74368 28.4817826,28.54872 C26.6126812,12.6684 10.6954928,0.14976 10.6954928,0.14976 Z" id="path-50"></path>
        <linearGradient x1="50%" y1="0%" x2="50%" y2="97.265625%" id="linearGradient-52">
            <stop stop-color="#93CA5F" offset="0%"></stop>
            <stop stop-color="#008B60" offset="100%"></stop>
        </linearGradient>
    </defs>
    <g id="2---Fast,-Healthy,-(Vegan)" stroke="none" stroke-width="1" fill="none" fill-rule="evenodd">
        <g id="Suncraft_MENU-Copy-2" transform="translate(-630.000000, -2976.000000)">
            <g id="Group-11" transform="translate(628.000000, 2869.000000)">
                <g id="Mango" transform="translate(519.000000, 159.000000)">
                    <g id="Group-3" transform="translate(246.000000, 48.808000)">
                        <mask id="mask-2" fill="white">
                            <use xlink:href="#path-1"></use>
                        </mask>
                        <g id="Clip-2"></g>
                        <path d="M2.007,5.806 C2.007,5.806 -4.295,36.306 13.038,43.64 C30.371,50.973 52.038,57.639 55.37,91.306 C58.705,124.973 76.705,137.64 103.705,141.64 C103.705,141.64 89.038,115.306 93.705,87.973 C98.371,60.64 80.371,35.973 65.705,31.306 C51.038,26.64 19.037,12.19 13.038,0.915 L2.007,5.806 Z" id="Fill-1" fill="url(#linearGradient-3)" mask="url(#mask-2)"></path>
                    </g>
                    <g id="Group-6" transform="translate(33.000000, 0.808000)">
                        <mask id="mask-5" fill="white">
                            <use xlink:href="#path-4"></use>
                        </mask>
                        <g id="Clip-5"></g>
                        <path d="M162.4,5.64 C152.989,8.978 142.994,12.315 129.371,10.64 C88.705,5.64 47.371,14.307 40.038,48.915 C32.704,83.524 0.371,96.639 0.371,96.639 C50.371,113.64 79.037,68.974 79.037,68.974 C147.371,76.306 172.705,52.639 187.037,39.973 C201.371,27.306 227.038,35.713 227.038,35.713 L235.371,24.973 C213.045,5.781 198.189,0.191 185.928,0.192 C177.372,0.193 170.078,2.916 162.4,5.64" id="Fill-4" fill="url(#linearGradient-6)" mask="url(#mask-5)"></path>
                    </g>
                    <g id="Group-9" transform="translate(0.000000, 48.808000)">
                        <mask id="mask-8" fill="white">
                            <use xlink:href="#path-7"></use>
                        </mask>
                        <g id="Clip-8"></g>
                        <path d="M109.038,11.64 C55.038,40.639 36.538,87.14 28.038,128.64 C19.538,170.14 38.538,180.139 8.537,235.64 C-17.698,284.175 19.55,313.974 79.135,314 L79.272,314 C87.782,313.997 96.739,313.388 106.038,312.14 C180.538,302.14 258.538,239.14 259.038,116.139 C259.038,65.64 227.835,31.538 211.538,21.639 C211.538,21.639 185.763,0.917 150.876,0.915 C137.904,0.914 123.675,3.779 109.038,11.64" id="Fill-7" fill="url(#radialGradient-9)" mask="url(#mask-8)"></path>
                    </g>
                    <path d="M272.7048,6.1142 C272.7048,6.1142 261.3708,48.4472 232.7048,69.4472 C212.7048,84.1142 206.0378,86.1142 206.0378,86.1142 C206.0378,86.1142 213.7048,101.1142 224.0378,103.1142 C224.0378,103.1142 227.0378,89.4472 236.7048,82.1142 C246.3708,74.7812 273.7048,41.1142 280.0378,14.4472 C280.0378,14.4472 276.7048,11.4472 272.7048,6.1142" id="Fill-10" fill="url(#linearGradient-10)"></path>
                </g>
                <g id="Lime" transform="translate(223.463091, 710.778125) rotate(-7.000000) translate(-223.463091, -710.778125) translate(104.963091, 621.778125)">
                    <g id="Group-3" transform="translate(0.000000, 0.508000)">
                        <mask id="mask-12" fill="white">
                            <use xlink:href="#path-11"></use>
                        </mask>
                        <g id="Clip-2"></g>
                        <path d="M0.405,63.413 C0.405,63.413 0.013,66.334 0,71.257 L0,71.784 C0.057,92.125 6.655,144.224 69.739,168.079 C138.036,193.907 236.475,165.502 236.804,58.576 L236.804,57.519 C236.755,40.51 234.236,21.538 228.739,0.493 C228.739,0.493 95.072,50.079 0.405,63.413" id="Fill-1" fill="url(#linearGradient-13)" mask="url(#mask-12)"></path>
                    </g>
                    <g id="Group-6" transform="translate(16.000000, 7.508000)">
                        <mask id="mask-15" fill="white">
                            <use xlink:href="#path-14"></use>
                        </mask>
                        <g id="Clip-5"></g>
                        <path d="M113.845,26.1 L113.845,26.101 C113.845,26.101 131.239,26.747 126.239,36.747 C121.239,46.747 105.739,51.746 97.239,47.246 C91.412,44.162 86.998,39.668 86.566,33.926 C58.103,41.791 28.146,49.069 0.5,53.868 C0.5,53.868 0.739,75.747 13.239,78.746 C13.239,78.746 8.239,88.746 17.739,96.746 C27.239,104.746 34.239,115.247 43.739,114.247 C43.739,114.247 40.739,119.246 46.239,122.247 C51.738,125.247 64.239,138.246 74.739,139.747 C85.239,141.247 94.739,137.246 95.739,131.746 C95.739,131.746 99.739,138.381 106.239,140.064 C112.739,141.746 122.239,140.881 128.739,140.064 C135.239,139.247 152.239,135.247 150.738,122.247 C150.738,122.247 160.239,125.747 166.239,121.747 C172.239,117.747 186.239,104.651 188.739,97.449 C191.238,90.246 193.739,87.745 183.739,81.746 C183.739,81.746 195.738,83.747 197.739,74.747 C199.739,65.747 205.239,42.247 202.239,38.747 C199.239,35.247 191.739,31.247 191.739,31.247 C191.739,31.247 198.239,29.747 197.239,20.246 C196.239,10.747 196.152,2.56 191.945,0.903 C173.942,7.164 145.817,16.603 113.845,26.1" id="Fill-4" fill="url(#linearGradient-16)" mask="url(#mask-15)"></path>
                    </g>
                    <g id="Group-9" transform="translate(42.000000, 54.508000)">
                        <mask id="mask-18" fill="white">
                            <use xlink:href="#path-17"></use>
                        </mask>
                        <g id="Clip-8"></g>
                        <path d="M55.181,1.195 L53.153,1.464 L51.146,1.843 L47.136,2.674 C45.815,3.009 44.504,3.385 43.183,3.737 C41.856,4.07 40.561,4.498 39.27,4.942 C37.982,5.393 36.669,5.783 35.398,6.28 L31.589,7.787 C30.326,8.303 29.086,8.873 27.834,9.417 C26.585,9.973 25.364,10.579 24.146,11.192 C22.928,11.806 21.69,12.384 20.507,13.061 C18.116,14.375 15.743,15.715 13.445,17.18 C11.139,18.629 8.884,20.16 6.685,21.758 C4.476,23.348 2.383,25.092 0.239,26.747 C2.745,25.643 5.058,24.229 7.466,22.997 C9.835,21.701 12.228,20.461 14.605,19.204 C17.01,17.996 19.376,16.729 21.804,15.58 C23.003,14.977 24.211,14.399 25.424,13.826 C26.632,13.246 27.843,12.668 29.077,12.145 C33.929,9.865 38.907,7.883 43.916,5.961 C48.925,4.008 54.062,2.461 59.239,0.747 C57.887,0.875 56.534,1.023 55.181,1.195" id="Fill-7" fill="url(#linearGradient-19)" mask="url(#mask-18)"></path>
                    </g>
                    <g id="Group-12" transform="translate(68.000000, 62.508000)">
                        <mask id="mask-21" fill="white">
                            <use xlink:href="#path-20"></use>
                        </mask>
                        <g id="Clip-11"></g>
                        <path d="M33.274,11.654 C29.523,15.505 25.841,19.414 22.133,23.295 L11.134,35.062 L5.654,40.974 L2.912,43.936 C2.462,44.439 1.986,44.909 1.524,45.402 C1.051,45.877 0.61,46.389 0.058,46.784 C1.291,46.197 2.371,45.347 3.464,44.553 C4.553,43.742 5.601,42.887 6.658,42.042 C8.741,40.315 10.787,38.547 12.776,36.718 C14.788,34.915 16.707,33.016 18.652,31.143 C20.563,29.237 22.444,27.301 24.312,25.355 C26.158,23.385 27.971,21.388 29.776,19.382 C31.528,17.328 33.337,15.328 35.019,13.214 C38.462,9.057 41.728,4.748 44.739,0.246 C40.774,3.943 37.029,7.805 33.274,11.654" id="Fill-10" fill="url(#linearGradient-22)" mask="url(#mask-21)"></path>
                    </g>
                    <g id="Group-15" transform="translate(115.000000, 62.508000)">
                        <mask id="mask-24" fill="white">
                            <use xlink:href="#path-23"></use>
                        </mask>
                        <g id="Clip-14"></g>
                        <path d="M9.357,15.434 C8.346,20.479 7.405,25.528 6.361,30.561 L3.372,45.7 C2.376,50.753 1.396,55.813 0.548,60.938 C2.59,56.156 4.208,51.223 5.64,46.246 C6.375,43.761 6.991,41.247 7.627,38.735 C8.222,36.214 8.782,33.686 9.302,31.147 C9.795,28.604 10.245,26.052 10.664,23.494 C10.865,22.215 11.025,20.927 11.207,19.645 C11.393,18.363 11.556,17.076 11.672,15.785 C12.257,10.634 12.517,5.438 12.405,0.246 C11.274,5.324 10.372,10.387 9.357,15.434" id="Fill-13" fill="url(#linearGradient-25)" mask="url(#mask-24)"></path>
                    </g>
                    <g id="Group-18" transform="translate(141.000000, 59.508000)">
                        <mask id="mask-27" fill="white">
                            <use xlink:href="#path-26"></use>
                        </mask>
                        <g id="Clip-17"></g>
                        <path d="M7.459,14.594 C9.706,19.34 11.849,24.126 13.8,28.993 C15.828,33.828 17.671,38.742 19.454,43.689 C21.223,48.643 22.909,53.629 24.541,58.692 C24.125,53.377 23.048,48.139 21.68,42.996 C21.022,40.413 20.19,37.882 19.382,35.342 C18.495,32.828 17.584,30.324 16.575,27.856 C15.577,25.383 14.43,22.973 13.319,20.551 L11.478,16.998 C11.166,16.41 10.877,15.809 10.546,15.23 L9.531,13.505 C6.915,8.861 3.805,4.496 0.405,0.412 C2.767,5.193 5.265,9.812 7.459,14.594" id="Fill-16" fill="url(#linearGradient-28)" mask="url(#mask-27)"></path>
                    </g>
                    <g id="Group-21" transform="translate(147.000000, 49.508000)">
                        <mask id="mask-30" fill="white">
                            <use xlink:href="#path-29"></use>
                        </mask>
                        <g id="Clip-20"></g>
                        <path d="M12.898,8.43 C16.898,11.41 20.792,14.544 24.634,17.745 C28.514,20.9 32.302,24.18 36.136,27.422 C39.953,30.685 43.786,33.943 47.722,37.14 C44.677,33.077 41.269,29.326 37.724,25.715 C35.974,23.885 34.106,22.177 32.274,20.429 C30.394,18.733 28.49,17.061 26.543,15.435 C25.568,14.625 24.579,13.832 23.569,13.062 C22.559,12.293 21.58,11.488 20.545,10.75 C18.46,9.294 16.409,7.793 14.214,6.494 C9.886,3.842 5.318,1.428 0.405,0.079 C4.822,2.578 8.883,5.464 12.898,8.43" id="Fill-19" fill="url(#linearGradient-31)" mask="url(#mask-30)"></path>
                    </g>
                    <g id="Group-24" transform="translate(150.000000, 34.508000)">
                        <mask id="mask-33" fill="white">
                            <use xlink:href="#path-32"></use>
                        </mask>
                        <g id="Clip-23"></g>
                        <path d="M12.984,0.641 C8.783,0.99 4.546,1.506 0.478,2.747 C4.711,2.746 8.872,2.89 13.05,2.981 L25.576,3.254 L31.846,3.307 C32.67,3.298 33.496,3.3 34.32,3.301 C35.588,3.303 36.857,3.305 38.127,3.272 C42.318,3.221 46.515,3.101 50.739,2.747 C46.591,1.862 42.41,1.333 38.221,0.942 C36.126,0.719 34.026,0.617 31.928,0.475 C29.825,0.374 27.724,0.307 25.62,0.257 C24.818,0.242 24.016,0.235 23.213,0.235 C19.804,0.235 16.392,0.37 12.984,0.641" id="Fill-22" fill="url(#linearGradient-34)" mask="url(#mask-33)"></path>
                    </g>
                </g>
                <g id="Spill" transform="translate(380.253829, 265.479998) rotate(24.000000) translate(-380.253829, -265.479998) translate(176.753829, 65.479998)">
                    <mask id="mask-36" fill="white">
                        <use xlink:href="#path-35"></use>
                    </mask>
                    <g id="Clip-2"></g>
                    <path d="M265.552341,3.07710485 C265.552341,3.07710485 254.82051,10.6938375 240.72713,11.5405643 C226.636288,12.387291 224.098312,32.6973086 244.402119,34.3907621 C264.705926,36.0829462 283.886679,32.2733105 287.547709,18.7345682 C290.328062,8.45197917 286.198775,0.505188127 276.460562,0.503918671 C273.373114,0.503918671 269.724774,1.30240614 265.552341,3.07710485 M287.547709,46.8809342 C267.243902,55.560201 238.05718,64.8564232 194.91159,52.1631383 C151.766,39.4685839 150.497012,76.0987206 87.0476154,93.6324391 C23.5982186,111.164888 15.984291,139.755564 31.2121462,184.186504 C46.4400015,228.617444 33.7501221,248.927462 13.460274,260.352561 C4.36543747,265.474813 0.106713959,274.677096 0.0610303932,285.27324 L0.0610303932,285.62488 C0.119403838,298.588559 6.43769477,313.583366 17.8877729,325.730785 C38.8260738,347.946255 18.5222669,369.526998 48.6048949,384.759194 C76.2954806,398.782868 96.8606991,399.481068 99.9557607,399.503919 L100.275546,399.503919 C100.331381,399.503919 100.359299,399.502649 100.359299,399.502649 C100.359299,399.502649 377.645853,213.38271 392.372458,199.419969 C399.638682,192.529365 406.035651,181.003979 406.06103,163.314118 L406.06103,163.097041 C406.033113,144.959061 399.321435,120.370979 380.045509,87.7066211 C357.17327,48.951416 335.816203,38.8541675 317.999613,38.8554369 C306.05336,38.8567064 295.69715,43.396279 287.547709,46.8809342" id="Fill-1" fill="url(#linearGradient-37)" mask="url(#mask-36)"></path>
                </g>
                <g id="Asparagus" transform="translate(694.369797, 584.343787) rotate(51.000000) translate(-694.369797, -584.343787) translate(636.369797, 377.343787)">
                    <g id="Group-3" transform="translate(0.479160, 0.863856)">
                        <mask id="mask-39" fill="white">
                            <use xlink:href="#path-38"></use>
                        </mask>
                        <g id="Clip-2"></g>
                        <path d="M102.592916,0.24859661 C102.592916,0.24859661 92.3443855,7.2791322 92.8083855,16.3319593 C92.8083855,16.3319593 77.9030843,20.4701153 82.0958554,37.8257898 C82.0958554,37.8257898 74.6872289,43.1845831 77.4600482,54.3043932 C77.4600482,54.3043932 69.6559036,66.8208136 72.1492048,72.4072542 C72.1492048,72.4072542 66.2555663,86.3733559 69.050747,97.0783729 C69.050747,97.0783729 58.3368193,111.045871 62.5295904,124.081831 C62.5295904,124.081831 52.7464578,131.995024 50.8820723,148.754346 C49.0190843,165.513668 35.0431807,215.326563 33.1801928,228.361125 C31.3158072,241.397085 25.7254458,255.363186 24.7946506,276.312339 C23.8624578,297.260095 11.2841446,328.451986 8.02356627,343.814698 C5.0173494,357.966549 0.0363373494,376.466047 0,395.307715 L0,395.714129 C0.00279518072,397.190346 0.0363373494,398.666563 0.103421687,400.144176 C0.103421687,400.144176 4.29619277,411.040529 9.42115663,411.877098 C14.5447229,412.713668 23.8624578,408.988908 29.4528193,408.988908 C29.4528193,408.988908 37.8383614,370.350292 38.303759,354.056041 C38.7705542,337.763186 45.8032289,320.161708 47.621494,309.829586 C49.439759,299.497464 50.9100241,258.796054 56.7980723,242.327227 C62.6889157,225.859797 67.187759,215.326563 68.5853494,198.102169 C69.9829398,180.87638 88.1516145,153.410644 91.878988,147.356339 C95.6049639,141.306224 104.922699,136.184854 103.990506,115.702169 L98.8669398,115.702169 C98.8669398,115.702169 99.4623133,99.4079186 104.054795,95.2180881 C108.650072,91.0282576 115.171229,80.7869153 112.376048,62.6309831 C112.376048,62.6309831 117.450699,45.6090983 113.049687,37.8257898 C113.049687,37.8257898 115.638024,17.8361085 104.922699,11.8362712 C104.922699,11.8362712 105.854892,3.50688814 102.592916,0.24859661 Z" id="Fill-1" fill="url(#linearGradient-40)" mask="url(#mask-39)"></path>
                    </g>
                    <g id="Group-6" transform="translate(16.992411, 80.836216)">
                        <mask id="mask-42" fill="white">
                            <use xlink:href="#path-41"></use>
                        </mask>
                        <g id="Clip-5"></g>
                        <path d="M6.51481356,16.9864034 C-2.28698305,24.8930252 4.66216949,47.2123529 4.66216949,47.2123529 C-5.06664407,53.7198319 4.19935593,74.6455966 4.19935593,74.6455966 C-3.214,88.1306555 12.0741356,113.239899 12.0741356,113.239899 C3.73515254,127.654 17.1706441,127.189479 22.7299661,145.323933 C28.2892881,163.458387 27.5943729,203.910773 35.2384407,229.021412 C42.8825085,254.130655 51.2214915,325.970992 51.2214915,325.970992 C69.9842034,340.61805 80.1758305,323.414034 80.1758305,323.414034 C76.9333559,316.437849 73.226678,300.164269 73.6908814,286.214689 C74.1536949,272.265109 69.0571864,247.620387 63.0350508,227.161933 C57.0129153,206.702084 55.6230847,186.242235 51.2214915,169.038218 C46.8198983,151.834202 42.6504068,135.559227 45.8942712,118.819731 C49.1367458,102.080235 41.2605763,81.1558655 41.2605763,81.1558655 C44.0402373,72.7861176 35.7012542,44.886958 35.7012542,44.886958 C37.5538983,34.1918151 25.7194915,12.3384034 25.7194915,12.3384034 C25.0009492,5.36361345 14.8537966,0.712823529 14.8537966,0.712823529 C10.6843051,2.10778151 15.318,9.08257143 6.51481356,16.9864034" id="Fill-4" fill="url(#linearGradient-43)" mask="url(#mask-42)"></path>
                    </g>
                </g>
                <g id="Group-3" transform="translate(135.807798, 586.878815) rotate(-35.000000) translate(-135.807798, -586.878815) translate(39.307798, 488.378815)">
                    <mask id="mask-45" fill="white">
                        <use xlink:href="#path-44"></use>
                    </mask>
                    <g id="Clip-2"></g>
                    <path d="M58.0052789,0.784879939 C40.5449017,0.802453571 21.5496585,2.1688035 0.292277086,3.55858494 C57.003454,65.6857693 5.01224525,150.255947 83.5328296,189.431967 C162.050493,228.609452 236.64994,106.036294 161.029683,35.8911399 C128.834009,7.6444545 97.5174877,0.824420612 58.6931208,0.784879939 L58.0052789,0.784879939 Z" id="Fill-1" fill="url(#linearGradient-46)" mask="url(#mask-45)"></path>
                </g>
                <g id="Chilli" transform="translate(95.331787, 339.969612) scale(-1, 1) rotate(15.000000) translate(-95.331787, -339.969612) translate(44.831787, 248.969612)">
                    <g id="Group-3" transform="translate(0.639877, 39.412501)">
                        <mask id="mask-48" fill="white">
                            <use xlink:href="#path-47"></use>
                        </mask>
                        <g id="Clip-2"></g>
                        <path d="M0,19.5210348 L0,19.7329553 C0.005,22.6010425 0.215,25.7476334 0.724285714,29.1448061 C3.15857143,45.3782082 13.3471429,67.4816669 25.1121429,90.4779127 C39.6007143,121.704695 60.0592857,133.735483 94.9607143,141.541463 C98.105,142.244524 101.921429,141.324531 97.5192857,137.405432 C80.0492857,121.85576 42.9371429,76.3035766 49.4028571,7.51673674 L3.76714286,0.156792585 C3.76714286,0.156792585 0.0221428571,7.28333773 0,19.5210348" id="Fill-1" fill="url(#linearGradient-49)" mask="url(#mask-48)"></path>
                    </g>
                    <g id="Group-6" transform="translate(1.732204, 0.971520)">
                        <mask id="mask-51" fill="white">
                            <use xlink:href="#path-50"></use>
                        </mask>
                        <g id="Clip-5"></g>
                        <path d="M10.6954928,0.14976 L5.047,8.53704 C17.4752464,14.40432 19.2506087,30.02976 18.5404638,32.54976 C17.8296087,35.06904 -0.710144928,30.6288 0.401942029,47.34504 C1.92662319,46.88352 4.46042029,48.66912 7.59357971,50.45616 C12.0412174,52.992 17.6975217,55.52784 23.3928841,51.62976 C33.0977246,44.9856 43.4835942,48.12984 48.4063188,46.43928 C52.3937826,32.75856 28.4817826,35.74368 28.4817826,28.54872 C26.6126812,12.6684 10.6954928,0.14976 10.6954928,0.14976 Z" id="Fill-4" fill="url(#linearGradient-52)" mask="url(#mask-51)"></path>
                    </g>
                </g>
            </g>
        </g>
    </g>
</svg>