<?xml version="1.0" encoding="UTF-8"?>
<svg width="798px" height="971px" viewBox="0 0 798 971" version="1.1" xmlns="http://www.w3.org/2000/svg" xmlns:xlink="http://www.w3.org/1999/xlink">
    <!-- Generator: Sketch 52.5 (67469) - http://www.bohemiancoding.com/sketch -->
    <title>Group 16</title>
    <desc>Created with Sketch.</desc>
    <defs>
        <path d="M36.82778,1.15136342 C0.62319621,6.13801176 -4.59451406,51.1252036 6.29583971,97.4395752 C17.1861935,143.753947 -2.90876831,159.113757 0.366127773,191.918279 C3.64102386,224.725913 68.3365804,281.424338 68.3365804,349.857335 C82.1621883,365.960864 80.8347804,347.6713 75.7074336,368.842384 C70.5800867,390.015024 98.2531144,392.551135 98.162751,356.515016 C98.0755035,320.475785 113.780048,307.603853 118.64721,277.565715 C123.519047,247.527577 114.922055,259.858057 112.220499,227.990184 C109.517386,196.123868 161.022995,197.180321 158.21238,175.690279 C155.400207,154.203348 187.899889,156.909052 185.5037,140.324751 C159.362177,138.356542 133.021231,148.827725 126.458975,77.0479955 C120.558865,12.4829577 66.4981516,0.768612879 43.3277165,0.768612879 C40.7383362,0.768612879 38.5337796,0.914867152 36.82778,1.15136342" id="path-1"></path>
        <linearGradient x1="100.000428%" y1="50.0000578%" x2="-0.000235785335%" y2="50.0000578%" id="linearGradient-3">
            <stop stop-color="#3FBA69" offset="0%"></stop>
            <stop stop-color="#C6D459" offset="100%"></stop>
        </linearGradient>
        <path d="M16.8194622,30.9374044 C19.9200506,41.4252405 22.3777592,52.09052 23.7742544,62.8803211 C25.0861601,72.488723 25.5429433,82.1920727 25.0369444,91.8067008 C23.1713622,88.8648768 21.0766194,86.0615831 18.6758165,83.5384631 C16.2719376,81.0200127 13.5481567,78.7490491 10.4475683,77.1800763 C8.90188798,76.404929 7.28392216,75.7745381 5.61366467,75.4149818 C3.9403312,75.0632082 2.24392788,74.9449126 0.57520838,75.0445299 C3.91879934,75.3371558 7.04860964,76.593268 9.65857922,78.515571 C12.2916186,80.4083001 14.458647,82.8738288 16.3088494,85.5245834 C18.1575137,88.1877903 19.6908901,91.0735795 20.9951059,94.0512035 C22.2747138,96.9945841 23.4051367,100.158991 24.155676,103.11171 C23.4974161,111.5356 23.0944627,120.06222 23.8573059,128.786518 C24.1141502,131.652073 24.6063071,134.548758 25.4429739,137.43299 C26.2719507,140.309441 27.5069569,143.182778 29.1664484,145.724576 C32.4346779,150.756807 36.4949723,154.324353 39.9939003,158.212541 C40.0615719,158.388428 40.1154015,158.554976 40.1876871,158.732419 L40.3783979,158.637471 C42.1209409,160.566 43.8311862,162.547451 45.3907083,164.58338 C46.9733004,166.661335 48.4543851,168.85136 49.7924366,171.144115 C52.4962236,175.715616 54.7355375,180.620212 56.6580254,185.661783 C60.5214571,195.760489 63.1821804,206.388412 65.1969477,217.142413 C67.1748033,227.911979 68.492861,238.835641 69.2464762,249.835572 C69.604828,238.81385 69.121899,227.737649 67.8007653,216.734604 C67.1548094,211.230747 66.262775,205.748682 65.1015923,200.307085 C63.9480996,194.870159 62.5731362,189.45191 60.7598456,184.153514 C58.958859,178.853561 56.8149004,173.634548 54.1095755,168.644342 C52.7653719,166.147683 51.2842873,163.702389 49.58327,161.392513 C48.2513703,159.549592 46.8656411,157.792281 45.446076,156.062986 L45.6844645,155.940021 C44.8647157,154.478448 44.0572707,152.562371 43.4405366,150.763033 C42.8161125,148.924782 42.3162657,147.030497 41.9732939,145.10975 C41.2858122,141.266701 41.2442864,137.296017 42.0286615,133.435845 C42.8453344,129.588126 44.5309718,125.889833 46.9640724,122.658497 C49.412553,119.445838 52.5023756,116.667449 55.932094,114.370024 C52.2501452,116.219171 48.775825,118.609986 45.8013518,121.638975 C42.8453344,124.685086 40.5029751,128.440971 39.0695681,132.590655 C37.663845,136.751234 37.1516942,141.221562 37.3885447,145.631185 C37.4116146,146.043663 37.4700582,146.454584 37.503894,146.865506 C36.2719637,145.419498 35.1261609,143.979716 34.2018288,142.462109 C31.5595614,138.346668 30.4983481,133.390706 29.9431336,128.149901 C29.395609,122.915322 29.3663872,117.490848 29.5078823,112.061704 C29.5847818,108.459915 29.7308909,104.858126 29.8969939,101.239216 L30.0092671,101.201859 C29.9785073,101.127146 29.9431336,101.055546 29.9108358,100.980833 C29.9923493,99.209513 30.0692488,97.4459751 30.1661422,95.6575329 C30.8643898,84.4256799 29.867772,73.1922704 28.0144937,62.2094607 C26.052018,51.2344336 23.1113806,40.4804325 19.2556388,30.1031093 C15.416815,19.7288992 10.812072,9.63641932 5.13688767,0.214799849 C9.86466992,10.1454016 13.6435121,20.4729161 16.8194622,30.9374044" id="path-4"></path>
        <linearGradient x1="-11.6637963%" y1="48.8834056%" x2="122.223591%" y2="51.1870417%" id="linearGradient-6">
            <stop stop-color="#4669AF" offset="0%"></stop>
            <stop stop-color="#44BFEF" offset="100%"></stop>
        </linearGradient>
        <path d="M170.561131,2.10537845 C114.878846,9.71967515 103.068393,60.9021666 103.068393,60.9021666 L26.0459907,218.594702 C26.0459907,218.594702 4.49796431,256.176795 4.4405567,332.779634 C4.38470064,409.380919 28.8636185,440.523253 1.97047764,515.614418 C-8.37375419,543.719423 42.3326865,548.40359 55.0337338,523.017422 C67.7378841,497.632808 75.927003,477.292802 74.300971,437.075767 C75.8820078,372.721677 76.6748535,321.706976 85.3744347,304.441586 C94.077119,287.176195 91.6039369,278.023814 146.598882,255.688958 C201.592275,233.352548 189.179817,203.833748 214.780511,165.771587 C240.381205,127.707871 266.298416,118.384591 266.264282,60.0103881 C262.753108,18.1713736 236.688499,0.301624427 195.198308,0.300070806 C187.501033,0.300070806 179.274676,0.915304737 170.561131,2.10537845" id="path-7"></path>
        <path d="M93.6924253,59.1179161 L92.4284334,67.9736363 C92.2543042,70.9483377 92.1610206,73.9292558 92.028869,76.9117281 L91.7785582,83.1144623 C91.6930483,83.412865 91.6106478,83.7268094 91.5313568,84.0920418 L91.7365806,84.1246796 L91.6837199,85.428637 C91.5002623,88.2463662 91.0027501,91.0283492 90.6840314,93.8243198 C88.9831616,104.966239 84.9579772,115.63258 79.1215375,125.254511 C76.3323599,130.143963 72.910409,134.677507 69.3749631,139.119355 C66.837651,142.182645 64.1650778,145.148021 61.4209872,148.072989 C60.861286,148.56411 58.4949938,151.154928 57.8373449,151.834105 C53.8245982,155.985321 49.6983567,160.080587 45.6514061,164.374787 C43.652029,166.591049 41.6650898,168.794877 39.8118569,170.939646 C37.9182012,173.104619 35.9841227,175.24628 34.0205043,177.386386 C30.1212526,181.680587 26.1100607,185.925054 22.3196399,190.408864 C20.9188322,192.068729 12.9928413,202.501942 11.6915361,204.509943 C5.19433803,214.344797 0.96237511,225.903237 0.666977257,237.575133 C2.367847,226.022909 7.69589143,211.340566 23.3053359,198.838739 C24.8880465,197.722837 26.5189536,196.653561 28.1996119,195.654223 C31.557819,193.64933 35.0979291,191.894661 38.7795192,190.464815 C42.4517809,189.016318 46.2546396,187.813383 50.166329,187.022305 C54.0624713,186.119326 58.0643348,185.757202 62.0957381,185.510087 C58.0783273,185.23966 54.001837,185.081134 49.9393391,185.48522 C45.8675129,185.775852 41.8158982,186.498546 37.823363,187.505655 C34.3019096,188.375996 30.8426453,189.541631 27.4611172,190.934177 C30.7664637,187.510318 34.1604296,184.143963 37.5357387,180.730982 C39.5926406,178.670139 41.6448784,176.581321 43.6675763,174.450539 L49.5895259,168.139012 C53.6224839,164.068614 57.8544468,160.077478 62.0242207,155.971334 C62.815576,155.192689 65.7073656,152.18535 66.4116562,151.465764 C67.1081733,150.704216 67.885536,150.001727 68.6380232,149.27437 C70.2051865,147.881824 71.845422,146.542121 73.5882693,145.334523 C77.0677451,142.917772 80.8488376,140.828953 84.8942335,139.346265 C88.930301,137.876011 93.1544903,136.680846 97.5077218,136.245675 C99.6750092,135.868009 101.871836,135.909972 104.076437,135.787192 C106.281038,135.740567 108.480975,135.96126 110.704232,136.034307 C108.519843,135.704821 106.332344,135.224579 104.113751,135.011656 C101.890493,134.873334 99.653243,134.571823 97.4082193,134.694603 C92.90107,134.620003 88.3939207,135.330263 83.9613981,136.379335 C81.8360883,136.889106 79.7512014,137.562066 77.7036278,138.353144 C80.1289997,135.181062 82.443986,131.914174 84.460465,128.435919 C90.5736459,118.136365 94.8848998,106.615225 96.4893765,94.713311 C96.7630082,91.7323929 97.2045503,88.7592457 97.3258189,85.7767734 L97.3382567,85.0058999 L97.6740774,85.0602962 C97.7238286,84.653101 97.8995126,83.869794 98.0876344,83.2387967 C98.2384428,82.5736075 98.5369501,81.9037557 98.7515022,81.2292414 C99.2878825,79.9035255 99.8569121,78.5622678 100.595407,77.2909482 C101.242173,75.9714489 102.126811,74.7778384 102.930604,73.5282773 C103.790368,72.3144623 104.777618,71.1814648 105.701125,69.9971793 C109.664121,65.4512015 114.629914,61.7133975 119.968842,58.6159158 C122.591664,56.9560511 125.450804,55.723586 128.269521,54.3792199 C129.657891,53.6549718 131.170639,53.2275722 132.619643,52.640092 L137.02729,50.9973232 C140.045013,50.1394156 143.053407,49.203799 146.102223,48.4018419 L155.362169,46.4124909 L145.946751,47.6434018 C142.827971,48.1935817 139.724739,48.8836378 136.601296,49.5022016 L131.999308,50.7999423 C130.478786,51.2739674 128.896076,51.5879118 127.420641,52.2080298 C124.427795,53.3410274 121.377423,54.3730032 118.510509,55.8712331 C112.69739,58.6392285 107.095714,62.1470138 102.332035,66.773809 C101.20175,67.9860698 100.012385,69.1563677 98.9365146,70.433904 C98.4778705,71.0291551 98.0036792,71.6119728 97.5434805,72.2072239 L97.6072242,68.3730607 L98.4592138,59.9214274 C100.138317,48.7064612 103.849447,37.783681 109.289432,27.706375 C109.623698,27.0738235 109.936198,26.4272844 110.290675,25.8056123 L111.400749,23.9639084 C112.154791,22.7454309 112.852863,21.4865448 113.655101,20.2944884 L116.09602,16.7369693 C116.916915,15.5526838 117.824875,14.4336739 118.681529,13.2727011 C119.5273,12.100849 120.481901,11.0206936 121.402299,9.90634621 C122.310258,8.77956538 123.300619,7.72738522 124.273877,6.65655488 C126.225057,4.51800258 128.261748,2.43695495 130.48656,0.562613324 C111.556222,14.1989926 98.1482687,35.6917541 93.6924253,59.1179161" id="path-9"></path>
        <linearGradient x1="106.487823%" y1="50.0001298%" x2="-10.0522899%" y2="50.0001298%" id="linearGradient-11">
            <stop stop-color="#4669AF" offset="0%"></stop>
            <stop stop-color="#44BFEF" offset="100%"></stop>
        </linearGradient>
        <polygon id="path-12" points="0 0.324383381 517 0.324383381 517 301.523322 0 301.523322"></polygon>
        <linearGradient x1="50%" y1="163.666199%" x2="50%" y2="-2.77555756e-15%" id="linearGradient-14">
            <stop stop-color="#E23B0A" offset="0%"></stop>
            <stop stop-color="#FFDA19" offset="100%"></stop>
        </linearGradient>
        <path d="M27.6997681,33.216997 C20.3760184,2.07304612 0.233609534,5.39033955 0.233609534,5.39033955 C17.6285637,35.0487473 -6.4043251,84.5102008 35.3685226,109.617559 C77.1403217,134.723868 63.1786374,109.617559 63.1786374,109.617559 C84.1610124,114.469704 104.946242,65.2411532 94.0801631,14.8973962 C89.0424636,40.0865851 72.444481,56.5733865 72.444481,56.5733865 C77.3626348,33.216997 67.0701659,15.8132713 67.0701659,15.8132713 C66.1546972,37.3379106 50.5896318,42.1470418 50.5896318,42.1470418 C41.3227395,24.2439386 51.9623105,0.699757975 51.9623105,0.699757975 C27.6997681,7.111933 27.6997681,33.216997 27.6997681,33.216997" id="path-15"></path>
        <linearGradient x1="-0.000534242904%" y1="49.9999473%" x2="99.9995045%" y2="49.9999473%" id="linearGradient-17">
            <stop stop-color="#3FBA69" offset="0%"></stop>
            <stop stop-color="#C6D459" offset="100%"></stop>
        </linearGradient>
        <polygon id="path-18" points="0 0.224768252 101.27971 0.224768252 101.27971 304.242073 0 304.242073"></polygon>
        <polygon id="path-20" points="0.00025348486 0.29037096 95.7862997 0.29037096 95.7862997 65.7599187 0.00025348486 65.7599187"></polygon>
        <linearGradient x1="50%" y1="124.960405%" x2="50%" y2="6.58642762%" id="linearGradient-22">
            <stop stop-color="#FFA868" offset="0%"></stop>
            <stop stop-color="#FFB992" offset="100%"></stop>
        </linearGradient>
        <polygon id="path-23" points="0.233087628 0.333207505 31.2104601 0.333207505 31.2104601 67.19328 0.233087628 67.19328"></polygon>
        <linearGradient x1="50%" y1="129.486957%" x2="50%" y2="4.89283886%" id="linearGradient-25">
            <stop stop-color="#FFCEAB" offset="0%"></stop>
            <stop stop-color="#FFDDCA" offset="100%"></stop>
        </linearGradient>
        <polygon id="path-26" points="0 0.289239178 133.521916 0.289239178 133.521916 88.7262341 0 88.7262341"></polygon>
        <polygon id="path-28" points="0.42929329 0.19757089 62.6283894 0.19757089 62.6283894 90.2873679 0.42929329 90.2873679"></polygon>
        <path d="M69.7920541,14.7904289 C72.7943127,30.1179315 81.7335135,79.671818 72.9053287,85.1004425 C65.3015377,89.7797368 55.9938925,48.0922101 51.4824599,25.002868 C45.2896983,29.0711203 39.1194616,33.7584546 32.9170463,39.182255 C-50.3964339,116.199257 40.5674963,224.596474 127.073089,181.580736 C187.407867,151.580189 173.537304,110.069542 180.812874,64.5549641 C163.568389,70.7280949 137.786936,78.3677261 139.944508,67.9478544 C143.162363,52.4048792 188.749713,36.1817179 188.749713,36.1817179 L188.752931,36.191366 C193.320676,25.4515013 200.012205,14.5846043 210.002035,3.67911518 C186.469863,2.14507852 165.465315,0.641593949 146.153359,0.641593949 C117.982649,0.641593949 93.4078909,3.83669966 69.7920541,14.7904289" id="path-30"></path>
        <linearGradient x1="50.0003029%" y1="100.000301%" x2="50.0003029%" y2="0.000156154296%" id="linearGradient-32">
            <stop stop-color="#3FBA69" offset="0%"></stop>
            <stop stop-color="#C6D459" offset="100%"></stop>
        </linearGradient>
        <path d="M91.1229448,5.95674981 L86.8754988,8.64663494 C85.440984,9.523386 84.0801984,10.4968375 82.7306325,11.4912408 C77.3788505,15.5075343 71.8427453,19.3626602 66.872432,23.8914662 C56.4910327,32.4655758 47.2860958,42.3854338 38.5620019,52.6534135 C29.9773524,63.0551622 22.3463747,74.2530783 15.7796628,86.0295856 C9.25302119,97.8012578 3.61273337,110.182143 0.318959157,123.236708 C6.093883,111.142701 12.8336984,99.712704 20.0415342,88.6276052 C21.871943,85.8716414 23.659076,83.0979492 25.5824478,80.4112874 C27.5074224,77.727849 29.2817329,74.9444867 31.3413435,72.3609722 L37.2653287,64.4395908 L43.4970533,56.7615724 L45.0325452,54.821116 L46.6529859,52.953185 L49.8906618,49.217323 C52.0432354,46.7208388 54.1845893,44.2146846 56.4862243,41.8487461 L63.2260396,34.5962098 C64.335184,33.3729487 65.5773616,32.2850682 66.7393988,31.1101574 L70.2447439,27.6079882 C74.8399997,22.837431 79.8503832,18.5245894 84.6892661,13.9699966 C87.042191,11.6024464 89.6948413,9.61202811 92.1791965,7.392752 C94.6988136,5.21376776 97.2136222,3.02027845 99.693169,0.747817076 C96.8097141,2.42718215 93.9647267,4.18390761 91.1229448,5.95674981" id="path-33"></path>
        <linearGradient x1="-3.06830968%" y1="49.9995087%" x2="101.829897%" y2="49.9995087%" id="linearGradient-35">
            <stop stop-color="#4669AF" offset="0%"></stop>
            <stop stop-color="#44BFEF" offset="100%"></stop>
        </linearGradient>
    </defs>
    <g id="2---Fast,-Healthy,-(Vegan)" stroke="none" stroke-width="1" fill="none" fill-rule="evenodd">
        <g id="Suncraft_MENU-Copy-2" transform="translate(-666.000000, -4974.000000)">
            <g id="Group-16" transform="translate(1047.500000, 5465.500000) scale(-1, 1) translate(-1047.500000, -5465.500000) translate(628.000000, 4957.000000)">
                <g id="Group-13" transform="translate(514.059985, 280.206351) rotate(61.000000) translate(-514.059985, -280.206351) translate(348.059985, 1.706351)">
                    <g id="Group-3">
                        <mask id="mask-2" fill="white">
                            <use xlink:href="#path-1"></use>
                        </mask>
                        <g id="Clip-2"></g>
                        <path d="M36.82778,1.15136342 C0.62319621,6.13801176 -4.59451406,51.1252036 6.29583971,97.4395752 C17.1861935,143.753947 -2.90876831,159.113757 0.366127773,191.918279 C3.64102386,224.725913 68.3365804,281.424338 68.3365804,349.857335 C82.1621883,365.960864 80.8347804,347.6713 75.7074336,368.842384 C70.5800867,390.015024 98.2531144,392.551135 98.162751,356.515016 C98.0755035,320.475785 113.780048,307.603853 118.64721,277.565715 C123.519047,247.527577 114.922055,259.858057 112.220499,227.990184 C109.517386,196.123868 161.022995,197.180321 158.21238,175.690279 C155.400207,154.203348 187.899889,156.909052 185.5037,140.324751 C159.362177,138.356542 133.021231,148.827725 126.458975,77.0479955 C120.558865,12.4829577 66.4981516,0.768612879 43.3277165,0.768612879 C40.7383362,0.768612879 38.5337796,0.914867152 36.82778,1.15136342" id="Fill-1" fill="url(#linearGradient-3)" mask="url(#mask-2)"></path>
                    </g>
                    <g id="Group-6" transform="translate(46.481485, 48.038305)">
                        <mask id="mask-5" fill="white">
                            <use xlink:href="#path-4"></use>
                        </mask>
                        <g id="Clip-5"></g>
                        <path d="M16.8194622,30.9374044 C19.9200506,41.4252405 22.3777592,52.09052 23.7742544,62.8803211 C25.0861601,72.488723 25.5429433,82.1920727 25.0369444,91.8067008 C23.1713622,88.8648768 21.0766194,86.0615831 18.6758165,83.5384631 C16.2719376,81.0200127 13.5481567,78.7490491 10.4475683,77.1800763 C8.90188798,76.404929 7.28392216,75.7745381 5.61366467,75.4149818 C3.9403312,75.0632082 2.24392788,74.9449126 0.57520838,75.0445299 C3.91879934,75.3371558 7.04860964,76.593268 9.65857922,78.515571 C12.2916186,80.4083001 14.458647,82.8738288 16.3088494,85.5245834 C18.1575137,88.1877903 19.6908901,91.0735795 20.9951059,94.0512035 C22.2747138,96.9945841 23.4051367,100.158991 24.155676,103.11171 C23.4974161,111.5356 23.0944627,120.06222 23.8573059,128.786518 C24.1141502,131.652073 24.6063071,134.548758 25.4429739,137.43299 C26.2719507,140.309441 27.5069569,143.182778 29.1664484,145.724576 C32.4346779,150.756807 36.4949723,154.324353 39.9939003,158.212541 C40.0615719,158.388428 40.1154015,158.554976 40.1876871,158.732419 L40.3783979,158.637471 C42.1209409,160.566 43.8311862,162.547451 45.3907083,164.58338 C46.9733004,166.661335 48.4543851,168.85136 49.7924366,171.144115 C52.4962236,175.715616 54.7355375,180.620212 56.6580254,185.661783 C60.5214571,195.760489 63.1821804,206.388412 65.1969477,217.142413 C67.1748033,227.911979 68.492861,238.835641 69.2464762,249.835572 C69.604828,238.81385 69.121899,227.737649 67.8007653,216.734604 C67.1548094,211.230747 66.262775,205.748682 65.1015923,200.307085 C63.9480996,194.870159 62.5731362,189.45191 60.7598456,184.153514 C58.958859,178.853561 56.8149004,173.634548 54.1095755,168.644342 C52.7653719,166.147683 51.2842873,163.702389 49.58327,161.392513 C48.2513703,159.549592 46.8656411,157.792281 45.446076,156.062986 L45.6844645,155.940021 C44.8647157,154.478448 44.0572707,152.562371 43.4405366,150.763033 C42.8161125,148.924782 42.3162657,147.030497 41.9732939,145.10975 C41.2858122,141.266701 41.2442864,137.296017 42.0286615,133.435845 C42.8453344,129.588126 44.5309718,125.889833 46.9640724,122.658497 C49.412553,119.445838 52.5023756,116.667449 55.932094,114.370024 C52.2501452,116.219171 48.775825,118.609986 45.8013518,121.638975 C42.8453344,124.685086 40.5029751,128.440971 39.0695681,132.590655 C37.663845,136.751234 37.1516942,141.221562 37.3885447,145.631185 C37.4116146,146.043663 37.4700582,146.454584 37.503894,146.865506 C36.2719637,145.419498 35.1261609,143.979716 34.2018288,142.462109 C31.5595614,138.346668 30.4983481,133.390706 29.9431336,128.149901 C29.395609,122.915322 29.3663872,117.490848 29.5078823,112.061704 C29.5847818,108.459915 29.7308909,104.858126 29.8969939,101.239216 L30.0092671,101.201859 C29.9785073,101.127146 29.9431336,101.055546 29.9108358,100.980833 C29.9923493,99.209513 30.0692488,97.4459751 30.1661422,95.6575329 C30.8643898,84.4256799 29.867772,73.1922704 28.0144937,62.2094607 C26.052018,51.2344336 23.1113806,40.4804325 19.2556388,30.1031093 C15.416815,19.7288992 10.812072,9.63641932 5.13688767,0.214799849 C9.86466992,10.1454016 13.6435121,20.4729161 16.8194622,30.9374044" id="Fill-4" fill="url(#linearGradient-6)" mask="url(#mask-5)"></path>
                    </g>
                    <g id="Group-9" transform="translate(64.112393, 16.813407)">
                        <mask id="mask-8" fill="white">
                            <use xlink:href="#path-7"></use>
                        </mask>
                        <g id="Clip-8"></g>
                        <path d="M170.561131,2.10537845 C114.878846,9.71967515 103.068393,60.9021666 103.068393,60.9021666 L26.0459907,218.594702 C26.0459907,218.594702 4.49796431,256.176795 4.4405567,332.779634 C4.38470064,409.380919 28.8636185,440.523253 1.97047764,515.614418 C-8.37375419,543.719423 42.3326865,548.40359 55.0337338,523.017422 C67.7378841,497.632808 75.927003,477.292802 74.300971,437.075767 C75.8820078,372.721677 76.6748535,321.706976 85.3744347,304.441586 C94.077119,287.176195 91.6039369,278.023814 146.598882,255.688958 C201.592275,233.352548 189.179817,203.833748 214.780511,165.771587 C240.381205,127.707871 266.298416,118.384591 266.264282,60.0103881 C262.753108,18.1713736 236.688499,0.301624427 195.198308,0.300070806 C187.501033,0.300070806 179.274676,0.915304737 170.561131,2.10537845" id="Fill-7" fill="url(#linearGradient-3)" mask="url(#mask-8)"></path>
                    </g>
                    <g id="Group-12" transform="translate(124.217762, 71.256819)">
                        <mask id="mask-10" fill="white">
                            <use xlink:href="#path-9"></use>
                        </mask>
                        <g id="Clip-11"></g>
                        <path d="M93.6924253,59.1179161 L92.4284334,67.9736363 C92.2543042,70.9483377 92.1610206,73.9292558 92.028869,76.9117281 L91.7785582,83.1144623 C91.6930483,83.412865 91.6106478,83.7268094 91.5313568,84.0920418 L91.7365806,84.1246796 L91.6837199,85.428637 C91.5002623,88.2463662 91.0027501,91.0283492 90.6840314,93.8243198 C88.9831616,104.966239 84.9579772,115.63258 79.1215375,125.254511 C76.3323599,130.143963 72.910409,134.677507 69.3749631,139.119355 C66.837651,142.182645 64.1650778,145.148021 61.4209872,148.072989 C60.861286,148.56411 58.4949938,151.154928 57.8373449,151.834105 C53.8245982,155.985321 49.6983567,160.080587 45.6514061,164.374787 C43.652029,166.591049 41.6650898,168.794877 39.8118569,170.939646 C37.9182012,173.104619 35.9841227,175.24628 34.0205043,177.386386 C30.1212526,181.680587 26.1100607,185.925054 22.3196399,190.408864 C20.9188322,192.068729 12.9928413,202.501942 11.6915361,204.509943 C5.19433803,214.344797 0.96237511,225.903237 0.666977257,237.575133 C2.367847,226.022909 7.69589143,211.340566 23.3053359,198.838739 C24.8880465,197.722837 26.5189536,196.653561 28.1996119,195.654223 C31.557819,193.64933 35.0979291,191.894661 38.7795192,190.464815 C42.4517809,189.016318 46.2546396,187.813383 50.166329,187.022305 C54.0624713,186.119326 58.0643348,185.757202 62.0957381,185.510087 C58.0783273,185.23966 54.001837,185.081134 49.9393391,185.48522 C45.8675129,185.775852 41.8158982,186.498546 37.823363,187.505655 C34.3019096,188.375996 30.8426453,189.541631 27.4611172,190.934177 C30.7664637,187.510318 34.1604296,184.143963 37.5357387,180.730982 C39.5926406,178.670139 41.6448784,176.581321 43.6675763,174.450539 L49.5895259,168.139012 C53.6224839,164.068614 57.8544468,160.077478 62.0242207,155.971334 C62.815576,155.192689 65.7073656,152.18535 66.4116562,151.465764 C67.1081733,150.704216 67.885536,150.001727 68.6380232,149.27437 C70.2051865,147.881824 71.845422,146.542121 73.5882693,145.334523 C77.0677451,142.917772 80.8488376,140.828953 84.8942335,139.346265 C88.930301,137.876011 93.1544903,136.680846 97.5077218,136.245675 C99.6750092,135.868009 101.871836,135.909972 104.076437,135.787192 C106.281038,135.740567 108.480975,135.96126 110.704232,136.034307 C108.519843,135.704821 106.332344,135.224579 104.113751,135.011656 C101.890493,134.873334 99.653243,134.571823 97.4082193,134.694603 C92.90107,134.620003 88.3939207,135.330263 83.9613981,136.379335 C81.8360883,136.889106 79.7512014,137.562066 77.7036278,138.353144 C80.1289997,135.181062 82.443986,131.914174 84.460465,128.435919 C90.5736459,118.136365 94.8848998,106.615225 96.4893765,94.713311 C96.7630082,91.7323929 97.2045503,88.7592457 97.3258189,85.7767734 L97.3382567,85.0058999 L97.6740774,85.0602962 C97.7238286,84.653101 97.8995126,83.869794 98.0876344,83.2387967 C98.2384428,82.5736075 98.5369501,81.9037557 98.7515022,81.2292414 C99.2878825,79.9035255 99.8569121,78.5622678 100.595407,77.2909482 C101.242173,75.9714489 102.126811,74.7778384 102.930604,73.5282773 C103.790368,72.3144623 104.777618,71.1814648 105.701125,69.9971793 C109.664121,65.4512015 114.629914,61.7133975 119.968842,58.6159158 C122.591664,56.9560511 125.450804,55.723586 128.269521,54.3792199 C129.657891,53.6549718 131.170639,53.2275722 132.619643,52.640092 L137.02729,50.9973232 C140.045013,50.1394156 143.053407,49.203799 146.102223,48.4018419 L155.362169,46.4124909 L145.946751,47.6434018 C142.827971,48.1935817 139.724739,48.8836378 136.601296,49.5022016 L131.999308,50.7999423 C130.478786,51.2739674 128.896076,51.5879118 127.420641,52.2080298 C124.427795,53.3410274 121.377423,54.3730032 118.510509,55.8712331 C112.69739,58.6392285 107.095714,62.1470138 102.332035,66.773809 C101.20175,67.9860698 100.012385,69.1563677 98.9365146,70.433904 C98.4778705,71.0291551 98.0036792,71.6119728 97.5434805,72.2072239 L97.6072242,68.3730607 L98.4592138,59.9214274 C100.138317,48.7064612 103.849447,37.783681 109.289432,27.706375 C109.623698,27.0738235 109.936198,26.4272844 110.290675,25.8056123 L111.400749,23.9639084 C112.154791,22.7454309 112.852863,21.4865448 113.655101,20.2944884 L116.09602,16.7369693 C116.916915,15.5526838 117.824875,14.4336739 118.681529,13.2727011 C119.5273,12.100849 120.481901,11.0206936 121.402299,9.90634621 C122.310258,8.77956538 123.300619,7.72738522 124.273877,6.65655488 C126.225057,4.51800258 128.261748,2.43695495 130.48656,0.562613324 C111.556222,14.1989926 98.1482687,35.6917541 93.6924253,59.1179161" id="Fill-10" fill="url(#linearGradient-11)" mask="url(#mask-10)"></path>
                    </g>
                </g>
                <g id="Group-3" transform="translate(144.000000, 618.441112)">
                    <mask id="mask-13" fill="white">
                        <use xlink:href="#path-12"></use>
                    </mask>
                    <g id="Clip-2"></g>
                    <path d="M495.47225,29.1084345 C508.23121,-15.1016818 483.4037,4.78432117 483.4037,4.78432117 C483.4037,4.78432117 148.54725,-1.96439084 78.7900945,61.4568573 L66.2143358,50.2079952 C66.2143358,50.2079952 19.6661627,33.5631897 5.28261971,50.2079952 C-9.10092325,66.8528006 6.79667687,93.3331728 41.9318872,103.925322 C68.5898915,111.961736 78.7855524,146.764511 82.1573577,163.099118 C82.5918921,165.984722 83.0688201,168.83401 83.6169088,171.63639 L83.6169088,171.637903 C88.8116388,198.277158 100.051999,220.968567 137.276608,235.112112 C211.736425,263.402229 219.521707,339.222344 295.981593,278.695779 C372.44148,218.169213 409.53588,240.866675 453.443537,210.83642 C497.351195,180.804652 546.052357,109.474095 495.47225,29.1084345" id="Fill-1" fill="url(#linearGradient-14)" mask="url(#mask-13)"></path>
                </g>
                <g id="Group-20" transform="translate(628.797076, 819.813465) rotate(34.000000) translate(-628.797076, -819.813465) translate(577.797076, 616.813465)">
                    <g id="Group-3" transform="translate(1.602810, 0.000000)">
                        <mask id="mask-16" fill="white">
                            <use xlink:href="#path-15"></use>
                        </mask>
                        <g id="Clip-2"></g>
                        <path d="M27.6997681,33.216997 C20.3760184,2.07304612 0.233609534,5.39033955 0.233609534,5.39033955 C17.6285637,35.0487473 -6.4043251,84.5102008 35.3685226,109.617559 C77.1403217,134.723868 63.1786374,109.617559 63.1786374,109.617559 C84.1610124,114.469704 104.946242,65.2411532 94.0801631,14.8973962 C89.0424636,40.0865851 72.444481,56.5733865 72.444481,56.5733865 C77.3626348,33.216997 67.0701659,15.8132713 67.0701659,15.8132713 C66.1546972,37.3379106 50.5896318,42.1470418 50.5896318,42.1470418 C41.3227395,24.2439386 51.9623105,0.699757975 51.9623105,0.699757975 C27.6997681,7.111933 27.6997681,33.216997 27.6997681,33.216997" id="Fill-1" fill="url(#linearGradient-17)" mask="url(#mask-16)"></path>
                    </g>
                    <g id="Group-19" transform="translate(0.000000, 100.880440)">
                        <g id="Group-6">
                            <mask id="mask-19" fill="white">
                                <use xlink:href="#path-18"></use>
                            </mask>
                            <g id="Clip-5"></g>
                            <path d="M50.6402224,0.231329286 C37.1634999,0.140056506 25.066557,0.984591994 19.7426011,3.80145881 C4.52830049,11.8533965 -0.000314778633,19.0104414 -0.000314778633,50.9464721 C-0.000314778633,82.8825029 32.5089732,304.242073 50.6402224,304.242073 C68.7714717,304.242073 101.27971,82.8825029 101.27971,50.9464721 C101.27971,19.0104414 96.7510951,11.8533965 81.5367945,3.80145881 C76.2138878,0.984591994 64.1158957,0.140056506 50.6402224,0.231329286 Z" id="Fill-4" fill="url(#linearGradient-14)" mask="url(#mask-19)"></path>
                        </g>
                        <path d="M40.3880922,86.2418657 L34.562589,86.7632746 C32.6225033,86.9479184 30.6624817,86.9699498 28.7161005,87.0822048 C20.9106397,87.3864474 13.0841936,87.354974 5.26299381,87.0517805 C4.58097344,87.037093 3.90000233,87.0140125 3.21798196,86.9961776 C3.62194788,90.3732704 4.06053944,93.9087792 4.5295596,97.5827709 C4.67750556,97.5880164 4.82335299,97.5974584 4.97129895,97.6016549 C12.9708733,97.8691785 21.0806201,97.2260726 29.1358053,95.5349034 C30.1451955,95.3366212 31.1482901,95.0722449 32.1492861,94.8278017 C33.1513314,94.5781129 34.1481304,94.3557011 35.1533235,94.000052 C37.1595127,93.3705845 39.138421,92.6771212 41.0942456,91.9228094 C43.0637106,91.0384077 44.9943529,90.1256799 46.8609901,89.1006971 C48.7402186,87.989687 50.527112,86.6699036 52.1755027,85.2871735 L51.8754138,84.27478 C49.971003,84.6723936 48.0823312,85.115119 46.1768712,85.4770628 L40.3880922,86.2418657 Z" id="Fill-7" fill="#F18A15"></path>
                        <path d="M21.4808087,54.8171724 C22.4901988,54.6188901 23.4922441,54.3545138 24.4942895,54.1090215 C25.4942363,53.8593327 26.4920845,53.63797 27.4972776,53.2812718 C29.5034668,52.6528535 31.4823751,51.9583411 33.4381997,51.2050783 C35.4066154,50.3196275 37.3393562,49.4068997 39.2049442,48.3819169 C41.0852219,47.2719559 42.8731646,45.9511234 44.5205061,44.5683933 L44.2204171,43.5570489 C42.3149571,43.9546625 40.4262853,44.3973879 38.5218746,44.7593317 L32.7330955,45.5241347 L26.9065431,46.0444944 C24.9664574,46.2291382 23.0085343,46.2522187 21.0600546,46.3644737 C14.0635748,46.6361938 7.04820837,46.6267518 0.0370389525,46.4064382 C0.0150044482,47.8668027 0.000314778633,49.3680825 0.000314778633,50.9459476 C0.000314778633,52.5059777 0.0790094368,54.5234209 0.228004656,56.9395268 C7.28009529,56.979393 14.4014372,56.3037646 21.4808087,54.8171724" id="Fill-9" fill="#F18A15"></path>
                        <path d="M54.7344432,251.972461 C56.6136716,250.8625 58.400565,249.541667 60.0489557,248.158937 L59.7488668,247.146544 C57.8455053,247.545206 55.9557843,247.987932 54.0513735,248.349876 L48.2625945,249.113629 L42.436042,249.635038 C40.4959563,249.819682 38.5359347,249.842762 36.5895535,249.955018 C34.5445417,250.033701 32.4974313,250.088255 30.4492716,250.122876 C31.1585728,253.24923 31.8689233,256.285362 32.5771752,259.220778 C34.0566348,258.980532 35.5339958,258.717204 37.0092583,258.407716 C38.0186485,258.209434 39.0217431,257.944008 40.0227391,257.699565 C41.0247844,257.449877 42.0215834,257.228514 43.0267765,256.871816 C45.0329657,256.242348 47.0129233,255.548885 48.9676986,254.794573 C50.9371636,253.910171 52.8678059,252.997443 54.7344432,251.972461" id="Fill-11" fill="#F18A15"></path>
                        <path d="M45.4437518,167.678167 L39.6182486,168.199576 C37.6781629,168.383171 35.7181413,168.406251 33.7717601,168.518506 C27.5129116,168.7619 21.241472,168.781833 14.9689831,168.626565 C15.5387324,172.093881 16.1189744,175.568542 16.7065612,179.040055 C22.522621,178.860656 28.371208,178.193421 34.191465,176.971205 C35.1998058,176.772923 36.2039497,176.508546 37.2049457,176.263054 C38.2059418,176.013365 39.20379,175.792003 40.2089831,175.436353 C42.2151723,174.805837 44.1940806,174.113423 46.1488559,173.359111 C48.1183209,172.474709 50.0500125,171.560932 51.9166498,170.535949 C53.7958782,169.425988 55.5827716,168.105156 57.2301131,166.722426 L56.9310734,165.711081 C55.0266627,166.108695 53.1379909,166.55142 51.2325309,166.913364 L45.4437518,167.678167 Z" id="Fill-13" fill="#F18A15"></path>
                        <path d="M40.024313,216.98131 C41.0242598,216.731621 42.0221081,216.510258 43.0262519,216.15356 C45.0324411,215.524093 47.0123987,214.830629 48.967174,214.077367 C50.936639,213.191916 52.8683305,212.279188 54.7349678,211.254205 C56.6141962,210.144244 58.4021389,208.823412 60.0505296,207.440681 L59.7493914,206.428288 C57.8449807,206.826951 55.9563089,207.269676 54.0508489,207.63162 L48.2631191,208.396423 L42.4365666,208.916783 C40.4954317,209.101426 38.5375086,209.124507 36.5900781,209.236762 C31.7718665,209.423504 26.9431623,209.469665 22.1155073,209.417209 C22.7534587,212.82053 23.3966564,216.191328 24.0451004,219.517014 C28.3659617,219.19074 32.6962664,218.595894 37.009783,217.689461 C38.0202224,217.491178 39.0222677,217.226802 40.024313,216.98131" id="Fill-15" fill="#F18A15"></path>
                        <path d="M30.3770824,135.545533 C31.3780785,135.295844 32.3748775,135.074481 33.3800706,134.717783 C35.3862597,134.088316 37.3662173,133.394852 39.3209926,132.640541 C41.2904576,131.756139 43.2210999,130.843411 45.0887864,129.818428 C46.9680149,128.707418 48.7559575,127.387635 50.403299,126.004905 L50.1032101,124.992511 C48.1987993,125.391174 46.3101275,125.833899 44.4046675,126.195843 L38.6169377,126.959597 L32.7903853,127.481006 C30.8492504,127.665649 28.890278,127.68873 26.9438968,127.799936 C20.8655214,128.037035 14.7724563,128.065361 8.68044051,127.92478 C9.17464296,131.337543 9.68563361,134.802761 10.2102647,138.308895 C15.9172013,138.114809 21.6545665,137.45177 27.3636016,136.253684 C28.3729918,136.054352 29.3760864,135.789976 30.3770824,135.545533" id="Fill-17" fill="#F18A15"></path>
                    </g>
                </g>
                <g id="Group-7" transform="translate(183.000000, 216.000000)">
                    <g id="Group-3" transform="translate(0.000000, 0.509549)">
                        <mask id="mask-21" fill="white">
                            <use xlink:href="#path-20"></use>
                        </mask>
                        <g id="Clip-2"></g>
                        <path d="M50.2233917,59.6615532 C50.2233917,59.6615532 30.6528793,68.5798613 15.8434909,64.8466347 C1.03330909,61.113408 -1.61105455,52.5814613 0.769110744,36.0495147 C3.14927603,19.517568 28.5377058,0.853034688 54.719524,0.319488048 C80.9013421,-0.213258672 97.0333091,6.45247469 95.7107306,26.4504747 C94.3889455,46.4484747 69.5289124,57.1426052 50.2233917,59.6615532" id="Fill-1" fill="url(#linearGradient-22)" mask="url(#mask-21)"></path>
                    </g>
                    <g id="Group-6" transform="translate(43.636364, 32.506349)">
                        <mask id="mask-24" fill="white">
                            <use xlink:href="#path-23"></use>
                        </mask>
                        <g id="Clip-5"></g>
                        <path d="M3.33984793,12.0679131 C3.33984793,12.0679131 10.9968397,31.9379259 5.5708562,44.3206875 C0.144079339,56.7034491 -2.99853223,61.5981596 5.42725289,64.4786715 C13.8538314,67.3583835 20.7087074,70.2372956 25.8498645,60.1591035 C37.5309223,28.5342663 27.0550215,7.73154677 23.165038,1.58496149 C22.3700628,0.329887008 20.8562777,0.032316768 19.3266248,0.630656928 C13.9617322,2.72884709 2.01250909,7.91952797 3.33984793,12.0679131" id="Fill-4" fill="url(#linearGradient-25)" mask="url(#mask-24)"></path>
                    </g>
                </g>
                <g id="Group-9" transform="translate(295.000000, 136.000000)">
                    <g id="Group-3" transform="translate(0.000000, 0.509764)">
                        <mask id="mask-27" fill="white">
                            <use xlink:href="#path-26"></use>
                        </mask>
                        <g id="Clip-2"></g>
                        <path d="M50.25,80.9883283 C50.25,80.9883283 32.702381,78.1918169 23.5297619,72.5987941 C14.3571429,67.0057713 0,62.6112534 0,39.8396606 C0,17.0680678 19.5416667,0.288999478 37.8869048,0.288999478 C56.2321429,0.288999478 69.5164881,0.828326675 85.7576071,11.0523723 C101.997929,21.275619 106.880952,20.2640809 115.255952,25.8571037 C123.630952,31.4501264 139.982143,44.6336802 130.809524,57.8172339 C121.636905,71.0007876 119.642857,70.601286 114.458333,77.7923153 C109.27381,84.9833446 94.9166667,96.5688918 50.25,80.9883283" id="Fill-1" fill="url(#linearGradient-22)" mask="url(#mask-27)"></path>
                    </g>
                    <path d="M73.24775,69.9125452 C73.24775,69.9125452 82.8191786,69.1135419 89.200131,64.3195224 C95.5810833,59.5255028 104.621298,56.0778038 92.922619,45.0172017 C81.2239405,33.9573987 64.2083333,29.6963143 50.9144167,31.827256 C37.6212976,33.9573987 23.2641548,37.9524149 24.0617738,48.6055253 C24.8593929,59.2594347 39.2165357,68.0484706 54.9025119,69.9125452 C70.5892857,71.7766198 73.24775,69.9125452 73.24775,69.9125452" id="Fill-4" fill="#FFC7A1"></path>
                    <g id="Group-8" transform="translate(47.059524, 52.444976)">
                        <mask id="mask-29" fill="white">
                            <use xlink:href="#path-28"></use>
                        </mask>
                        <g id="Clip-7"></g>
                        <path d="M38.6845238,89.1113949 C38.6845238,89.1113949 15.5535714,84.0513073 8.9070119,65.9403005 C-4.6525119,31.8492286 0.398809524,3.61804654 7.8429881,1.22103678 C15.2879643,-1.17597299 26.7425714,0.688101604 31.5282857,6.28112439 C19.7011905,18.2965353 25.1473333,38.5081217 31.5282857,47.0302904 C37.9092381,55.5532581 42.672619,58.7197081 49.8511905,60.8650318 C57.0297619,63.0103555 65.2715595,70.2013848 61.8154762,78.7243526 C58.3593929,87.2473203 54.9025119,92.8403431 38.6845238,89.1113949" id="Fill-6" fill="url(#linearGradient-25)" mask="url(#mask-29)"></path>
                    </g>
                </g>
                <g id="Group-7" transform="translate(130.611080, 595.425764) rotate(-114.000000) translate(-130.611080, -595.425764) translate(25.111080, 499.425764)">
                    <g id="Group-3">
                        <mask id="mask-31" fill="white">
                            <use xlink:href="#path-30"></use>
                        </mask>
                        <g id="Clip-2"></g>
                        <path d="M69.7920541,14.7904289 C72.7943127,30.1179315 81.7335135,79.671818 72.9053287,85.1004425 C65.3015377,89.7797368 55.9938925,48.0922101 51.4824599,25.002868 C45.2896983,29.0711203 39.1194616,33.7584546 32.9170463,39.182255 C-50.3964339,116.199257 40.5674963,224.596474 127.073089,181.580736 C187.407867,151.580189 173.537304,110.069542 180.812874,64.5549641 C163.568389,70.7280949 137.786936,78.3677261 139.944508,67.9478544 C143.162363,52.4048792 188.749713,36.1817179 188.749713,36.1817179 L188.752931,36.191366 C193.320676,25.4515013 200.012205,14.5846043 210.002035,3.67911518 C186.469863,2.14507852 165.465315,0.641593949 146.153359,0.641593949 C117.982649,0.641593949 93.4078909,3.83669966 69.7920541,14.7904289" id="Fill-1" fill="url(#linearGradient-32)" mask="url(#mask-31)"></path>
                    </g>
                    <g id="Group-6" transform="translate(49.687105, 36.829367)">
                        <mask id="mask-34" fill="white">
                            <use xlink:href="#path-33"></use>
                        </mask>
                        <g id="Clip-5"></g>
                        <path d="M91.1229448,5.95674981 L86.8754988,8.64663494 C85.440984,9.523386 84.0801984,10.4968375 82.7306325,11.4912408 C77.3788505,15.5075343 71.8427453,19.3626602 66.872432,23.8914662 C56.4910327,32.4655758 47.2860958,42.3854338 38.5620019,52.6534135 C29.9773524,63.0551622 22.3463747,74.2530783 15.7796628,86.0295856 C9.25302119,97.8012578 3.61273337,110.182143 0.318959157,123.236708 C6.093883,111.142701 12.8336984,99.712704 20.0415342,88.6276052 C21.871943,85.8716414 23.659076,83.0979492 25.5824478,80.4112874 C27.5074224,77.727849 29.2817329,74.9444867 31.3413435,72.3609722 L37.2653287,64.4395908 L43.4970533,56.7615724 L45.0325452,54.821116 L46.6529859,52.953185 L49.8906618,49.217323 C52.0432354,46.7208388 54.1845893,44.2146846 56.4862243,41.8487461 L63.2260396,34.5962098 C64.335184,33.3729487 65.5773616,32.2850682 66.7393988,31.1101574 L70.2447439,27.6079882 C74.8399997,22.837431 79.8503832,18.5245894 84.6892661,13.9699966 C87.042191,11.6024464 89.6948413,9.61202811 92.1791965,7.392752 C94.6988136,5.21376776 97.2136222,3.02027845 99.693169,0.747817076 C96.8097141,2.42718215 93.9647267,4.18390761 91.1229448,5.95674981" id="Fill-4" fill="url(#linearGradient-35)" mask="url(#mask-34)"></path>
                    </g>
                </g>
            </g>
        </g>
    </g>
</svg>