<?xml version="1.0" encoding="UTF-8"?>
<svg width="33px" height="21px" viewBox="0 0 33 21" version="1.1" xmlns="http://www.w3.org/2000/svg" xmlns:xlink="http://www.w3.org/1999/xlink">
    <!-- Generator: Sketch 51.2 (57519) - http://www.bohemiancoding.com/sketch -->
    <title>arrow-right</title>
    <desc>Created with Sketch.</desc>
    <defs></defs>
    <g id="2.1---Sinlge-Programme" stroke="none" stroke-width="1" fill="none" fill-rule="evenodd">
        <path d="M22.953125,20.046875 C22.546873,19.640623 22.546873,19.234377 22.953125,18.828125 L29.7578125,11.3125 L0.8125,11.3125 C0.270830625,11.3125 0,11.0416694 0,10.5 C0,9.95833063 0.270830625,9.6875 0.8125,9.6875 L29.7578125,9.6875 L22.953125,2.171875 C22.546873,1.76562297 22.546873,1.35937703 22.953125,0.953125 C23.359377,0.546872969 23.765623,0.546872969 24.171875,0.953125 C29.5208601,6.84377945 32.2291663,9.82291633 32.296875,9.890625 C32.4322923,10.0260423 32.5,10.2291653 32.5,10.5 C32.5,10.7708347 32.4322923,10.9739577 32.296875,11.109375 L24.171875,20.046875 C24.0364577,20.1822923 23.8333347,20.25 23.5625,20.25 C23.2916653,20.25 23.0885423,20.1822923 22.953125,20.046875 Z" id="arrow-right" fill="#FFFFFF" transform="translate(16.250000, 10.449218) rotate(-360.000000) translate(-16.250000, -10.449218) "></path>
    </g>
</svg>