<?xml version="1.0" encoding="UTF-8"?>
<svg width="34px" height="57px" viewBox="0 0 34 57" version="1.1" xmlns="http://www.w3.org/2000/svg" xmlns:xlink="http://www.w3.org/1999/xlink">
    <!-- Generator: Sketch 52.5 (67469) - http://www.bohemiancoding.com/sketch -->
    <title>Group 5</title>
    <desc>Created with Sketch.</desc>
    <g id="2---Fast,-Healthy,-(Vegan)" stroke="none" stroke-width="1" fill="none" fill-rule="evenodd">
        <g id="Suncraft_MENU-Copy-2" transform="translate(-265.000000, -7266.000000)">
            <g id="Group-5" transform="translate(282.000000, 7294.500000) scale(-1, 1) translate(-282.000000, -7294.500000) translate(265.000000, 7266.000000)">
                <polygon id="Fill-1" fill="#AB397D" points="0 7.80504907 0 12.8817728 17.4225956 30.4991579 0 43.0415034 0 48.1182272 8.28870221 56.5 34 30.4991579 34 25.4224342 8.28870221 4.5"></polygon>
                <path d="M8.28870221,0.5 L0,8.88261489 L17.4225956,26.5 L0,44.1182272 L8.28870221,52.5 L34,26.5 L8.28870221,0.5 Z M3.53314883,44.1182272 L20.9549117,26.5 L3.53314883,8.88261489 L8.28870221,4.07282119 L30.4676839,26.5 L8.28870221,48.9280209 L3.53314883,44.1182272 Z" id="Fill-2" fill="#000000"></path>
                <polygon id="Fill-3" fill="#3CAAE0" points="25.577578 19.3263145 8.42242204 1.5 2 8.17368549 19.1551559 26 2 43.8263145 8.42242204 50.5 32 26"></polygon>
                <path d="M3.15343526,43.2536232 L8.96629213,49.3001901 L31.8465647,25.5 L8.96629213,1.69980993 L3.15343526,7.74637681 L20.220851,25.5 L3.15343526,43.2536232 Z M8.96629213,50.5 L2,43.2536232 L19.0674157,25.5 L2,7.74637681 L8.96629213,0.5 L33,25.5 L8.96629213,50.5 Z" id="Fill-4" fill="#FFFFFF"></path>
            </g>
        </g>
    </g>
</svg>