<?xml version="1.0" encoding="UTF-8"?>
<svg width="45px" height="41px" viewBox="0 0 45 41" version="1.1" xmlns="http://www.w3.org/2000/svg" xmlns:xlink="http://www.w3.org/1999/xlink">
    <!-- Generator: Sketch 52.5 (67469) - http://www.bohemiancoding.com/sketch -->
    <title>Group 9</title>
    <desc>Created with Sketch.</desc>
    <defs>
        <polygon id="path-1" points="1.09413428e-06 0.0751461769 44.7723103 0.0751461769 44.7723103 40.1086957 1.09413428e-06 40.1086957"></polygon>
    </defs>
    <g id="2---Fast,-Healthy,-(Vegan)" stroke="none" stroke-width="1" fill="none" fill-rule="evenodd">
        <g id="Suncraft_MENU-Copy-2" transform="translate(-402.000000, -3352.000000)">
            <g id="Group-26" transform="translate(181.000000, 3129.000000)">
                <g id="Group-25">
                    <g id="Group-22" transform="translate(53.000000, 223.000000)">
                        <g id="Group-23">
                            <g id="Group-9" transform="translate(168.000000, 0.000000)">
                                <mask id="mask-2" fill="white">
                                    <use xlink:href="#path-1"></use>
                                </mask>
                                <g id="Clip-8"></g>
                                <path d="M43.6762759,20.7326689 C43.6382586,20.8363982 43.6028276,20.9571853 43.572569,21.0982573 C43.5340345,21.2388683 43.4986034,21.3997641 43.4683448,21.5841719 C43.4344655,21.7683491 43.4199828,21.977191 43.3848103,22.2113889 C43.3522241,22.4455868 43.3240345,22.7072153 43.3012759,23.0006542 C43.2849828,22.6212352 43.1331724,22.8429856 43.148431,22.4992955 C43.130069,22.7046797 43.1047241,22.9179012 43.0542931,23.1322753 C42.9865345,23.4105006 42.9058448,23.6882648 42.8207586,23.9427476 C42.7281724,24.176715 42.6371379,24.389706 42.552569,24.5681205 C42.9412759,23.1368855 43.1523103,21.6438739 43.1523103,20.1061434 C43.1523103,16.4564826 41.9890345,13.0502401 39.9787759,10.1610309 C40.3261034,10.5694942 40.6563621,10.991788 40.9674828,11.427221 C41.0949828,11.4177701 40.950931,10.9954762 40.8213621,10.6981186 C40.7008448,10.3975339 40.6411034,10.1988345 41.0298103,10.6142131 C41.3512759,11.0408866 41.2033448,11.0620935 41.2157586,11.1736602 C41.5232586,11.6037914 41.7940345,12.0530549 42.0676552,12.5041625 C41.9758448,12.6996347 41.8788621,12.8934934 41.7823966,13.0834335 C42.0531724,14.3219623 42.5039483,15.2091943 42.9622241,16.241878 C43.3987759,17.2685684 43.8436034,18.4522359 43.7843793,20.1061434 C43.8291207,20.1955811 43.8720517,20.2612764 43.913431,20.3078394 C43.8306724,20.4032704 43.7481724,20.5369661 43.6762759,20.7326689 Z M13.6245517,37.7336846 C13.325069,37.5407479 13.2511034,37.4298728 13.2855,37.3602588 C13.8048103,37.5677176 14.3336897,37.7581186 14.8742069,37.9282348 C14.843431,37.9229331 14.8105862,37.9171704 14.7803276,37.9116381 C14.2961897,37.8212783 13.8842069,37.7378338 13.6245517,37.7336846 Z M7.72334483,5.87331915 C8.97506897,4.85054741 10.3902414,3.94717972 11.9329138,3.26118272 C11.0173966,3.72565986 10.2635172,4.23808302 9.64903448,4.70993647 C7.65894828,5.97497395 5.92437931,7.53690798 4.52808621,9.32612463 C4.53377586,9.31759576 4.53946552,9.30929741 4.54515517,9.30099906 C5.41231034,8.07376518 6.46955172,6.89678242 7.72334483,5.87331915 Z M22.8304138,16.1538233 L22.8304138,18.9176351 C22.0548103,18.5624196 19.3302414,17.200107 16.6501552,17.200107 C14.0805,17.200107 12.198,18.5425958 12.1757586,20.7932929 C12.1535172,23.0439901 14.3463621,24.4063027 16.8498103,24.4063027 C17.8017931,24.4063027 19.0423966,24.2285796 19.7732586,23.8138926 L19.7732586,20.6353937 L23.3171379,20.6353937 L23.3171379,25.1365575 C21.1245517,26.6173521 18.9979138,27.0910497 16.8053276,27.0910497 C12.330931,27.0910497 8.76481034,24.6430362 8.76481034,20.7932929 C8.76481034,16.9435497 11.9763621,14.5151295 16.583431,14.5151295 C20.1278276,14.5151295 22.8304138,16.1538233 22.8304138,16.1538233 Z M28.3527414,1.67619771 C28.5389483,1.74396758 28.7698966,1.83294434 29.0083448,1.92583977 C29.1265345,1.97355528 29.2473103,2.02196233 29.3655,2.06944734 C29.480069,2.12384764 29.5920517,2.1773259 29.6973103,2.22757702 C30.1155,2.43203917 30.4015345,2.61345034 30.2647241,2.65886076 C30.3562759,2.71879329 30.4504138,2.77503767 30.5463621,2.82897695 C29.6510172,2.47422245 28.7230862,2.17386825 27.7672241,1.93114149 C27.8520517,1.80274756 27.9076552,1.67089599 28.3527414,1.67619771 Z M35.4340345,17.4568949 L30.1848103,17.4568949 L30.1848103,19.3124983 L33.153,19.3124983 L33.153,21.9382348 L30.1848103,21.9382348 L30.1848103,26.9331505 L26.7733448,26.9331505 L26.7733448,14.6928525 L35.4340345,14.6928525 L35.4340345,17.4568949 Z M38.7006724,8.40039749 C38.8121379,8.5071235 38.9223103,8.62122582 39.0267931,8.74708415 C39.1253276,8.87709164 39.2194655,9.0179331 39.3053276,9.17283564 C39.3120517,9.20280191 39.2779138,9.18943235 39.230069,9.16084914 C38.9132586,8.76460289 38.5835172,8.37780753 38.2343793,8.00507328 C38.3929138,8.12655191 38.5501552,8.2540238 38.7006724,8.40039749 Z M44.6018793,19.1315482 C44.6613621,18.85655 44.7081724,18.5967656 44.7723103,18.4250358 L44.6468793,18.7671123 C44.5139483,18.3505811 44.3192069,18.169631 44.3003276,17.3123653 C44.2848103,16.444035 44.585069,17.7473371 44.6298103,17.1394829 C44.5742069,16.4474927 44.4785172,15.9023371 44.3391207,15.448694 C44.2167931,14.9913626 44.0463621,14.6269267 43.8816207,14.277474 C43.535069,13.5827176 43.1523103,12.9624159 42.5931724,11.9082948 C42.237569,10.9053469 41.7267931,10.0639863 41.1492931,9.32727717 C40.5811034,8.58296121 39.9079138,7.96381203 39.2153276,7.36679179 C37.7856724,6.19649382 36.2083448,5.17648819 34.1923966,3.88355903 C34.8591207,4.3936771 35.5294655,4.93237837 36.2067931,5.57434801 C36.8898103,6.20986338 37.6108448,6.91729779 38.3711897,7.76833977 C37.8671379,7.36195109 37.3439483,6.98045746 36.8067931,6.6217843 C36.8088621,6.62524194 36.810931,6.62823857 36.813,6.63169621 C35.6667931,5.62667373 34.3941207,4.73621458 33.0164483,3.98290873 C33.2673103,4.09424494 33.5065345,4.20604217 33.735931,4.30216473 C34.0747241,4.45453167 34.3695517,4.60689861 34.6123966,4.73460101 C34.0954138,4.15048932 33.048,3.41331915 32.330069,2.89213662 C31.6067069,2.38755079 31.2464483,2.01827418 32.2255862,2.12569172 C31.1864483,1.58768197 30.510931,1.39313175 29.9215345,1.25828355 C29.6290345,1.18475094 29.3437759,1.15616773 29.0396379,1.1059166 C28.887569,1.08263512 28.7285172,1.05820109 28.5567931,1.03169247 C28.3835172,1.01025506 28.1983448,0.985360007 27.9955862,0.954932721 C27.608431,0.818931972 27.0448966,0.720043291 26.5651552,0.612856259 C26.0833448,0.516733696 25.6780862,0.432828148 25.5997241,0.315498688 C25.2151552,0.303281672 24.9317069,0.327024175 24.6922241,0.325410607 C24.4517069,0.330020802 24.2530862,0.318495315 24.0291207,0.311810532 C23.8056724,0.300976574 23.5592069,0.275159483 23.2242931,0.228366004 C22.8891207,0.186182721 22.4644655,0.141002811 21.8836034,0.075077024 C21.4840345,0.0969754498 21.0901552,0.124867129 20.7428276,0.165897864 C20.3955,0.217532046 20.0947241,0.273084895 19.8782586,0.325871627 C19.6615345,0.375892241 19.5304138,0.435594265 19.5198103,0.47685551 C19.5092069,0.521343891 19.6180862,0.540937219 19.8857586,0.562144115 C21.3306724,0.436746814 22.788,0.435594265 24.2344655,0.561913606 C25.2327414,0.878633996 24.7074828,0.980749813 24.0373966,1.06073669 C23.6998966,1.1105268 23.322569,1.15271008 23.0662759,1.19881203 C23.0236034,1.20780191 22.9858448,1.21725281 22.9504138,1.2264732 C22.6170517,1.21264262 22.2821379,1.20388325 21.9448966,1.20388325 C19.1192069,1.20388325 16.4248966,1.70040124 13.9597241,2.59431803 C14.4423103,2.34605903 14.9362759,2.11047807 15.4455,1.8958735 C14.4911897,2.16165124 13.5624828,2.49450731 12.6547241,2.86816361 C12.8264483,2.63166061 13.2260172,2.26976031 13.3012759,2.05838287 C13.3786034,1.85299869 13.113,1.77739149 11.9455862,2.18815986 C11.0851552,2.67684052 10.3048966,3.23121645 9.54817241,3.7809822 C8.8067069,4.35218534 8.09291379,4.9282292 7.41558621,5.54000206 C6.73877586,6.1510834 6.07153448,6.77069359 5.42394828,7.42925993 C5.088,7.74920746 4.77843103,8.09381953 4.43937931,8.42690611 C4.12437931,8.77589786 3.77782759,9.11405566 3.45610345,9.48010513 C1.91368966,11.5463945 0.804206897,13.9330924 0.305586207,16.4703132 C-0.194586207,19.0038458 -0.0924310345,21.6809859 0.698431034,24.2407967 C0.727655172,23.7830043 0.839896552,24.0607686 0.919293103,24.2431018 C1.00541379,24.425896 1.03282759,24.5178694 0.964293103,23.7023259 C1.07575862,23.9551951 1.19498276,24.188932 1.30412069,24.4404181 C1.4742931,25.087459 1.68093103,25.7215913 1.92377586,26.340971 C1.27334483,25.5581599 1.3992931,26.1083866 1.63515517,26.8600789 C1.88394828,27.6230662 2.32256897,28.5481018 1.91886207,28.4568199 C2.07093103,28.744035 2.22403448,28.9856093 2.33317241,29.2135834 C2.44256897,29.441788 2.53955172,29.6423315 2.62360345,29.8281224 C2.78498276,30.2033922 2.88222414,30.5256449 3.00196552,30.84905 C3.05886207,31.0122509 3.11705172,31.1779874 3.18610345,31.3540969 C3.26084483,31.5265182 3.34981034,31.7067768 3.45791379,31.9047847 C3.56575862,32.1034841 3.69481034,32.3183192 3.87093103,32.5462933 C4.04601724,32.7742674 4.23894828,33.0356655 4.50506897,33.3016737 C5.27032759,33.8313851 5.06886207,33.4093218 4.63127586,32.7675826 C4.2092069,32.1108604 3.59136207,31.1987333 3.38989655,30.752697 C3.47808621,30.8559653 3.56834483,30.989661 3.66687931,31.1344211 C3.76696552,31.2784897 3.87481034,31.4340838 3.98291379,31.5899084 C3.70256897,31.0537427 3.5442931,30.4853057 3.48739655,30.0646254 C3.46489655,29.8145223 3.47963793,29.6142093 3.53317241,29.4825883 C4.45463793,30.9163589 5.5767931,32.2337221 6.87144828,33.4001014 C6.67412069,33.6204687 6.54687931,33.8456767 7.09489655,34.302547 C7.18024138,34.6418574 7.98196552,35.2167487 8.8167931,35.7358566 C9.66248276,36.2448222 10.5386897,36.6938551 10.7155862,36.9967449 C12.2106724,37.6467824 13.5079138,38.276535 14.6967931,38.7062052 C15.2877414,38.92542 15.8520517,39.0757123 16.3731724,39.1658416 C16.8997241,39.2340725 17.3807586,39.2520523 17.8196379,39.1340313 C18.1967069,39.2882423 18.5776552,39.457206 18.9710172,39.5897491 C19.362569,39.7317431 19.760069,39.8739676 20.1663621,39.989914 C20.4148966,40.024721 20.6536034,40.06045 20.8853276,40.0765856 C21.1170517,40.0908772 21.3402414,40.1000976 21.555931,40.1044773 C21.9878276,40.1217656 22.3897241,40.0825789 22.7722241,40.0507686 C23.535931,39.9719342 24.2176552,39.8306317 24.9063621,39.671119 C25.2042931,39.5201351 24.8114483,39.4770298 24.5546379,39.4099515 C24.2957586,39.3428731 24.1760172,39.2522828 24.9673966,39.0125527 C25.2611897,38.960688 25.6493793,38.8530399 26.0422241,38.7878057 C26.4342931,38.7186527 26.8211897,38.6405099 27.1196379,38.6478862 C27.3107586,38.7502326 26.5762759,38.9975695 26.4136034,39.0729462 C27.9529138,38.7158866 29.2636034,38.4574852 30.5181724,38.1900939 C31.7644655,37.9141737 32.9494655,37.6241925 34.1166207,37.1463458 C34.8239483,36.7291231 35.5664483,36.2314526 36.3112759,35.709809 C37.0392931,35.1694942 37.7722241,34.6031317 38.4011897,33.9991962 C39.6826552,32.8118405 40.6196379,31.5544099 40.9196379,30.6964526 C40.5544655,31.1772959 40.1577414,31.6369323 39.7506724,32.0871179 C40.5782586,31.0553563 40.3956724,30.9334166 40.2849828,30.8077888 C40.227569,30.7437071 40.1805,30.6747847 40.260931,30.4825395 C40.3002414,30.385956 40.3742069,30.2603281 40.4892931,30.0858323 C40.5981724,29.9076482 40.7505,29.6824402 40.9610172,29.392459 C41.2817069,28.9618668 41.4948103,28.6935534 41.6510172,28.540956 C41.7968793,28.3837483 41.8868793,28.3422566 41.9505,28.3574702 C42.0782586,28.387206 42.0989483,28.6465294 42.2652414,28.6400751 C42.5639483,28.1059841 42.8678276,27.3605156 43.1062759,26.6339488 C43.1678276,26.4527682 43.2286034,26.2734316 43.287569,26.0993967 C43.3431724,25.9246704 43.3967069,25.7552457 43.4476552,25.5941194 C43.5567931,25.2739413 43.6641207,24.9904144 43.7639483,24.769125 C43.6967069,25.1038251 43.6899828,25.2103207 43.7274828,25.1930324 C43.7691207,25.1766662 43.8448966,25.0344417 43.9235172,24.8680137 C44.0820517,24.5363102 44.2566207,24.1087146 44.1790345,24.424974 C44.2770517,24.1561996 44.325931,23.9104762 44.3755862,23.6903394 C44.420069,23.4692805 44.4611897,23.2726557 44.4730862,23.090092 C44.4994655,22.7251951 44.4906724,22.4273765 44.4640345,22.1410834 C44.4203276,21.8566344 44.3776552,21.5802532 44.3282586,21.2580006 C44.2873966,20.9889957 44.2346379,20.6838008 44.1989483,20.3177513 C44.2687759,20.2377644 44.3326552,20.1001501 44.3903276,19.9298034 C44.4668793,19.6965275 44.5351552,19.4067768 44.6018793,19.1315482 Z" id="Fill-7" fill="#FFFFFF" mask="url(#mask-2)"></path>
                            </g>
                        </g>
                    </g>
                </g>
            </g>
        </g>
    </g>
</svg>