<?xml version="1.0" encoding="UTF-8"?>
<svg width="66px" height="44px" viewBox="0 0 66 44" version="1.1" xmlns="http://www.w3.org/2000/svg" xmlns:xlink="http://www.w3.org/1999/xlink">
    <!-- Generator: Sketch 52.5 (67469) - http://www.bohemiancoding.com/sketch -->
    <title>Group 33</title>
    <desc>Created with Sketch.</desc>
    <defs>
        <polygon id="path-1" points="0 0.245145238 31.5676699 0.245145238 31.5676699 37.9999548 0 37.9999548"></polygon>
        <polygon id="path-3" points="0.152729063 0.149285714 31.7202286 0.149285714 31.7202286 37.9040952 0.152729063 37.9040952"></polygon>
    </defs>
    <g id="2---Fast,-Healthy,-(Vegan)" stroke="none" stroke-width="1" fill="none" fill-rule="evenodd">
        <g id="Suncraft_MENU-Copy-2" transform="translate(-258.000000, -5475.000000)">
            <g id="Group-28-Copy" transform="translate(180.000000, 5253.000000)">
                <g id="Group-22" transform="translate(53.000000, 222.000000)">
                    <g id="Group-33" transform="translate(25.000000, 0.000000)">
                        <path d="M14.1547586,24.5 C14.0177517,23.9643132 13.8598069,23.4717537 13.8452414,23.5012619 C13.9176138,23.7611608 14.0223034,24.1600886 14.0873931,24.4364439 L14.0223034,24.1600886 C13.9644966,23.8706815 14.108331,24.3921817 14.1547586,24.5" id="Fill-1" fill="#FFFFFF"></path>
                        <path d="M8.10374891,29.6688995 C8.44841616,30.0267943 8.76227841,30.3258373 9,30.5 C8.10723627,29.6172249 7.75385062,29.3009569 7,28.5 C7.37605347,28.9014354 7.74978204,29.3177033 8.10374891,29.6688995" id="Fill-3" fill="#FFFFFF"></path>
                        <path d="M7,33.5 C6.48411215,32.9674916 6.00311526,32.4600082 6,32.5024925 C6.24174455,32.7713656 6.61183801,33.181077 6.87102804,33.4569337 L6.61682243,33.1770031 C6.36386293,32.8796132 6.87227414,33.3993181 7,33.5" id="Fill-5" fill="#FFFFFF"></path>
                        <path d="M14,15.5 C13.8685845,14.7990127 13.7361883,14.3255759 13.5995423,13.8812882 C13.4445897,13.4459332 13.3040209,13.0171603 13,12.5 C13.30729,13.0148096 13.5116051,13.632111 13.6626348,14.1723084 C13.8185682,14.7139163 13.9172932,15.1925247 14,15.5" id="Fill-7" fill="#FFFFFF"></path>
                        <g id="Group-11" transform="translate(0.000000, 5.500000)">
                            <mask id="mask-2" fill="white">
                                <use xlink:href="#path-1"></use>
                            </mask>
                            <g id="Clip-10"></g>
                            <path d="M6.94624,0.651383333 C6.96864,0.625597619 6.98555429,0.579454762 7.01252571,0.571764286 L7.11218286,0.625597619 L7.31058286,0.731907143 L7.67675429,0.930502381 C7.92041143,1.06259762 8.16406857,1.19424048 8.40498286,1.32452619 L8.45069714,1.34895476 L7.01526857,0.609311905 C6.60246857,1.21776429 6.22532571,1.86693095 5.89618286,2.55138333 C5.74898286,2.82824048 5.60818286,3.10871667 5.48201143,3.39643095 C5.78966857,2.51474048 6.28932571,1.58600238 6.94624,0.651383333 M8.34784,6.04105 C8.43012571,6.03607381 8.50646857,6.03200238 8.58464,6.02747857 C8.39081143,6.03743095 8.19652571,6.04693095 7.98624,6.07362143 C7.91858286,5.51402619 7.90349714,4.93362143 7.95835429,4.34009762 C7.97572571,4.1433119 8.00361143,3.94562143 8.03424,3.74702619 C8.03424,3.75109762 8.03332571,3.75833571 8.03378286,3.76150238 C7.95058286,4.29847857 7.90989714,4.94085952 7.94966857,5.55202619 C7.95881143,5.70674048 7.97115429,5.85150238 7.98669714,5.99535952 C7.96566857,6.10212143 8.07812571,6.0482881 8.13892571,6.05462143 C8.20978286,6.05009762 8.27926857,6.04557381 8.34784,6.04105 M10.0845257,6.12926429 C9.93458286,6.09624048 9.77641143,6.07226429 9.61366857,6.0528119 C9.76178286,6.06955 9.92041143,6.09352619 10.0845257,6.12926429 M11.1684114,6.53097857 C11.4783543,6.72233571 11.73024,6.90374048 11.8426971,7.01638333 C11.9642971,7.11907381 11.9839543,7.1168119 11.8312686,6.93721667 C12.4548114,7.50857381 12.8954971,8.3138119 13.2141257,9.17605 C13.5364114,10.0419071 13.7535543,10.9738119 13.9642971,11.9134071 C14.37024,13.7948595 14.7994971,15.7174786 15.4106971,17.4202405 C15.43904,17.5808357 15.5578971,17.9422881 15.6836114,18.31505 C15.82624,18.681931 15.9812114,19.0592167 16.0497829,19.2659548 C15.9633829,19.1008357 16.0328686,19.306669 16.1274971,19.5762881 C16.1517257,19.6387167 16.1777829,19.7038595 16.2042971,19.7680976 C15.0344686,17.1162405 14.4927543,14.6498595 14.0415543,12.5856452 C13.3732114,9.53026429 12.7661257,6.81371667 10.2152686,6.16183571 C10.5508114,6.24462143 10.89184,6.36540714 11.1684114,6.53097857 M15.7764114,31.6263595 C16.8959543,32.331169 18.0753829,33.0029548 19.3096686,33.59105 C21.1231543,34.4668595 23.06144,35.126431 24.9713829,35.5091452 C26.10784,35.6891929 26.8781257,35.7923357 27.9592686,35.8859786 C26.4804114,35.7262881 24.0808686,35.2232405 21.9213257,34.4143833 C21.0792686,34.1302881 21.5364114,34.35105 22.2015543,34.5908119 C22.5352686,34.706169 22.91424,34.8445976 23.2026971,34.9346214 C23.4925257,35.0201214 23.6863543,35.0793833 23.6378971,35.0739548 C23.7594971,35.1273357 23.2237257,34.9961452 22.8159543,34.8645024 C21.8682971,34.5559786 20.9453257,34.1320976 20.9224686,34.0741929 C20.7249829,34.0212643 20.5348114,33.9475262 20.3405257,33.8832881 C18.4328686,33.0558833 16.5023543,31.9267405 14.4685257,30.4438357 C14.7780114,30.6338357 14.9988114,30.7736214 15.2543543,30.95005 C15.5149257,31.1178833 15.8125257,31.3182881 16.2705829,31.6358595 C17.0961829,32.0244548 16.6916114,31.8172643 16.0228114,31.4055976 C15.3476114,31.0029786 14.4186971,30.3728119 14.11104,30.0683595 C14.2033829,30.176931 13.2383543,29.4626214 12.7437257,29.0378357 L13.1647543,29.4291452 L13.8532114,29.9177167 C15.2520686,31.0088595 13.6813257,29.9285738 13.5999543,29.8878595 C12.6490971,29.1631452 12.1937829,28.7198119 11.7165257,28.2479786 C11.4746971,28.0150024 11.2301257,27.771169 10.9284114,27.4640024 C10.6189257,27.1640738 10.25504,26.7990024 9.77915429,26.3203833 C9.69778286,26.2896214 10.0045257,26.5976929 9.84681143,26.4836929 C9.30601143,25.9652643 9.38189714,26.0828833 8.57184,25.1849071 C7.79012571,24.220431 7.07195429,23.5201452 6.25321143,22.3186214 C6.11286857,22.0458357 6.34281143,22.3701929 6.61572571,22.7158119 C6.89001143,23.0618833 7.18669714,23.4436929 7.12909714,23.325169 L6.74555429,22.7687405 C6.28201143,22.1715976 5.76132571,21.282669 5.39286857,20.7999786 L5.40566857,20.762431 C5.11401143,20.3236214 4.74555429,19.7278357 4.44018286,19.1623595 C4.12475429,18.6023119 3.87012571,18.0743833 3.71835429,17.8124548 C3.38006857,17.036169 3.07286857,16.2277643 2.82235429,15.3913119 C2.58464,14.5525976 2.40589714,13.6853833 2.34784,12.8073119 C2.30075429,11.9351214 2.38075429,11.0366929 2.76429714,10.2703595 C3.13549714,9.50085952 3.82304,8.91774048 4.63218286,8.61147857 C4.84749714,8.54950238 5.06235429,8.48888333 5.28544,8.45676429 C5.34715429,8.4422881 5.40612571,8.42826429 5.46235429,8.41469286 C5.49161143,8.40790714 5.51949714,8.40157381 5.51949714,8.40157381 L5.59904,8.39524048 C5.71104,8.38574048 5.81389714,8.37669286 5.90852571,8.36855 C6.09824,8.35000238 6.25321143,8.33462143 6.38715429,8.32195476 C6.65092571,8.29345476 6.81412571,8.26993095 6.94121143,8.24776429 C7.19629714,8.20433571 7.30784,8.1667881 7.79012571,8.11024048 C8.01549714,8.10074048 7.94784,8.12924048 8.06395429,8.13150238 C9.11126857,7.97362143 7.70921143,8.14190714 8.11652571,8.06771667 C8.65001143,7.98493095 9.26852571,7.93471667 9.77549714,8.09757381 C10.2888686,8.24866905 10.6193829,8.63047857 10.7711543,8.91683571 C10.8580114,8.99012143 10.9544686,9.06205 11.0312686,9.15116905 C10.8511543,8.74221667 10.6175543,8.41016905 10.4113829,8.21609762 C10.8017829,8.50516905 11.0948114,8.95890714 11.3480686,9.59133571 C11.35264,9.60535952 11.3567543,9.61938333 11.3617829,9.63385952 C11.4660114,9.95369286 11.5656686,10.4010976 11.3823543,9.9147881 C11.7169829,11.0240262 11.7978971,11.5496929 11.87104,11.9269786 C11.9400686,12.3056214 11.9615543,12.5476452 12.0356114,13.1370976 C12.3560686,14.5050976 12.3487543,14.1051929 12.4808686,14.4874548 C12.85984,15.9296452 13.0737829,17.0945262 13.5185829,18.3173119 C13.2936686,17.8739786 13.4426971,18.396931 13.72064,19.2112167 C13.8820114,19.612931 14.0708114,20.0838595 14.2559543,20.5461929 C14.4698971,20.9967643 14.6788114,21.436931 14.8433829,21.7848119 C15.2996114,22.669669 15.4207543,22.7958833 15.5295543,22.9429071 C15.6424686,23.0881214 15.7480686,23.2527881 16.3140114,24.1367405 C16.8122971,25.0609548 15.1103543,22.3747167 15.7773257,23.5848357 L16.3217829,24.3900738 C16.6847543,24.8935738 17.0568686,25.2355738 17.5172114,25.8123595 C17.7640686,26.1756214 18.2015543,26.6696214 18.19424,26.6972167 C17.62144,26.0521214 17.74944,26.2837405 18.3130971,26.99805 C18.6024686,27.3074786 18.67424,27.3843833 18.82144,27.5255262 C18.3080686,26.7958357 18.5997257,27.1613595 19.15424,27.7955976 C19.7380114,28.4031452 20.5626971,29.3070024 21.0756114,29.6725262 C22.4479543,30.8668119 22.8365257,31.1405024 23.1615543,31.485669 C23.3293257,31.6507881 23.4948114,31.8168119 23.7969829,32.0778357 C24.1055543,32.3293595 24.5704686,32.6500976 25.3133257,33.1526929 C24.9009829,32.7826452 25.3892114,33.1192167 26.1201829,33.5991929 C26.8730971,34.050669 27.8522971,34.66455 28.3725257,34.9441214 C28.6856686,35.0965738 28.9192686,35.2417881 29.0906971,35.3752405 C29.22464,35.4829071 29.32064,35.5792643 29.3704686,35.6828595 C29.2548114,35.7317167 29.1359543,35.7529786 29.0202971,35.7670024 C29.00064,35.7719786 28.9773257,35.7778595 28.9517257,35.7850976 C28.9060114,35.7936929 28.8561829,35.8027405 28.8036114,35.8126929 C28.6970971,35.8312405 28.5754971,35.8452643 28.4589257,35.8574786 C28.2248686,35.8814548 28.0058971,35.8891452 27.9487543,35.9022643 C28.0712686,35.9380024 28.2801829,35.9760024 28.5695543,35.9877643 C28.5736686,35.9882167 28.57824,35.9882167 28.5823543,35.9882167 C28.3999543,36.0045024 28.1924114,36.0153595 27.9492114,36.0162643 C23.6452114,35.6977881 19.4724114,34.0208119 15.7764114,31.6263595 M3.59264,18.1838595 C3.60178286,18.1978833 3.60955429,18.2114548 3.61595429,18.2186929 C3.91492571,18.8610738 4.36566857,19.6536452 4.70075429,20.2557643 C4.28795429,19.5590976 3.91492571,18.8665024 3.59264,18.1838595 M2.10921143,13.2320976 C2.09824,13.00455 2.09184,12.7774548 2.10144,12.5508119 C2.15766857,13.67905 2.41686857,15.0841452 2.83561143,16.3603119 C2.44521143,15.2610262 2.20064,14.2101452 2.10921143,13.2320976 M5.31424,21.2428595 C5.84086857,22.0173357 6.55035429,23.0180024 6.28612571,22.517669 C7.05458286,23.581669 8.00269714,24.759669 9.05778286,25.8897167 C10.1114971,27.0215738 11.2717257,28.1027643 12.40544,29.0161214 C12.5722971,29.2233119 13.33664,29.8109548 13.6049829,30.0353357 C13.4564114,29.9457643 13.6525257,30.1158595 13.8632686,30.2954548 C10.3592686,27.6748119 7.39606857,24.4506929 5.31424,21.2428595 M31.5263543,35.4064548 C31.4765257,35.1725738 31.3969829,34.9775976 31.3032686,34.8075024 C31.11584,34.4655024 30.8964114,34.1963357 30.5649829,33.8959548 C30.4255543,33.7882881 30.1535543,33.5937643 29.8842971,33.4480976 C29.6205257,33.2920262 29.3608686,33.1852643 29.2927543,33.157669 C29.4148114,33.2653357 29.6424686,33.42005 29.9290971,33.6399071 C29.7256686,33.5127881 29.5002971,33.3852167 29.2415543,33.2603595 C22.9220114,29.6082881 19.3946971,25.6553833 17.2945829,21.9390738 C18.1800686,23.4663119 19.2433829,24.9546452 20.47264,26.3181214 C22.1439543,28.1860024 24.1005257,29.8150262 26.1087543,31.174431 C27.3050971,31.962931 28.15584,32.4347643 29.3082971,33.1472643 C27.7549257,32.1334786 25.1908114,30.4614786 23.0682971,28.5198595 C22.2170971,27.8105262 22.6705829,28.2479786 23.3151543,28.8487405 C23.9711543,29.4341214 24.8703543,30.1203833 24.76064,30.0642881 C24.8740114,30.1868833 24.33824,29.7553119 23.9130971,29.4318595 C23.4193829,29.0550262 22.9855543,28.6012881 22.6376686,28.2751214 C22.2952686,27.9426214 22.0671543,27.706931 22.0648686,27.6698357 L21.4984686,27.1627167 C21.0481829,26.6990262 20.5873829,26.2294548 20.1727543,25.7010738 C19.9588114,25.4427643 19.7425829,25.1817405 19.5240686,24.91755 C19.32384,24.6393357 19.12224,24.3579548 18.91744,24.0729548 C18.4900114,23.5156214 18.1407543,22.8863595 17.7434971,22.2656929 C17.3951543,21.6165262 17.0079543,20.9637405 16.69664,20.2485262 C16.9060114,20.6448119 17.0568686,20.9307167 17.2516114,21.2623119 C17.3434971,21.4319548 17.4417829,21.61155 17.5597257,21.8286929 C17.66944,22.04855 17.8097829,22.2950976 17.9935543,22.5873357 C18.6705829,23.4871214 18.3597257,23.0198119 17.8212114,22.2095976 C17.5716114,21.7925024 17.2817829,21.2781452 17.0239543,20.809931 C16.7949257,20.3267881 16.5978971,19.8893357 16.5119543,19.6373595 C16.5274971,19.7237643 16.3844114,19.4283595 16.2175543,19.0094548 C16.0410971,18.5946214 15.83264,18.0603595 15.7092114,17.6753833 C15.7773257,17.9024786 15.8372114,18.1331929 15.91264,18.3580262 L16.3336686,19.3148119 C17.2136686,21.3270024 16.1489829,19.2193595 16.1119543,19.1135024 C15.8202971,18.4317643 15.6433829,17.8929786 15.5007543,17.4288357 C15.34624,16.9687643 15.2648686,16.5702167 15.1592686,16.1675976 C14.9617829,15.356931 14.7757257,14.49605 14.4026971,12.8493833 C14.3460114,12.7620738 14.4639543,13.2918119 14.3812114,13.0647167 C14.1567543,12.1563357 14.1773257,12.3309548 13.8353829,10.851669 C13.6685257,10.08805 13.4632686,9.4063119 13.1501257,8.72457381 C12.83104,8.05369286 12.4433829,7.33938333 11.7128686,6.71464524 C11.5615543,6.58300238 11.5935543,6.5897881 11.7256686,6.67393095 C11.8559543,6.75807381 12.05984,6.95305 12.2632686,7.16295476 C12.6577829,7.59905 12.9498971,8.16452619 12.8954971,8.0003119 C12.7505829,7.74109762 12.6074971,7.47916905 12.4159543,7.24121667 C12.2701257,7.03402619 12.0520686,6.85126429 11.8500114,6.64543095 C11.6141257,6.47488333 11.3828114,6.27764524 11.1103543,6.15821667 C10.5882971,5.87140714 10.0241829,5.77550238 9.61869714,5.74474048 L9.58898286,5.70900238 C9.23515429,5.69950238 8.81961143,5.66783571 8.39812571,5.72166905 L8.31858286,5.72845476 L8.30852571,5.73026429 L8.28978286,5.73297857 C8.27149714,5.74066905 8.27012571,5.72709762 8.26966857,5.71262143 L8.26601143,5.69271667 L8.25549714,5.56197857 C8.25092571,5.46335952 8.24544,5.36474048 8.23995429,5.26747857 C8.21069714,4.48847857 8.32041143,3.77462143 8.36475429,3.40683571 C8.47035429,2.89700238 8.61298286,2.38671667 8.78578286,1.87959762 L8.89138286,1.57876429 L8.95264,1.40640714 L8.98281143,1.32045476 C8.98921143,1.29285952 8.93709714,1.28833571 8.91744,1.27159762 L8.36155429,0.983430952 C8.11515429,0.856311905 7.86738286,0.728288095 7.61869714,0.600264286 L7.09206857,0.330192857 L6.92566857,0.245145238 C6.88544,0.276811905 6.85526857,0.342859524 6.81961143,0.390359524 L6.61298286,0.701145238 C6.44109714,0.966240476 6.30349714,1.19062143 6.15675429,1.4453119 C5.87104,1.94247857 5.61184,2.45909762 5.39012571,2.99426429 C5.16841143,3.52943095 4.98281143,4.08088333 4.84109714,4.64590714 C4.76978286,4.92774048 4.71035429,5.21274048 4.66098286,5.49909762 L4.59606857,5.93021667 L4.57046857,6.14690714 L4.56315429,6.2238119 C4.58738286,6.24914524 4.16681143,6.3332881 3.92315429,6.44774048 C3.64246857,6.54545476 3.37732571,6.67935952 3.11172571,6.81009762 C2.59195429,7.09555 2.11058286,7.44885952 1.69549714,7.8673119 L1.36772571,8.18805 L1.07012571,8.53864524 C0.681097143,9.10819286 0.494125714,9.5488119 0.384411429,9.8718119 C0.26144,10.1920976 0.237668571,10.4056214 0.195611429,10.5657643 C0.15264,10.8932881 0.125668571,11.0398595 0.0799542857,11.6514786 C0.03744,11.9391929 0.0287542857,11.8260976 0.00315428571,11.9799071 C-0.0160457143,13.3533357 0.0516114286,11.5248119 0.0580114286,12.0613357 C-0.0334171429,13.4610024 0.39584,15.1881929 0.597897143,16.0418357 L0.827382857,16.4308833 C0.675611429,15.8726452 0.588297143,15.3650738 0.549897143,15.0194548 C0.698011429,15.6767643 0.900525714,16.354431 1.14966857,17.0461214 C1.26944,17.4496452 1.46326857,18.0594548 1.20315429,17.4347167 C1.71515429,18.8067881 2.02281143,19.3998595 2.21846857,19.8427405 C2.43286857,20.2774786 2.53344,20.5679071 2.86898286,21.2356214 C3.79926857,22.7411452 3.62555429,22.2665976 3.92498286,22.6737405 C5.00612571,24.1982643 5.84361143,25.4192405 6.93801143,26.6243833 C6.48452571,26.2032167 6.90235429,26.7406452 7.63195429,27.5318595 C8.36521143,28.3194548 9.42166857,29.3454548 10.1544686,29.9706452 C11.08064,30.8003119 11.2845257,30.8844548 11.4719543,31.0138357 C11.6639543,31.1377881 11.8724114,31.269431 12.9160686,32.0656214 C13.4321829,32.466431 12.8671543,32.1117643 12.3711543,31.7489548 C11.8701257,31.3938357 11.4088686,31.0690262 12.0740114,31.6218357 C12.4031543,31.8575262 12.7217829,32.1063357 13.06144,32.3270976 C13.3805257,32.5166452 13.6945829,32.7030262 14.0104686,32.8912167 C14.3336686,33.0680976 14.6701257,33.2562881 15.06784,33.4928833 C15.5364114,33.7787881 16.2468114,34.1976929 16.2536686,34.22755 C15.3201829,33.6874071 15.5642971,33.9172167 16.5407543,34.5025976 C17.0157257,34.7364786 17.1345829,34.7948357 17.3672686,34.8975262 C16.4296686,34.2949548 16.9320686,34.5953357 17.8728686,35.0725976 C18.8058971,35.5684071 20.2207543,36.1610262 20.9690971,36.3894786 C22.0516114,36.7464071 22.7418971,36.9454548 23.2305829,37.081169 C23.7160686,37.2300024 23.9985829,37.320931 24.2820114,37.4028119 C24.84704,37.5602405 25.3928686,37.8167405 27.6497829,37.9999548 C27.3069257,37.9334548 27.3229257,37.9149071 27.5597257,37.9257643 C27.7937829,37.95155 28.27104,37.9470262 28.8177829,37.8940976 C29.3658971,37.8334786 30.0168686,37.7131452 30.5530971,37.4114071 C31.1021257,37.1255024 31.4408686,36.6039071 31.5085257,36.2315976 C31.5940114,35.9180976 31.5748114,35.6389786 31.5263543,35.4064548" id="Fill-9" fill="#FFFFFF" mask="url(#mask-2)"></path>
                        </g>
                        <path d="M31.154531,21.5 C31.0175241,20.9643132 30.8595793,20.4717537 30.845469,20.5012619 C30.9173862,20.7611608 31.0220759,21.1600886 31.0876207,21.4364439 L31.0220759,21.1600886 C30.964269,20.8706815 31.1081034,21.3921817 31.154531,21.5" id="Fill-12" fill="#FFFFFF"></path>
                        <path d="M25.1043301,26.6688995 C25.4484162,27.0267943 25.7622784,27.3258373 26,27.5 C25.1072363,26.6172249 24.7538506,26.3009569 24,25.5 C24.3760535,25.9014354 24.749782,26.3177033 25.1043301,26.6688995" id="Fill-14" fill="#FFFFFF"></path>
                        <path d="M25,30.5 C24.4837905,29.9674916 24.0031172,29.4600082 24,29.5024925 C24.2412718,29.7713656 24.611596,30.181077 24.8709476,30.4569337 L24.6165835,30.1770031 C24.3634663,29.8796132 24.8721945,30.3993181 25,30.5" id="Fill-16" fill="#FFFFFF"></path>
                        <path d="M31,12.5 C30.8685845,11.7990127 30.7361883,11.3260461 30.5995423,10.8812882 C30.4445897,10.4459332 30.3040209,10.0171603 30,9.5 C30.3076169,10.0148096 30.5116051,10.632111 30.6626348,11.1723084 C30.8185682,11.7139163 30.9172932,12.1925247 31,12.5" id="Fill-18" fill="#FFFFFF"></path>
                        <path d="M24.0413369,3.90887632 C24.0640437,3.88292315 24.0811896,3.83648062 24.1085305,3.8287402 L24.210016,3.88292315 L24.41067,3.99037839 L24.7818568,4.18980805 C25.0293147,4.32276115 25.2763091,4.45525893 25.5200597,4.58639076 L25.5664002,4.61097798 L24.1113109,3.86653167 C23.6928569,4.47893551 23.3105484,5.13231805 22.9768974,5.82121546 C22.8276812,6.09987059 22.6849527,6.38216828 22.5575166,6.67175106 C22.8689242,5.78433464 23.375425,4.84956505 24.0413369,3.90887632 M25.4621342,9.33354502 C25.545547,9.32853651 25.6229355,9.32443864 25.7021776,9.31988545 C25.5056942,9.32990247 25.3087474,9.33991948 25.0960449,9.36632797 C25.0269977,8.80309856 25.0117053,8.21892449 25.0673138,7.62154617 C25.0849232,7.42393779 25.1131908,7.22450814 25.1442389,7.02462316 C25.1442389,7.02872103 25.1433121,7.03600613 25.1437755,7.03919337 C25.059436,7.57965683 25.018193,8.22620959 25.0585091,8.84134535 C25.0682406,8.99706439 25.0807525,9.14276642 25.0960449,9.28755781 C25.0747283,9.39501306 25.1887257,9.34083012 25.2503585,9.34720458 C25.3226496,9.34265139 25.393087,9.33809821 25.4621342,9.33354502 M27.2226069,9.42233219 C27.0710737,9.38909392 26.9102724,9.36496202 26.7453005,9.34538331 C26.8954435,9.3622301 27.0562447,9.386362 27.2226069,9.42233219 M28.3213383,9.82665532 C28.6359897,10.0192552 28.8908621,10.2018381 29.0053229,10.3152124 C29.1285884,10.4190251 29.1480514,10.4162932 28.9937378,10.2355316 C29.6253578,10.8105993 30.0725428,11.6210669 30.3955356,12.4889046 C30.7217721,13.3603849 30.9423526,14.2983417 31.1555185,15.2440389 C31.5670214,17.13771 32.002158,19.0728151 32.6217295,20.7866352 C32.6504605,20.9482734 32.7709456,21.3120731 32.8983818,21.6872559 C33.0429639,22.0565194 33.2000579,22.4362554 33.2695686,22.6443361 C33.1819852,22.4781447 33.2524226,22.6853148 33.3488107,22.9566848 C33.3729077,23.0195188 33.3993217,23.0850847 33.4261992,23.14974 C32.2403478,20.4806609 31.6916772,17.9982626 31.2338338,15.9206427 C30.5563368,12.8454193 29.940936,10.1112296 27.3551405,9.45511515 C27.6952792,9.5384385 28.0409787,9.66000863 28.3213383,9.82665532 M32.9924528,35.0854681 C34.1273298,35.7943996 35.3229127,36.4705481 36.5741041,37.0624626 C38.4124286,37.9439598 40.3772625,38.6078147 42.3133654,38.9930145 C43.4653883,39.1742313 44.2462244,39.2784994 45.3421754,39.372295 C43.8430627,39.2115675 41.4111173,38.7057083 39.2215324,37.8915982 C38.3679418,37.6052026 38.8318094,37.8273982 39.5055992,38.0687172 C39.8438843,38.1848235 40.2280464,38.3241511 40.5209178,38.4147595 C40.8147161,38.5008148 41.0107361,38.5604615 40.9616152,38.5549977 C41.0853442,38.6087253 40.541771,38.4766829 40.1284145,38.3441851 C39.1677775,38.0336576 38.2321644,37.6070239 38.2089942,37.5487431 C38.0088035,37.4954708 37.8164908,37.4212538 37.6190806,37.3570538 C35.6852948,36.5238204 33.7288021,35.3873445 31.6671168,33.8948094 C31.980378,34.0860433 32.2042023,34.2267368 32.4632452,34.4043112 C32.7273856,34.5732344 33.0295252,34.7749407 33.4933928,35.0945745 C34.3307642,35.4856934 33.9201881,35.2776127 33.2422277,34.8628172 C32.5577797,34.4580388 31.6161423,33.8233243 31.3042713,33.5168947 C31.3978789,33.6261712 30.4196326,32.9072228 29.9182292,32.4796784 L30.3450245,32.8735292 L31.0429113,33.3652736 C32.4609282,34.4635026 30.8686713,33.3762012 30.7866487,33.3352225 C29.8223046,32.6058017 29.3612173,32.1595893 28.8769599,31.6846917 C28.6318191,31.4502025 28.3838978,31.2047856 28.0780511,30.8956241 C27.7643264,30.5937478 27.39592,30.2267608 26.9130528,29.7445781 C26.8305669,29.7140717 27.1415111,30.0236886 26.9816367,29.9089482 C26.4334295,29.3871528 26.510818,29.5055357 25.6892023,28.6017278 C24.8972445,27.6314434 24.168773,26.9261545 23.3388161,25.7168276 C23.196551,25.4422704 23.4301067,25.768734 23.706759,26.1165976 C23.9843382,26.4649165 24.2850875,26.8492056 24.2266986,26.7299121 L23.8379024,26.1698699 C23.3684739,25.568849 22.8406565,24.6741475 22.4666893,24.1883223 L22.4796646,24.1505308 C22.1840128,23.7088715 21.8105089,23.1092166 21.5014183,22.5400681 C21.181206,21.9763833 20.9230899,21.4450262 20.7692397,21.1813966 C20.4267839,20.4000695 20.1153763,19.5864147 19.8609674,18.7445302 C19.6204606,17.900369 19.4388061,17.0275228 19.3799538,16.143749 C19.3322232,15.2658942 19.4133189,14.361631 19.802115,13.5903209 C20.1783993,12.8158235 20.8758226,12.2289175 21.6955847,11.9206667 C21.9138481,11.8587433 22.1321115,11.7972753 22.3582527,11.7649476 C22.4203489,11.7503774 22.4801281,11.7362626 22.5371268,11.722603 C22.567248,11.7157732 22.5950523,11.7098541 22.5950523,11.7098541 L22.6756846,11.7030243 C22.7892187,11.6934626 22.8934846,11.6843562 22.9898727,11.6761605 C23.181722,11.6574924 23.3388161,11.6420116 23.4745935,11.6292626 C23.7419777,11.6005775 23.9074131,11.576901 24.0362394,11.5545903 C24.294819,11.5108797 24.408353,11.4730883 24.8967811,11.4161734 C25.1252394,11.4066117 25.0566555,11.4352968 25.1743602,11.4375734 C26.2360193,11.2786671 24.8147585,11.4480457 25.2276517,11.3733734 C25.7684444,11.2900501 26.3954303,11.2395097 26.909809,11.4038798 C27.4297486,11.555501 27.7652532,11.9397901 27.91864,12.2280069 C28.0071502,12.3017686 28.1044651,12.3741643 28.1827804,12.4638621 C27.9997357,12.0522538 27.7629362,11.7180498 27.5544043,11.522718 C27.9501515,11.8136668 28.2467302,12.2703516 28.5034561,12.9068873 C28.5080902,12.9210022 28.5122608,12.9351171 28.5173583,12.9496873 C28.6230144,13.2715977 28.7240365,13.721908 28.5382115,13.2324403 C28.8778867,14.3493374 28.9599093,14.8779626 29.034054,15.2576985 C29.1035646,15.6388004 29.125808,15.8823959 29.2004161,16.4756764 C29.5257258,17.8525606 29.5183114,17.4500587 29.6522352,17.8348031 C30.0363973,19.2863596 30.2532705,20.4588056 30.7036994,21.6895325 C30.4757045,21.24332 30.6267743,21.7696686 30.908524,22.5892425 C31.0721057,22.9935656 31.2634917,23.4675525 31.4516338,23.9333437 C31.6680436,24.386386 31.8798193,24.8294112 32.0471082,25.1795514 C32.5091222,26.070155 32.6319244,26.197189 32.7422146,26.3451676 C32.8566754,26.491325 32.9641852,26.657061 33.5378796,27.5467541 C34.0429902,28.4769705 32.3172729,25.7732872 32.9933796,26.9912651 L33.5452941,27.8021879 C33.913237,28.3085025 34.2909115,28.6527235 34.7570961,29.2332551 C35.0077978,29.5988761 35.4508122,30.0960843 35.4433978,30.1238587 C34.8632157,29.474574 34.9925055,29.7076973 35.5638829,30.4266457 C35.8572177,30.7380838 35.9299722,30.815488 36.0791884,30.9575475 C35.5592488,30.2231182 35.8544373,30.5914712 36.4165466,31.2293729 C37.0083138,31.8408661 37.844295,32.7505931 38.3642346,33.1184907 C39.7553741,34.3205325 40.1492676,34.5960004 40.478748,34.9434087 C40.6488174,35.1096 40.8165697,35.2767021 41.1228799,35.539421 C41.4356778,35.7925783 41.9069599,36.1153994 42.6599917,36.6212586 C42.2420011,36.2488078 42.7373802,36.587565 43.4783636,37.0706583 C44.2411269,37.5250665 45.2337388,38.1429342 45.7610928,38.4243212 C46.0785247,38.5777637 46.3153242,38.7243763 46.4895642,38.8582401 C46.6253417,38.966606 46.7221931,39.0635889 46.7727042,39.1678569 C46.6554629,39.2170313 46.5349778,39.2388866 46.4177366,39.2525462 C46.3978102,39.2575547 46.3741766,39.2634738 46.3482259,39.2707589 C46.3023489,39.27941 46.2518379,39.2885164 46.198083,39.2985334 C46.0901098,39.3172015 45.9668443,39.3313164 45.8486762,39.34361 C45.6114132,39.3677419 45.389906,39.3754823 45.3315171,39.3886865 C45.4557094,39.4246567 45.6679485,39.4629035 45.96082,39.4747418 C45.9649906,39.4751971 45.9696247,39.4751971 45.9737953,39.4751971 C45.788897,39.4915886 45.5785115,39.5029716 45.3319805,39.5034269 C40.9690297,39.1828824 36.739076,37.4950155 32.9924528,35.0854681 M20.6422669,21.5552134 C20.6510716,21.5693283 20.6589495,21.5829879 20.6654371,21.590273 C20.9689669,22.2368257 21.42542,23.0345443 21.7655587,23.6405737 C21.3466413,22.9393827 20.9689669,22.2422895 20.6422669,21.5552134 M19.1380568,16.5712933 C19.1269351,16.342268 19.1204474,16.1136979 19.1301789,15.8855832 C19.1871776,17.0211484 19.4503912,18.4353687 19.8744061,19.7198231 C19.4786589,18.6133984 19.2307376,17.5556927 19.1380568,16.5712933 M22.3874472,24.6340794 C22.9208255,25.4135853 23.6400288,26.4207506 23.3721812,25.9171679 C24.1511637,26.9880778 25.112264,28.1737281 26.1822644,29.3111146 C27.2499477,30.4503223 28.4260676,31.5385344 29.5753101,32.4578231 C29.7444526,32.6663591 30.5192645,33.2578183 30.7917462,33.4836564 C30.6406764,33.3935033 30.8394768,33.5647032 31.0535696,33.7454648 C27.5011128,31.1078027 24.4973266,27.8627453 22.3874472,24.6340794 M48.9581185,38.8896571 C48.9076074,38.6542572 48.8269751,38.4580148 48.7319772,38.2868149 C48.5419815,37.9425939 48.3195475,37.6716792 47.9835794,37.3693475 C47.8427045,37.2609816 47.5665156,37.0651945 47.2935705,36.9185818 C47.0261863,36.7614968 46.7629727,36.6540416 46.6939255,36.6262671 C46.8176544,36.734633 47.0484297,36.890352 47.3389842,37.111637 C47.1327693,36.9836924 46.904311,36.8552925 46.6420242,36.7296245 C40.2359242,33.0538355 36.6602973,29.0752594 34.5314183,25.3348151 C35.4290322,26.8719715 36.5069105,28.3699705 37.7530044,29.7423015 C39.4472102,31.622313 41.4305803,33.2623715 43.4663151,34.6301493 C44.6790439,35.42377 45.5414392,35.8986676 46.7096812,36.6157948 C45.1350337,35.5954252 42.5357994,33.9125668 40.3842136,31.9583383 C39.5213549,31.2443984 39.9810519,31.6846917 40.6344519,32.2893551 C41.2999003,32.8785377 42.210953,33.5692564 42.1001994,33.5127969 C42.2146603,33.6361883 41.6720139,33.2022694 41.2405846,32.8762611 C40.7405714,32.4969805 40.3003374,32.0402957 39.9476868,31.7120108 C39.6010605,31.3773515 39.3693583,31.1401304 39.3675047,31.1032495 L38.7928835,30.5923818 C38.3364303,30.12568 37.8693189,29.653059 37.4490112,29.1212466 C37.2321381,28.8612596 37.0129479,28.5985406 36.7914407,28.3326344 C36.588933,28.0526133 36.3841083,27.769405 36.1769667,27.4825541 C35.7432203,26.9216013 35.3896429,26.2882528 34.9864812,25.6635553 C34.6333672,25.0101728 34.2413272,24.3531477 33.9252855,23.6332886 C34.1375247,24.0321479 34.2904481,24.3199094 34.4878583,24.6536581 C34.5814659,24.8244027 34.6806344,25.0051643 34.8006561,25.2237173 C34.9118731,25.4450023 35.0536748,25.693151 35.2399633,25.987287 C35.926265,26.8929162 35.6116135,26.4225718 35.0657233,25.6070958 C34.8122412,25.1872918 34.5189063,24.6695943 34.2575464,24.1983393 C34.0249174,23.7120588 33.8251902,23.2717654 33.7380702,23.0181528 C33.7542894,23.1051187 33.6087805,22.8077955 33.4401013,22.3861703 C33.2607639,21.9686429 33.0494516,21.4309114 32.9243324,21.043435 C32.9933796,21.2720051 33.0540856,21.5042177 33.1305473,21.7305112 L33.557806,22.6935105 C34.4493957,24.7187687 33.3701273,22.5974382 33.3325915,22.4908936 C33.0369396,21.8047281 32.8576022,21.2624434 32.7130201,20.7952863 C32.5563895,20.332227 32.4743669,19.9310911 32.3668571,19.5258573 C32.1666665,18.709926 31.9785244,17.8434542 31.6003866,16.1860936 C31.542461,16.0982171 31.6620193,16.6313954 31.5781431,16.4028254 C31.3510751,15.4885451 31.3714649,15.6642982 31.0248385,14.1754056 C30.8561594,13.4068274 30.6476275,12.7206619 30.3301956,12.0344964 C30.0067394,11.3592585 29.6137727,10.6403101 28.8732527,10.0115148 C28.7203293,9.87901699 28.7523042,9.88584677 28.8866914,9.97053608 C29.0187616,10.0552254 29.2249765,10.2514678 29.4311914,10.4627357 C29.8311092,10.9016631 30.1272245,11.4708117 30.0725428,11.3055309 C29.9251803,11.0446332 29.7801348,10.7810036 29.5859684,10.5415059 C29.4381425,10.3329699 29.2170986,10.1490211 29.012274,9.94185099 C28.7731574,9.77019579 28.5386749,9.57167677 28.2624859,9.45192792 C27.7337417,9.16280045 27.1614375,9.06627286 26.7508614,9.03531117 L26.7202767,8.99934099 C26.3616018,8.98977929 25.9403674,8.95836229 25.5135721,9.01208991 L25.4324764,9.01937501 L25.4222815,9.02074097 L25.4032819,9.02347288 C25.3847457,9.0312133 25.3833555,9.01755374 25.3828921,9.00298354 L25.3796483,8.98294951 L25.3685266,8.85136236 C25.3638925,8.75210285 25.3583317,8.65284335 25.3532342,8.5549498 C25.323113,7.77089075 25.43433,7.05239761 25.4792802,6.68222339 C25.5863266,6.16907906 25.7313721,5.6554794 25.9060755,5.1455223 L26.0131218,4.84227995 L26.075218,4.66880347 L26.1058027,4.58229289 C26.1127538,4.55451844 26.0599257,4.54996525 26.0399993,4.53311845 L25.4760363,4.24308035 C25.2262615,4.11513576 24.9750964,3.98628052 24.7234679,3.85742529 L24.1891628,3.58559994 L24.0204837,3.5 C23.9801675,3.53187232 23.9491194,3.59834887 23.9129739,3.64615735 L23.7035152,3.95896139 C23.5292752,4.22577824 23.3902539,4.45161638 23.2410378,4.70796089 C22.9514101,5.2083563 22.68866,5.72833042 22.4639089,6.26697261 C22.2396213,6.8056148 22.0510157,7.36064847 21.9073604,7.9293417 C21.8350694,8.21300534 21.7748268,8.49985622 21.7247792,8.78807304 L21.6589758,9.2219919 L21.6330251,9.44008963 L21.6256107,9.51749383 C21.6501711,9.54299168 21.2243026,9.62768099 20.9768448,9.74287666 C20.6923146,9.84122553 20.4235401,9.9759999 20.1543023,10.107587 C19.6278751,10.3948932 19.139447,10.7504973 18.718676,11.1716672 L18.3864152,11.4944882 L18.0852024,11.8473603 C17.690382,12.4206068 17.5008497,12.8645426 17.3896327,13.189185 C17.2649769,13.5115507 17.2408799,13.7264612 17.1982467,13.8876441 C17.1546867,14.2172949 17.1273459,14.3648182 17.0810055,14.9804093 C17.0379089,15.2699921 17.0291042,15.1561624 17.003617,15.3109708 C16.9836906,16.6933188 17.0522744,14.85292 17.0592255,15.3929282 C16.9660812,16.8016847 17.4012178,18.5405473 17.6060424,19.3992787 L17.8391348,19.7908529 C17.6852846,19.2289894 17.596311,18.7181217 17.557385,18.3702581 C17.707528,19.0318364 17.912816,19.713904 18.1653713,20.4100865 C18.2867832,20.8162309 18.4832666,21.4300007 18.2195896,20.8012054 C18.7386024,22.1821874 19.0504734,22.7791105 19.2488104,23.2248676 C19.466147,23.662429 19.5680959,23.9547437 19.9082346,24.6267943 C20.8512622,26.1420954 20.675632,25.664466 20.9791618,26.0742529 C22.0751128,27.6086774 22.9240693,28.837583 24.0329956,30.0505524 C23.573762,29.6266505 23.9968501,30.1675693 24.7364432,30.9643773 C25.4797436,31.7566321 26.5506707,32.7892952 27.2935077,33.4185459 C28.2323647,34.2536006 28.4395064,34.3382899 28.6290387,34.4685111 C28.8241319,34.5937238 29.0349808,34.7257663 30.0929326,35.5271274 C30.616116,35.9305399 30.0433484,35.5735699 29.5410182,35.2084042 C29.0326638,34.8509789 28.5650889,34.52406 29.239342,35.080915 C29.5729931,35.3176807 29.8959858,35.5681061 30.2402952,35.7903017 C30.5637513,35.9810803 30.88211,36.1686717 31.2023223,36.3580843 C31.5299491,36.536114 31.871478,36.7255266 32.2741763,36.9636584 C32.7491656,37.2514199 33.4692958,37.6730451 33.4762468,37.7030962 C32.5299754,37.1594455 32.7778967,37.3907474 33.7672647,37.97993 C34.2492051,38.2157852 34.3692268,38.274066 34.6050995,38.3774234 C33.6546575,37.7709387 34.1644021,38.0732704 35.118088,38.5536318 C36.0634326,39.0526612 37.4976687,39.6491289 38.2562614,39.8790649 C39.354066,40.2383115 40.053343,40.4386518 40.5487221,40.5752474 C41.0413208,40.7250473 41.3272412,40.8165664 41.6145518,40.8989791 C42.1877828,41.0574301 42.7410875,41.3155959 45.0284507,41.5 C44.6808975,41.4330681 44.6971167,41.4144001 44.9376235,41.4253277 C45.1748864,41.4512809 45.658217,41.4467277 46.2124485,41.3934554 C46.7680702,41.3324427 47.4279578,41.2113279 47.9715309,40.9076302 C48.5280794,40.6198687 48.8714619,40.0948861 48.9400457,39.7201586 C49.0267023,39.4046227 49.0072394,39.123691 48.9581185,38.8896571" id="Fill-20" fill="#FFFFFF"></path>
                        <path d="M47.154531,19.5 C47.0175241,18.964338 46.8595793,18.471234 46.845469,18.5013082 C46.9173862,18.7611951 47.0220759,19.1601043 47.0876207,19.4358794 L47.0220759,19.1601043 C46.964269,18.8707107 47.1081034,19.3921867 47.154531,19.5" id="Fill-22" fill="#FFFFFF"></path>
                        <path d="M41.1043301,24.6686199 C41.4484162,25.0264291 41.7622784,25.3254006 42,25.5 C41.1072363,24.6169577 40.7538506,24.3007654 40,23.5 C40.3760535,23.9013394 40.749782,24.3175078 41.1043301,24.6686199" id="Fill-24" fill="#FFFFFF"></path>
                        <path d="M41,27.5 C40.4837905,26.9674916 40.0031172,26.4600082 40,26.5024925 C40.2412718,26.7713656 40.611596,27.181077 40.8709476,27.4569337 L40.6165835,27.1770031 C40.3634663,26.8796132 40.8721945,27.3993181 41,27.5" id="Fill-26" fill="#FFFFFF"></path>
                        <path d="M48,10.5 C47.8685845,9.79901269 47.7361883,9.32604607 47.5995423,8.8812882 C47.4445897,8.44593324 47.3040209,8.01716032 47,7.5 C47.3076169,8.01480959 47.5116051,8.63211095 47.6626348,9.17230842 C47.8185682,9.71438646 47.9172932,10.1925247 48,10.5" id="Fill-28" fill="#FFFFFF"></path>
                        <g id="Group-32" transform="translate(34.000000, 0.500000)">
                            <mask id="mask-4" fill="white">
                                <use xlink:href="#path-3"></use>
                            </mask>
                            <g id="Clip-31"></g>
                            <path d="M7.09892571,0.55552381 C7.12132571,0.530190476 7.13824,0.483595238 7.16521143,0.475904762 L7.26532571,0.529738095 L7.46326857,0.6365 L7.82944,0.834642857 C8.07355429,0.966738095 8.31721143,1.09838095 8.55766857,1.22866667 L8.60338286,1.25309524 L7.16795429,0.513452381 C6.75515429,1.12190476 6.37801143,1.77107143 6.04886857,2.45552381 C5.90166857,2.73238095 5.76086857,3.01285714 5.63515429,3.30057143 C5.94235429,2.41888095 6.44201143,1.49059524 7.09892571,0.55552381 M8.50052571,5.94519048 C8.58281143,5.94021429 8.65915429,5.93614286 8.73732571,5.93161905 C8.54349714,5.94157143 8.34921143,5.95152381 8.13938286,5.9777619 C8.07126857,5.41816667 8.05618286,4.8377619 8.11104,4.24469048 C8.12841143,4.04790476 8.15629714,3.8497619 8.18692571,3.65116667 C8.18692571,3.6552381 8.18601143,3.66247619 8.18646857,3.66564286 C8.10326857,4.20261905 8.06258286,4.845 8.10235429,5.45616667 C8.11195429,5.61088095 8.12429714,5.75564286 8.13938286,5.8995 C8.11835429,6.0062619 8.23081143,5.95242857 8.29161143,5.9587619 C8.36292571,5.9542381 8.43241143,5.94971429 8.50052571,5.94519048 M10.2372114,6.03340476 C10.0877257,6.00038095 9.92909714,5.97640476 9.76635429,5.95740476 C9.91446857,5.97369048 10.0730971,5.99766667 10.2372114,6.03340476 M11.3210971,6.43511905 C11.6314971,6.62647619 11.8829257,6.80788095 11.99584,6.92052381 C12.11744,7.02366667 12.13664,7.02095238 11.9844114,6.84135714 C12.6074971,7.41271429 13.04864,8.21795238 13.3672686,9.08019048 C13.6890971,9.94604762 13.9066971,10.8779524 14.1169829,11.8175476 C14.5229257,13.699 14.9521829,15.621619 15.5633829,17.324381 C15.5917257,17.4849762 15.7105829,17.8464286 15.8362971,18.2191905 C15.9789257,18.5860714 16.1338971,18.9633571 16.2024686,19.1700952 C16.1160686,19.0049762 16.1855543,19.2108095 16.28064,19.4804286 C16.3044114,19.5428571 16.3304686,19.608 16.3569829,19.6722381 C15.1871543,17.020381 14.6458971,14.554 14.19424,12.4897857 C13.5258971,9.43440476 12.9188114,6.71785714 10.3679543,6.06597619 C10.7034971,6.1487619 11.0445257,6.26954762 11.3210971,6.43511905 M15.9290971,31.5309524 C17.04864,32.2353095 18.2280686,32.9070952 19.4623543,33.4951905 C21.27584,34.371 23.2141257,35.0305714 25.1240686,35.4132857 C26.2605257,35.5933333 27.0308114,35.6969286 28.1119543,35.790119 C26.6330971,35.6304286 24.2340114,35.1278333 22.0740114,34.3189762 C21.2319543,34.0344286 21.6895543,34.2551905 22.35424,34.4954048 C22.6879543,34.6103095 23.0669257,34.7487381 23.35584,34.8387619 C23.6456686,34.9242619 23.83904,34.9835238 23.7905829,34.9780952 C23.91264,35.0314762 23.3764114,34.9002857 22.96864,34.7686429 C22.0209829,34.460119 21.0980114,34.0362381 21.0751543,33.9783333 C20.8776686,33.9254048 20.6879543,33.8516667 20.4932114,33.787881 C18.5855543,32.9600238 16.6554971,31.830881 14.6216686,30.3479762 C14.9306971,30.5379762 15.1514971,30.6777619 15.40704,30.8541905 C15.6676114,31.0220238 15.9656686,31.2224286 16.4232686,31.54 C17.2493257,31.9285952 16.8442971,31.7218571 16.1754971,31.3097381 C15.5002971,30.9075714 14.5713829,30.2769524 14.2637257,29.9725 C14.3560686,30.0810714 13.39104,29.3667619 12.8964114,28.9419762 L13.31744,29.3332857 L14.0058971,29.8218571 C15.4047543,30.913 13.8340114,29.8327143 13.7530971,29.792 C12.8017829,29.0672857 12.3464686,28.6239524 11.8692114,28.152119 C11.6273829,27.9191429 11.3828114,27.6753095 11.0810971,27.3681429 C10.7716114,27.0682143 10.4081829,26.7035952 9.93184,26.2245238 C9.85046857,26.1942143 10.1572114,26.5018333 9.99949714,26.3878333 C9.45869714,25.8694048 9.53504,25.9870238 8.72452571,25.0890476 C7.94326857,24.1250238 7.22464,23.4242857 6.40589714,22.2227619 C6.26555429,21.9499762 6.49595429,22.2743333 6.76886857,22.6204048 C7.04269714,22.9660238 7.33938286,23.3478333 7.28178286,23.2293095 L6.89824,22.672881 C6.43515429,22.0757381 5.91446857,21.1868095 5.54555429,20.704119 L5.55835429,20.6665714 C5.26669714,20.2277619 4.89824,19.6319762 4.59332571,19.0665 C4.27744,18.5064524 4.02281143,17.9785238 3.87104,17.7165952 C3.53321143,16.9403095 3.22601143,16.1319048 2.97504,15.2954524 C2.73778286,14.4567381 2.55858286,13.5895238 2.50052571,12.7114524 C2.45344,11.8397143 2.53344,10.9408333 2.91698286,10.1745 C3.28818286,9.405 3.97618286,8.82188095 4.78486857,8.51561905 C5.00018286,8.45409524 5.21549714,8.39302381 5.43858286,8.36090476 C5.49984,8.34642857 5.55881143,8.33240476 5.61504,8.31883333 C5.64475429,8.31204762 5.67218286,8.30616667 5.67218286,8.30616667 L5.75172571,8.29938095 C5.86372571,8.28988095 5.96658286,8.28083333 6.06166857,8.27269048 C6.25092571,8.25414286 6.40589714,8.23921429 6.53984,8.22609524 C6.80361143,8.19759524 6.96681143,8.17407143 7.09389714,8.15190476 C7.34898286,8.10847619 7.46098286,8.07092857 7.94281143,8.01438095 C8.16818286,8.00488095 8.10052571,8.03383333 8.21664,8.03609524 C9.26395429,7.8777619 7.86189714,8.04604762 8.26921143,7.97185714 C8.80269714,7.88907143 9.42121143,7.83885714 9.92864,8.00216667 C10.4415543,8.15280952 10.7725257,8.53461905 10.92384,8.82097619 C11.0111543,8.8942619 11.1071543,8.96619048 11.1844114,9.05530952 C11.00384,8.64635714 10.77024,8.31430952 10.5645257,8.1202381 C10.9549257,8.40930952 11.2474971,8.86304762 11.5007543,9.49547619 C11.5053257,9.5095 11.50944,9.52397619 11.5144686,9.53845238 C11.6186971,9.85828571 11.7183543,10.3052381 11.53504,9.81892857 C11.8701257,10.928619 11.95104,11.4538333 12.0241829,11.831119 C12.0927543,12.2097619 12.1146971,12.4517857 12.1882971,13.0412381 C12.5092114,14.4092381 12.5018971,14.0093333 12.6340114,14.3915952 C13.0129829,15.8337857 13.2269257,16.9986667 13.6712686,18.2214524 C13.4463543,17.778119 13.5953829,18.3010714 13.8733257,19.1153571 C14.0346971,19.5175238 14.2234971,19.9884524 14.4090971,20.4507857 C14.6225829,20.9009048 14.8314971,21.3410714 14.9965257,21.6889524 C15.4522971,22.5738095 15.57344,22.7000238 15.68224,22.8470476 C15.7951543,22.9922619 15.9012114,23.1569286 16.4671543,24.040881 C16.96544,24.9650952 15.26304,22.2788571 15.9300114,23.4889762 L16.4744686,24.2946667 C16.83744,24.7977143 17.2100114,25.1397143 17.6698971,25.7165 C17.9172114,26.0797619 18.35424,26.5737619 18.3469257,26.6013571 C17.7745829,25.9562619 17.9021257,26.187881 18.4657829,26.9021905 C18.7551543,27.211619 18.8269257,27.2885238 18.9741257,27.4296667 C18.4607543,26.6999762 18.7524114,27.0659524 19.3069257,27.6997381 C19.8906971,28.3072857 20.7153829,29.2111429 21.2282971,29.5766667 C22.60064,30.7709524 22.9892114,31.0446429 23.31424,31.3898095 C23.4820114,31.5549286 23.6474971,31.7209524 23.9496686,31.9819762 C24.25824,32.2335 24.7231543,32.5542381 25.4660114,33.0568333 C25.0536686,32.6867857 25.5423543,33.0233571 26.2733257,33.5033333 C27.0257829,33.9552619 28.0049829,34.5686905 28.5252114,34.8482619 C28.8383543,35.0007143 29.0719543,35.146381 29.24384,35.279381 C29.3777829,35.3870476 29.4733257,35.4834048 29.5231543,35.587 C29.4074971,35.6358571 29.28864,35.6575714 29.1729829,35.6711429 C29.1533257,35.676119 29.1300114,35.682 29.1044114,35.6892381 C29.0591543,35.6978333 29.0093257,35.706881 28.9562971,35.7168333 C28.8497829,35.735381 28.7281829,35.7494048 28.6116114,35.761619 C28.3775543,35.7855952 28.15904,35.7932857 28.10144,35.8064048 C28.2239543,35.8421429 28.4333257,35.8801429 28.72224,35.8923571 L28.73504,35.8923571 C28.55264,35.9086429 28.3450971,35.9199524 28.1018971,35.9204048 C23.7978971,35.6019286 19.6250971,33.9249524 15.9290971,31.5309524 M3.74578286,18.088 C3.75446857,18.1020238 3.76224,18.1155952 3.76864,18.1228333 C4.06806857,18.7652143 4.51835429,19.5577857 4.85389714,20.1599048 C4.44064,19.4632381 4.06806857,18.7706429 3.74578286,18.088 M2.26189714,13.1362381 C2.25092571,12.9086905 2.24452571,12.6815952 2.25412571,12.4549524 C2.31035429,13.5831905 2.57001143,14.9882857 2.98829714,16.2644524 C2.59789714,15.1651667 2.35332571,14.1142857 2.26189714,13.1362381 M5.46738286,21.147 C5.99355429,21.9214762 6.70304,22.9221429 6.43881143,22.4218095 C7.20726857,23.4858095 8.15538286,24.6638095 9.21092571,25.7943095 C10.2641829,26.9257143 11.4244114,28.0069048 12.5581257,28.9202619 C12.7249829,29.1274524 13.4893257,29.7150952 13.7581257,29.9394762 C13.6090971,29.8499048 13.8052114,30.02 14.0164114,30.1995952 C10.5119543,27.5789524 7.54875429,24.3548333 5.46738286,21.147 M31.67904,35.3105952 C31.6292114,35.0767143 31.5496686,34.8817381 31.4559543,34.7116429 C31.2685257,34.3696429 31.0490971,34.1004762 30.7176686,33.8005476 C30.5786971,33.6924286 30.30624,33.4979048 30.0369829,33.3522381 C29.7732114,33.196619 29.5135543,33.0894048 29.44544,33.0618095 C29.5674971,33.1694762 29.7951543,33.3241905 30.0817829,33.5440476 C29.8783543,33.4169286 29.6529829,33.2898095 29.39424,33.1645 C23.0746971,29.5124286 19.5473829,25.5595238 17.4472686,21.8432143 C18.3327543,23.3704524 19.3960686,24.8587857 20.6253257,26.2222619 C22.29664,28.0901429 24.2532114,29.719619 26.26144,31.0785714 C27.4577829,31.8670714 28.3085257,32.3389048 29.4609829,33.0514048 C27.9076114,32.037619 25.3434971,30.365619 23.2209829,28.424 C22.3697829,27.7146667 22.8232686,28.152119 23.46784,28.752881 C24.1242971,29.3382619 25.02304,30.0245238 24.9137829,29.9684286 C25.0266971,30.0910238 24.4913829,29.6599048 24.0657829,29.3364524 C23.5725257,28.9591667 23.13824,28.5054286 22.7903543,28.1792619 C22.4484114,27.8467619 22.21984,27.6110714 22.2180114,27.5744286 L21.6511543,27.0668571 C21.2008686,26.6031667 20.7400686,26.1335952 20.32544,25.6052143 C20.1114971,25.3469048 19.8952686,25.085881 19.6767543,24.8216905 C19.4769829,24.5434762 19.2749257,24.2620952 19.0701257,23.9770952 C18.6426971,23.4197619 18.2938971,22.7905 17.8961829,22.1698333 C17.54784,21.5206667 17.1610971,20.867881 16.8493257,20.1526667 C17.0586971,20.5489524 17.2095543,20.8348571 17.4042971,21.1664524 C17.49664,21.3360952 17.5944686,21.5156905 17.7128686,21.7328333 C17.8225829,21.9526905 17.9624686,22.1992381 18.14624,22.4914762 C18.8232686,23.3912619 18.5128686,22.9239524 17.9743543,22.1137381 C17.7242971,21.6966429 17.4349257,21.1822857 17.1770971,20.7140714 C16.9476114,20.2309286 16.7505829,19.7934762 16.66464,19.5415 C16.68064,19.6279048 16.5370971,19.3325 16.3706971,18.9135952 C16.1937829,18.4992143 15.9853257,17.9649524 15.8618971,17.5795238 C15.9300114,17.806619 15.9898971,18.0373333 16.0653257,18.2621667 L16.4868114,19.2189524 C17.3663543,21.2311429 16.3016686,19.1235 16.26464,19.0176429 C15.9729829,18.3359048 15.7960686,17.797119 15.65344,17.3329762 C15.4989257,16.8729048 15.4180114,16.4743571 15.3119543,16.0717381 C15.1144686,15.2610714 14.9288686,14.4001905 14.55584,12.7535238 C14.4986971,12.6662143 14.61664,13.1959524 14.5338971,12.9688571 C14.3098971,12.0604762 14.3300114,12.2350952 13.9880686,10.7558095 C13.8216686,9.99219048 13.6159543,9.31045238 13.3028114,8.62871429 C12.9837257,7.95783333 12.5960686,7.24397619 11.8655543,6.61878571 C11.7146971,6.48714286 11.74624,6.49392857 11.8788114,6.57807143 C12.0090971,6.66266667 12.2125257,6.85719048 12.4159543,7.06709524 C12.8104686,7.50319048 13.1025829,8.06866667 13.04864,7.90490476 C12.9032686,7.6452381 12.7601829,7.38330952 12.56864,7.14580952 C12.4228114,6.93816667 12.2047543,6.75540476 12.0026971,6.54957143 C11.7668114,6.37902381 11.5354971,6.18178571 11.26304,6.06280952 C10.74144,5.77554762 10.1768686,5.67964286 9.77184,5.64888095 L9.74166857,5.61314286 C9.38784,5.60364286 8.97229714,5.57242857 8.55126857,5.62580952 L8.47126857,5.63304762 L8.46121143,5.63440476 L8.44246857,5.63757143 C8.42418286,5.64480952 8.42281143,5.6312381 8.42235429,5.6167619 L8.41915429,5.59685714 L8.40818286,5.46611905 C8.40361143,5.3675 8.39812571,5.26888095 8.39309714,5.17161905 C8.36338286,4.39261905 8.47309714,3.6787619 8.51744,3.31097619 C8.62304,2.80114286 8.76612571,2.29085714 8.93846857,1.78419048 L9.04406857,1.48290476 L9.10532571,1.31054762 L9.13549714,1.22459524 C9.14235429,1.197 9.09024,1.19247619 9.07058286,1.1757381 L8.51424,0.887571429 C8.26784,0.760452381 8.02006857,0.632428571 7.77184,0.504404762 L7.24475429,0.234333333 L7.07835429,0.149285714 C7.03858286,0.180952381 7.00795429,0.247 6.97229714,0.2945 L6.76566857,0.605285714 C6.59378286,0.870380952 6.45664,1.09521429 6.30944,1.34945238 C6.02372571,1.84661905 5.76452571,2.3632381 5.54281143,2.89840476 C5.32155429,3.43357143 5.13549714,3.98502381 4.99378286,4.55004762 C4.92246857,4.83188095 4.86304,5.11688095 4.81366857,5.4032381 L4.74875429,5.83435714 L4.72315429,6.05104762 L4.71584,6.12795238 C4.74006857,6.15328571 4.31995429,6.23742857 4.07584,6.35188095 C3.79515429,6.44959524 3.53001143,6.5835 3.26441143,6.7142381 C2.74509714,6.99969048 2.26326857,7.35345238 1.84818286,7.77145238 L1.52041143,8.09219048 L1.22326857,8.44278571 C0.833782857,9.01233333 0.646811429,9.45340476 0.537097143,9.77595238 C0.414125714,10.0962381 0.390354286,10.3097619 0.348297143,10.4699048 C0.305325714,10.7974286 0.278354286,10.944 0.23264,11.555619 C0.190125714,11.8433333 0.18144,11.7302381 0.156297143,11.8840476 C0.13664,13.2574762 0.204297143,11.4289524 0.211154286,11.9654762 C0.119268571,13.3651429 0.548525714,15.0927857 0.750582857,15.9459762 L0.980525714,16.3350238 C0.828754286,15.7767857 0.740982857,15.2692143 0.702582857,14.9235952 C0.850697143,15.5809048 1.05321143,16.2585714 1.30235429,16.9502619 C1.42212571,17.3537857 1.61595429,17.9635952 1.35584,17.3388571 C1.86784,18.7109286 2.17549714,19.304 2.37115429,19.746881 C2.58555429,20.181619 2.68612571,20.4720476 3.02166857,21.1397619 C3.95195429,22.6452857 3.77869714,22.1707381 4.07812571,22.577881 C5.15926857,24.1024048 5.99675429,25.323381 7.09069714,26.5285238 C6.63766857,26.1073571 7.05504,26.6447857 7.78464,27.4364524 C8.51789714,28.2235952 9.57435429,29.2495952 10.3071543,29.8747857 C11.2333257,30.7044524 11.4376686,30.7885952 11.62464,30.9179762 C11.8170971,31.042381 12.0250971,31.1735714 13.0687543,31.9697619 C13.5848686,32.3705714 13.01984,32.0159048 12.5242971,31.6530952 C12.0228114,31.2979762 11.5615543,30.9731667 12.2266971,31.5264286 C12.55584,31.7616667 12.8744686,32.0104762 13.2141257,32.2312381 C13.5332114,32.4207857 13.8472686,32.6071667 14.1631543,32.7953571 C14.4863543,32.9722381 14.8232686,33.1604286 15.2205257,33.3970238 C15.6890971,33.6829286 16.3994971,34.1018333 16.4063543,34.1316905 C15.4728686,33.592 15.71744,33.8213571 16.69344,34.4067381 C17.1688686,34.6410714 17.2872686,34.6989762 17.5199543,34.8016667 C16.5823543,34.1990952 17.0852114,34.4994762 18.0260114,34.9767381 C18.9585829,35.4725476 20.37344,36.0651667 21.1217829,36.293619 C22.2047543,36.6505476 22.8945829,36.8500476 23.3832686,36.9853095 C23.8692114,37.1341429 24.1512686,37.2250714 24.4346971,37.3069524 C25.0001829,37.464381 25.5460114,37.720881 27.8024686,37.9040952 C27.4596114,37.8375952 27.4756114,37.8190476 27.7128686,37.8299048 C27.9464686,37.8556905 28.4237257,37.8511667 28.9704686,37.7982381 C29.5185829,37.737619 30.1695543,37.6172857 30.7057829,37.3155476 C31.2548114,37.0296429 31.5935543,36.5080476 31.6612114,36.1357381 C31.7466971,35.8222381 31.7274971,35.543119 31.67904,35.3105952" id="Fill-30" fill="#FFFFFF" mask="url(#mask-4)"></path>
                        </g>
                    </g>
                </g>
            </g>
        </g>
    </g>
</svg>