<?xml version="1.0" encoding="UTF-8"?>
<svg width="65px" height="42px" viewBox="0 0 65 42" version="1.1" xmlns="http://www.w3.org/2000/svg" xmlns:xlink="http://www.w3.org/1999/xlink">
    <!-- Generator: Sketch 52.5 (67469) - http://www.bohemiancoding.com/sketch -->
    <title>Group 17</title>
    <desc>Created with Sketch.</desc>
    <g id="2---Fast,-Healthy,-(Vegan)" stroke="none" stroke-width="1" fill="none" fill-rule="evenodd">
        <g id="Suncraft_MENU-Copy-2" transform="translate(-259.000000, -3352.000000)" fill="#FFFFFF">
            <g id="Group-26" transform="translate(181.000000, 3129.000000)">
                <g id="Group-17" transform="translate(78.000000, 223.000000)">
                    <path d="M7,32 C6.48379052,31.4677664 6.00311721,30.9605449 6,31.0024256 C6.24127182,31.2717416 6.61159601,31.6812415 6.87157107,31.956956 L6.61658354,31.6771698 C6.36346633,31.3793517 6.87281796,31.89937 7,32" id="Fill-1"></path>
                    <path d="M14,14 C13.737169,13.2990127 13.4723766,12.8260461 13.1997385,12.3812882 C12.8891795,11.9464034 12.6080418,11.5176305 12,11 C12.6152337,11.5152797 13.023864,12.132111 13.3252697,12.6723084 C13.6371363,13.2143865 13.8345865,13.6929948 14,14" id="Fill-3"></path>
                    <path d="M13.7886779,17.0937837 C13.1327969,14.0999305 12.5366231,11.4372499 10.0316156,10.7984016 C10.3611273,10.8795322 10.6960262,10.9979031 10.9676264,11.1601644 C11.2724473,11.3476958 11.5193566,11.5254739 11.6297924,11.6358647 C11.7492067,11.7369455 11.7685106,11.7342855 11.6185693,11.5582808 C12.2304555,12.1177718 12.6636692,12.9073546 12.9765706,13.7523545 C13.2930635,14.6009011 13.5063034,15.5141748 13.7128094,16.4349853 C14.1119047,18.2788229 14.5329974,20.1630041 15.1336605,21.8317237 C15.1614939,21.9891083 15.2777657,22.342891 15.4021182,22.7086439 C15.5412853,23.0686333 15.6934713,23.4379329 15.761708,23.6405378 C15.6764121,23.4787198 15.7441999,23.6804381 15.8375765,23.9451101 C15.8613696,24.0054039 15.8869584,24.0696877 15.9125472,24.1326416 C14.7641943,21.5338014 14.2322169,19.1167294 13.7886779,17.0937837 Z M7.84310095,10.7119509 C7.77621096,10.1635433 7.76094747,9.59474227 7.8148186,9.01308443 C7.83187779,8.82023293 7.85971121,8.62605143 7.88934033,8.43186992 C7.88934033,8.43585995 7.88844248,8.44295334 7.88889141,8.4460567 C7.80763578,8.97229744 7.76768136,9.60183565 7.80718686,10.2007836 C7.81571645,10.3524048 7.82828638,10.4942726 7.84310095,10.635697 C7.82289927,10.7398811 7.93243723,10.6871241 7.99304226,10.6933308 C8.06217687,10.6888974 8.13041364,10.6840207 8.19820147,10.6800307 C8.27855924,10.675154 8.3535299,10.6711639 8.43029626,10.6662872 C8.2399516,10.676484 8.04915801,10.6857941 7.84310095,10.7119509 Z M6.88913303,5.3568861 C6.48375278,5.95361739 6.11293984,6.58891898 5.79061092,7.26013084 C5.64560779,7.53145295 5.50733856,7.80632174 5.38343496,8.08872726 C5.68511329,7.22422057 6.17623842,6.31449352 6.82089627,5.39811642 C6.84334257,5.37328956 6.85950391,5.32762587 6.88599055,5.31964581 L6.98475428,5.37284622 L7.17913928,5.47703036 L7.53828014,5.6716552 C7.77800666,5.8006662 8.01773319,5.93012054 8.25386831,6.05735819 L8.29876091,6.08174171 L6.88913303,5.3568861 Z M30.7410245,38.8713724 C30.5569648,38.5362098 30.3405824,38.2724245 30.0155599,37.9780488 C29.8790864,37.8720914 29.6115265,37.6818999 29.3466601,37.5391454 C29.0876297,37.3861943 28.8330886,37.2815668 28.7657497,37.2545232 C28.8860619,37.3600374 29.110076,37.5116586 29.3915527,37.7275636 C29.1913317,37.6025426 28.9695622,37.477965 28.7163679,37.3551607 C22.5104138,33.7756596 19.0460512,29.9022263 16.9832359,26.2602147 C17.8532546,27.7569196 18.8979056,29.2154976 20.10417,30.5517146 C21.7458927,32.3822522 23.6672963,33.9787079 25.6389796,35.3104915 C26.814717,36.0836708 27.6501684,36.5460711 28.7810132,37.2443265 C27.2555624,36.2508088 24.737985,34.6122361 22.6531723,32.7094347 C21.8177208,32.0142826 22.2630555,32.4434326 22.8955923,33.0317405 C23.5406991,33.6054183 24.4232878,34.2779602 24.3155455,34.2225431 C24.4264303,34.3426873 23.9007378,33.9206307 23.4836855,33.6032016 C22.9988453,33.2334587 22.5723656,32.7892353 22.2307328,32.4700328 C21.8949361,32.143737 21.6704731,31.9123152 21.6686774,31.8764049 L21.1115601,31.3794244 C20.6698168,30.9250042 20.2172994,30.4648206 19.8096745,29.9470033 C19.600026,29.693858 19.3881329,29.4380527 19.1726484,29.179144 C18.9769166,28.9064919 18.7780424,28.6307364 18.5773724,28.3514343 C18.1571776,27.8052434 17.8150959,27.1885619 17.4249792,26.5803039 C17.0828975,25.9441156 16.7022082,25.304824 16.3964895,24.6034652 C16.6020977,24.9918282 16.7502433,25.2720171 16.9414858,25.5969829 C17.0321688,25.7632342 17.128239,25.9396822 17.2440619,26.1520405 C17.3518042,26.3670589 17.4896245,26.6086774 17.6700928,26.8955163 C18.3349523,27.7773131 18.0296826,27.3193463 17.5012966,26.5253301 C17.255734,26.1165736 16.9715638,25.6124997 16.7179206,25.1532028 C16.4925597,24.6801625 16.2995215,24.2514558 16.2146744,24.0040739 C16.2303869,24.0891946 16.0903219,23.7996957 15.9264639,23.3891658 C15.7522806,22.982626 15.5480192,22.4594886 15.4263603,22.0817657 C15.4941481,22.3043207 15.5529574,22.5304225 15.6265813,22.7507609 L16.0404911,23.6884181 C16.903776,25.6599367 15.8586761,23.5948741 15.8218641,23.4911333 C15.5363471,22.8230248 15.3621638,22.2950107 15.2220989,21.8401471 C15.0703619,21.3892736 14.990902,20.998694 14.8863022,20.6041242 C14.692815,19.8092214 14.5101021,18.9664382 14.1437784,17.352249 C14.0876627,17.266685 14.2039345,17.7858324 14.1226789,17.5632773 C13.9027051,16.6730571 13.9229068,16.8446284 13.5871101,15.3944739 C13.4232521,14.6461214 13.2207864,13.9775696 12.913721,13.3099044 C12.6003706,12.652436 12.2196813,11.9524072 11.5018485,11.3401591 C11.3537029,11.2111481 11.3851277,11.2182415 11.5153163,11.3002588 C11.6432602,11.3827195 11.8430323,11.5737976 12.0428044,11.7790625 C12.4306765,12.2068825 12.7166424,12.7614968 12.6636692,12.6001222 C12.5213596,12.3460902 12.3803968,12.0893983 12.1927457,11.8566465 C12.0495383,11.6531549 11.8349516,11.4740468 11.6365263,11.2723286 C11.4053294,11.1051906 11.1781728,10.9118958 10.9106128,10.7948549 C10.3979393,10.5137794 9.84396447,10.4193487 9.44576704,10.3896451 L9.41658685,10.3546215 C9.06866914,10.3453114 8.66059533,10.3142778 8.24713442,10.3670349 L8.16902128,10.373685 L8.15959383,10.3754583 L8.14073893,10.3785617 C8.12278189,10.3856551 8.12143511,10.372355 8.12053726,10.3586115 L8.11739478,10.3386614 L8.10706948,10.210537 C8.10213129,10.1134463 8.09719311,10.0172422 8.09225492,9.9219248 C8.06307472,9.15849889 8.17036806,8.45891347 8.21391389,8.09848067 C8.31761581,7.59884014 8.4585786,7.0991996 8.62782373,6.60177574 L8.73107673,6.30695679 L8.79123282,6.13848882 L8.82131087,6.0538115 C8.82759583,6.02676796 8.77686719,6.02233459 8.75756337,6.00548779 L8.21122033,5.72352561 C7.96880025,5.59894797 7.72548231,5.47392701 7.48171545,5.34801936 L6.96455261,5.08334731 L6.80159244,5 C6.76208695,5.03103357 6.7320089,5.09620408 6.69699267,5.1423111 L6.49362915,5.44688346 C6.32483295,5.70667881 6.19015513,5.92701718 6.04604986,6.17617245 C5.76591998,6.66295622 5.51092997,7.16969014 5.29320082,7.69415754 C5.0759206,8.21862494 4.89320769,8.75905246 4.75359168,9.31233674 C4.68400813,9.58897889 4.62564774,9.86828105 4.5767148,10.1489132 L4.51386515,10.5718565 L4.48782744,10.7837715 L4.48154247,10.8591387 C4.50488663,10.8839656 4.09187464,10.9664262 3.85214811,11.0785904 C3.57740535,11.1743512 3.31702823,11.3055789 3.05575325,11.4337032 C2.5453243,11.7130053 2.07260514,12.060138 1.66498026,12.4697812 L1.34310026,12.784107 L1.05129831,13.127693 C0.668813293,13.685854 0.484753601,14.1181073 0.377460269,14.4342064 C0.256250228,14.7480889 0.233354998,14.9573438 0.192053799,15.1138417 C0.149854747,15.4352608 0.123817035,15.578902 0.0784755008,16.1782933 C0.0362764495,16.4602555 0.0281957801,16.3494213 0.00350484582,16.5005991 C-0.0157989755,17.8461262 0.050642084,16.054159 0.0569270491,16.5799564 C-0.0324092404,17.9516403 0.388234495,19.6443001 0.587108747,20.4808766 L0.812918564,20.8621462 C0.663875106,20.3150687 0.577232373,19.8180881 0.539522583,19.4784922 C0.685872484,20.1231038 0.884297811,20.7876657 1.12896252,21.4650842 C1.24703008,21.8605406 1.43692581,22.4581586 1.1819358,21.8459105 C1.68383516,23.1905509 1.98686026,23.7717654 2.17900062,24.2057921 C2.3886491,24.6313954 2.48741284,24.916461 2.8173735,25.5712694 C3.73093807,27.0462508 3.56079509,26.5811905 3.85439274,26.9801936 C4.91610292,28.4742385 5.73853549,29.6703611 6.81371345,30.8514103 C6.36837878,30.4391071 6.77824829,30.9657912 7.49473431,31.7416305 C8.21481174,32.5125932 9.2522799,33.5185243 9.97190841,34.1312157 C10.8809837,34.9442953 11.0821026,35.026756 11.2657134,35.1535503 C11.4547112,35.2750246 11.6589726,35.4040356 12.6834219,36.1843083 C13.1907084,36.5771047 12.6358358,36.2295286 12.1491999,35.8739725 C11.6571769,35.5259532 11.2037616,35.2076374 11.856949,35.7498382 C12.1797269,35.9803734 12.4926283,36.2242086 12.8266293,36.4405569 C13.1399797,36.626315 13.447943,36.8089698 13.7590488,36.9933979 C14.0759906,37.1667426 14.4068491,37.3511706 14.796517,37.5830358 C15.2571151,37.8632246 15.9542973,38.2733111 15.9614801,38.3025714 C15.0447731,37.7736706 15.2844996,37.9988857 16.2434057,38.5721201 C16.7102888,38.8017686 16.8265607,38.858959 17.0546151,38.9595964 C16.1343167,38.3690719 16.6276864,38.6634475 17.5520252,39.1311678 C18.4682834,39.6170649 19.8572606,40.197836 20.5917037,40.4212778 C21.6552096,40.7715138 22.332639,40.9670253 22.8129899,41.099583 C23.2897494,41.2454408 23.5667368,41.3345515 23.845071,41.4147955 C24.4008415,41.5690767 24.9364103,41.8200053 27.1527583,42 C26.8165127,41.9348295 26.8317762,41.9166527 27.0643199,41.9272928 C27.2941701,41.952563 27.7628489,41.9485729 28.2997645,41.8962592 C28.8380268,41.8368521 29.4768486,41.7189245 30.0034389,41.4232189 C30.5425992,41.1434734 30.8761512,40.6318627 30.9421434,40.2669966 C31.0256436,39.9597642 31.0072376,39.6862254 30.9592026,39.4583503 C30.9111675,39.2291452 30.8330543,39.0385104 30.7410245,38.8713724 Z" id="Fill-5"></path>
                    <path d="M24,29 C23.4837905,28.4674916 23.0031172,27.9600082 23,28.0024925 C23.2412718,28.2713656 23.611596,28.681077 23.8709476,28.9569337 L23.6165835,28.6770031 C23.3634663,28.3790312 23.8721945,28.8993181 24,29" id="Fill-7"></path>
                    <path d="M31,12 C30.737169,11.2990127 30.4723766,10.8255759 30.1990847,10.3812882 C29.8891795,9.94593324 29.6080418,9.51716032 29,9 C29.6152337,9.51480959 30.0232102,10.132111 30.3259235,10.6723084 C30.6371363,11.2139163 30.8352403,11.6925247 31,12" id="Fill-9"></path>
                    <path d="M23.8212457,3.39811642 C23.8432428,3.37284622 23.8598528,3.32762587 23.886339,3.31964581 L23.9846524,3.37284622 L24.1790346,3.47703036 L24.5386192,3.6716552 C24.7783423,3.8006662 25.0176164,3.93012054 25.2537481,4.05735819 L25.2986401,4.08174171 L23.8894815,3.3568861 C23.4836582,3.95317405 23.1137484,4.58936231 22.7900774,5.26013084 C22.6455253,5.53145295 22.507707,5.80632174 22.3838052,6.08828393 C22.6859281,5.22422057 23.1761483,4.31405018 23.8212457,3.39811642 M25.1976332,8.68003067 C25.2784387,8.67515397 25.3538572,8.67116394 25.4301735,8.66673057 C25.2398316,8.67648398 25.0494897,8.68579405 24.8429867,8.71195092 C24.7760977,8.16354334 24.7612833,7.59474227 24.8156026,7.01308443 C24.8322126,6.82023293 24.8600456,6.62605143 24.8901233,6.43186992 C24.8901233,6.43585995 24.8892254,6.44295334 24.8892254,6.4460567 C24.807522,6.97229744 24.7680171,7.60183565 24.8066242,8.20078363 C24.8160515,8.3524048 24.8281723,8.49427257 24.8434356,8.63525366 C24.8223364,8.73988114 24.9332195,8.68712406 24.9924769,8.69333078 C25.0625084,8.68889741 25.1307442,8.68446404 25.1976332,8.68003067 M27.967467,9.16016439 C28.2722834,9.34769585 28.5191892,9.52547389 28.6300724,9.63586475 C28.749485,9.73650219 28.7683396,9.73428551 28.6188494,9.55828081 C29.2311757,10.1177718 29.6639342,10.9073546 29.9768311,11.7523545 C30.2928705,12.6009011 30.5065562,13.5141748 30.7130593,14.4349853 C31.1116998,16.2788229 31.5336843,18.1630041 32.1334408,19.8317237 C32.1612739,19.9891083 32.2779929,20.3433344 32.4014458,20.7086439 C32.5419577,21.06819 32.6936925,21.4379329 32.7610304,21.6400944 C32.6761846,21.4787198 32.7444204,21.6804381 32.8377957,21.9446668 C32.8611395,22.0058473 32.8871768,22.0696877 32.9127652,22.1326416 C31.76398,19.5338014 31.2324592,17.1167294 30.7889267,15.0937837 C30.1326062,12.0994872 29.5368899,9.43724987 27.0319186,8.79840159 C27.3609767,8.87953222 27.6958707,8.99790314 27.967467,9.16016439 M47.7401304,36.8713724 C47.5560733,36.5362098 47.3405919,36.2724245 47.0151252,35.9780488 C46.8786537,35.8720914 46.6110976,35.6818999 46.3471329,35.5391454 C46.0876574,35.3861943 45.83312,35.2815668 45.765782,35.2545232 C45.8856436,35.3600374 46.1092055,35.5116586 46.3906781,35.7271202 C46.1909089,35.6025426 45.9700404,35.4775216 45.715503,35.3551607 C39.5096386,31.7761029 36.046224,27.9022263 33.9834385,24.2602147 C34.8529957,25.7569196 35.8971827,27.2154976 37.1047764,28.5517146 C38.7460264,30.3822522 40.6669533,31.9787079 42.6390571,33.3109348 C43.8138796,34.0836708 44.649319,34.5460711 45.7814942,35.2443265 C44.2560654,34.2508088 41.7376265,32.6122361 39.6537418,30.7094347 C38.8178535,30.0142826 39.2631818,30.4429893 39.8957095,31.0317405 C40.540358,31.6054183 41.4229339,32.2779602 41.3156421,32.2229864 C41.4265253,32.3426873 40.9008404,31.9201874 40.4828963,31.6032016 C39.9985121,31.2334587 39.5720384,30.7892353 39.2308596,30.4695895 C38.8946188,30.143737 38.6706079,29.9127585 38.6683633,29.8764049 L38.1121519,29.3794244 C37.6695172,28.9250042 37.2170063,28.4648206 36.8102851,27.9470033 C36.5997418,27.693858 36.3874029,27.4380527 36.1728193,27.179144 C35.9766414,26.9064919 35.778219,26.6307364 35.5775519,26.3514343 C35.1573632,25.8052434 34.8148375,25.1881186 34.4242775,24.5803039 C34.0822008,23.9441156 33.7024148,23.3043806 33.3967006,22.6034652 C33.6018568,22.9918282 33.7500003,23.2720171 33.94124,23.5969829 C34.0319218,23.7632342 34.1279906,23.9392389 34.2442607,24.1520405 C34.3520014,24.3675022 34.4893708,24.6091208 34.6698365,24.8955163 C35.3351354,25.7773131 35.02987,25.3193463 34.5010428,24.5253301 C34.2559327,24.1165736 33.9713176,23.6124997 33.718127,23.1536461 C33.4932183,22.6801625 33.299285,22.2510125 33.215337,22.0045172 C33.2306003,22.0891946 33.0896396,21.7996957 32.9262328,21.3891658 C32.752501,20.982626 32.5477936,20.4590453 32.4270342,20.0817657 C32.4934743,20.3043207 32.5522828,20.5304225 32.6268035,20.7507609 L33.0402584,21.6884181 C33.9044286,23.6599367 32.858446,21.5948741 32.8225324,21.4911333 C32.5356728,20.8230248 32.3619409,20.2950107 32.221878,19.8401471 C32.0701432,19.3892736 31.9906844,18.998694 31.886984,18.6041242 C31.6930507,17.8096647 31.5103404,16.9659949 31.1440221,15.352249 C31.088356,15.266685 31.2037284,15.7858324 31.1224739,15.5632773 C30.9025033,14.6730571 30.9222558,14.8441851 30.5864639,13.3944739 C30.4230572,12.6461214 30.2210434,11.9780129 29.9139824,11.3099044 C29.6001876,10.652436 29.2195038,9.9524072 28.5025792,9.34015912 C28.3539868,9.21114812 28.3849623,9.21779817 28.5151489,9.30025881 C28.643091,9.38271945 28.8428602,9.5737976 29.0426295,9.77950586 C29.4300471,10.2068825 29.7169067,10.7610535 29.6639342,10.6001222 C29.5211777,10.3460902 29.3811148,10.0893983 29.1925686,9.85620312 C29.0493633,9.65315488 28.8356775,9.47404683 28.6368061,9.2723286 C28.4051636,9.10519063 28.1780103,8.9118958 27.9104543,8.7948549 C27.398237,8.51377939 26.8442702,8.41934865 26.4460786,8.38964509 L26.4164499,8.35462149 C26.069435,8.34531141 25.6609182,8.31427784 25.2474632,8.36703492 L25.1689023,8.37368497 L25.1590261,8.37545831 L25.1406204,8.37811833 C25.1231125,8.38565506 25.1213168,8.37235496 25.1208679,8.35816818 L25.1177255,8.33866136 L25.1074003,8.21053704 C25.1024622,8.11388962 25.0970752,8.01724221 25.0921371,7.9219248 C25.0629573,7.15849889 25.170698,6.45891347 25.2146921,6.09848067 C25.3179436,5.59884014 25.4584555,5.09875626 25.6281471,4.60177574 L25.7318475,4.30695679 L25.7915538,4.13804548 L25.8211825,4.0538115 C25.8279163,4.02676796 25.7767394,4.02233459 25.7574359,4.00548779 L25.2111008,3.72352561 C24.9691331,3.59894797 24.7262676,3.47348367 24.4820553,3.34801936 L23.9649,3.08334731 L23.8010443,3 C23.7619883,3.03103357 23.7319107,3.09576074 23.696895,3.1423111 L23.4939833,3.44688346 C23.3251896,3.70667881 23.1905137,3.92657385 23.0459616,4.17617245 C22.7653868,4.66339955 22.5112983,5.16969014 22.2931234,5.69415754 C22.0758463,6.21862494 21.8931361,6.75905246 21.753971,7.31233674 C21.6843885,7.58897889 21.62558,7.86828105 21.5775456,8.14891323 L21.5133501,8.57141317 L21.4882106,8.78332814 L21.4810279,8.85913873 C21.5048206,8.88396559 21.0922635,8.96642623 20.8525405,9.07859043 C20.5769038,9.17435117 20.3165305,9.30557885 20.0561571,9.43370318 C19.5457355,9.71300534 19.0725743,10.0596947 18.6649553,10.4697812 L18.34308,10.784107 L18.0512822,11.127693 C17.6688027,11.6854106 17.4856435,12.117664 17.3774539,12.4342064 C17.2566945,12.7480889 17.2337996,12.9573438 17.192499,13.1138417 C17.1498517,13.4352608 17.1233654,13.578902 17.0784735,14.1782933 C17.0367239,14.4602555 17.0286434,14.3494213 17.0035039,14.5001558 C16.9842004,15.8461262 17.0506405,14.054159 17.0573742,14.5799564 C16.9671414,15.9516403 17.3891258,17.6443001 17.5870994,18.4808766 L17.8129059,18.8621462 C17.6638646,18.3150687 17.5776721,17.8176448 17.5399628,17.4789355 C17.6854128,18.1231038 17.8842841,18.7872223 18.1289453,19.4650842 C18.2465622,19.8605406 18.4369041,20.4581586 18.1814689,19.8459105 C18.6842588,21.1905509 18.9863817,21.7717654 19.1785193,22.2057921 C19.3890626,22.6318388 19.4882738,22.916461 19.8177808,23.570826 C20.7313322,25.0462508 20.5607427,24.5811905 20.8547851,24.9801936 C21.9164799,26.4742385 22.7389006,27.6703611 23.8131652,28.8514103 C23.3682858,28.4386638 23.7781494,28.9657912 24.4946251,29.7411872 C25.215141,30.5125932 26.2525942,31.5185243 26.9717634,32.1312157 C27.8817234,32.9442953 28.0819415,33.026756 28.2655496,33.1535503 C28.4545448,33.2750246 28.6592521,33.4040356 29.6836866,34.1838649 C30.1905169,34.5771047 29.6361012,34.2295286 29.1490234,33.8739725 C28.6565586,33.5259532 28.2035987,33.2076374 28.8567767,33.7493949 C29.1804478,33.9803734 29.4933447,34.2242086 29.8264431,34.4405569 C30.1402379,34.626315 30.4481967,34.8089698 30.7584001,34.9933979 C31.0757863,35.1667426 31.40664,35.3511706 31.7967511,35.5830358 C32.2568937,35.8632246 32.9549637,36.2733111 32.9616975,36.3030147 C32.0445548,35.7736706 32.2847267,35.9988857 33.2431701,36.5721201 C33.7100464,36.8017686 33.8263166,36.858959 34.0552656,36.9595964 C33.1345315,36.3690719 33.6278942,36.6634475 34.5517707,37.1311678 C35.4675666,37.6170649 36.8574217,38.197836 37.592303,38.4212778 C38.6553446,38.7715138 39.3327643,38.966582 39.8131083,39.099583 C40.2898609,39.2454408 40.5672932,39.3345515 40.8451744,39.4147955 C41.4004879,39.5690767 41.9364979,39.8200053 44.152365,40 C43.8156753,39.9348295 43.8313875,39.9166527 44.0643768,39.9272928 C44.2942236,39.952563 44.7624467,39.9481296 45.2993546,39.8962592 C45.8376092,39.8368521 46.4768707,39.7189245 47.0039023,39.4232189 C47.5430547,39.14303 47.8752552,38.6318627 47.9416953,38.2669966 C48.0260922,37.9597642 48.0067886,37.6862254 47.9596521,37.4583503 C47.9102709,37.2291452 47.8321589,37.0380671 47.7401304,36.8713724" id="Fill-11"></path>
                    <path d="M41,26 C40.4841121,25.4674916 40.0031153,24.9600082 40,25.0024925 C40.2417445,25.2713656 40.611838,25.681077 40.871028,25.9569337 L40.6168224,25.6770031 C40.3638629,25.3796132 40.8722741,25.8993181 41,26" id="Fill-13"></path>
                    <path d="M40.8215305,0.398116418 C40.8435275,0.372846222 40.8601375,0.327625872 40.8866237,0.320089147 L40.9844879,0.372846222 L41.1793185,0.477030363 L41.5389022,0.671655204 C41.7781758,0.80110954 42.0174493,0.93012054 42.2540293,1.05780153 L42.2989212,1.08174171 L40.8893172,0.356886098 C40.4839438,0.953174052 40.1135861,1.58936231 39.7903648,2.26013084 C39.645813,2.53145295 39.5075462,2.80632174 39.3836447,3.08828393 C39.6857668,2.22422057 40.1764347,1.31405018 40.8215305,0.398116418 M42.1979145,5.68003067 C42.2787199,5.67515397 42.3536892,5.67116394 42.4304543,5.66673057 C42.2401129,5.67648398 42.0493225,5.68579405 41.84282,5.71195092 C41.7763801,5.16354334 41.7615658,4.59474227 41.815436,4.01308443 C41.8324949,3.82023293 41.8598789,3.62649476 41.8899565,3.43186992 C41.8899565,3.43585995 41.8890586,3.44295334 41.8895076,3.4460567 C41.8078044,3.97229744 41.7678506,4.60183565 41.8069066,5.20078363 C41.8158849,5.3524048 41.8280057,5.49427257 41.8432689,5.63525366 C41.8226187,5.73988114 41.9330526,5.68712406 41.9927588,5.69333078 C42.0623412,5.68889741 42.1305768,5.68446404 42.1979145,5.68003067 M44.9677415,6.16016439 C45.2721082,6.34769585 45.5194623,6.52547389 45.6298962,6.63586475 C45.7493086,6.73650219 45.768612,6.73428551 45.6186733,6.55828081 C46.2309981,7.11821515 46.6637555,7.9073546 46.9766516,8.75235448 C47.2931392,9.60090105 47.5063754,10.5141748 47.7133269,11.4349853 C48.1119665,13.2788229 48.5335009,15.1630041 49.1337049,16.8317237 C49.1615378,16.9891083 49.2782566,17.3433344 49.4017092,17.7086439 C49.5417718,18.06819 49.6939551,18.4379329 49.7612929,18.6405378 C49.6764473,18.4787198 49.7446829,18.6804381 49.8376091,18.9446668 C49.8614017,19.0058473 49.8869901,19.0696877 49.9130274,19.1326416 C48.764245,16.5338014 48.2322766,14.1167294 47.7891941,12.0937837 C47.1328753,9.09948717 46.5367115,6.43724987 44.0317465,5.79840159 C44.3612526,5.87953222 44.6961458,5.99790314 44.9677415,6.16016439 M64.9594277,34.4583503 C64.9104956,34.2291452 64.8323838,34.0380671 64.7403555,33.8713724 C64.5562989,33.5362098 64.3408181,33.2724245 64.0153522,32.9780488 C63.878432,32.8725347 63.6113255,32.6818999 63.3469126,32.5391454 C63.0878866,32.3861943 62.8329009,32.2815668 62.7660121,32.2545232 C62.8858733,32.3600374 63.1094347,32.5116586 63.3909066,32.7271202 C63.1911379,32.6025426 62.969821,32.4775216 62.7157332,32.3551607 C56.5098843,28.7761029 53.0460294,24.9022263 50.9836979,21.2602147 C51.853253,22.7569196 52.8974373,24.2154976 54.1045791,25.5517146 C55.745825,27.3822522 57.6671961,28.9787079 59.6392949,30.3109348 C60.8141146,31.0836708 61.6495518,31.5460711 62.7812753,32.2443265 C61.2558503,31.2508088 58.7378666,29.6122361 56.6535382,27.7094347 C55.817652,27.0142826 56.2629791,27.4429893 56.8959542,28.0317405 C57.5401522,28.6054183 58.4231748,29.2779602 58.3154344,29.2229864 C58.4267661,29.3431307 57.9006337,28.9201874 57.4831395,28.6032016 C56.9983076,28.2339021 56.5722839,27.7892353 56.230657,27.4695895 C55.894417,27.143737 55.6704067,26.9127585 55.6681621,26.8764049 L55.1119522,26.3794244 C54.6697675,25.9250042 54.2172576,25.4648206 53.8100886,24.9470033 C53.5999947,24.693858 53.3876563,24.4380527 53.1730733,24.179144 C52.976447,23.9064919 52.7784739,23.6307364 52.5773585,23.3514343 C52.1576197,22.8052434 51.814646,22.1885619 51.4245358,21.5803039 C51.08246,20.9441156 50.702226,20.3043806 50.3965125,19.6034652 C50.6021172,19.9918282 50.7502603,20.2720171 50.9414996,20.5969829 C51.0317322,20.7632342 51.1282497,20.9392389 51.2440706,21.1520405 C51.3518111,21.3675022 51.489629,21.6091208 51.6700942,21.8955163 C52.3349425,22.7773131 52.0296779,22.3193463 51.500852,21.5253301 C51.2557425,21.1165736 50.9711282,20.6124997 50.7179382,20.1536461 C50.49303,19.6801625 50.2995462,19.2514558 50.2151495,19.0045172 C50.2304127,19.0891946 50.0899012,18.7996957 49.926046,18.3891658 C49.7527635,17.982626 49.5480566,17.4590453 49.4268487,17.0817657 C49.4937375,17.3043207 49.5525458,17.5304225 49.6266174,17.7507609 L50.0400713,18.6884181 C50.9042393,20.6603801 49.8587082,18.5948741 49.8223458,18.4911333 C49.5359358,17.8230248 49.3622044,17.2950107 49.2221418,16.8401471 C49.0704074,16.3892736 48.9904999,15.998694 48.8867997,15.6041242 C48.692867,14.8096647 48.5101571,13.9659949 48.1438397,12.352249 C48.0881738,12.266685 48.2039947,12.7858324 48.1227405,12.5632773 C47.9023215,11.6730571 47.9225229,11.8441851 47.5867318,10.3944739 C47.4228766,9.6461214 47.2213122,8.97801289 46.9138031,8.30990438 C46.600458,7.65243596 46.2197751,6.9524072 45.5024034,6.34015912 C45.3538114,6.21114812 45.3852357,6.21779817 45.5149731,6.30025881 C45.6429149,6.38271945 45.8431325,6.5737976 46.0429012,6.77950586 C46.4303179,7.2068825 46.7171768,7.76105346 46.6637555,7.60012222 C46.5214483,7.34609025 46.3809368,7.08939826 46.19284,6.85620312 C46.049635,6.65315488 45.8355009,6.47404683 45.6370789,6.2723286 C45.405437,6.10519063 45.1782843,5.9118958 44.9107289,5.7948549 C44.398064,5.51377939 43.8440986,5.41979199 43.4459079,5.38964509 L43.4167282,5.35462149 C43.0692653,5.34531141 42.6611984,5.31427784 42.2472956,5.36703492 L42.1691838,5.37368497 L42.1593076,5.37545831 L42.1409019,5.37811833 C42.1229452,5.38565506 42.1215984,5.37235496 42.1211495,5.35816818 L42.1175581,5.33866136 L42.107233,5.21053704 C42.1027438,5.11388962 42.0973568,5.01724221 42.0919698,4.9219248 C42.063239,4.15849889 42.1709794,3.45891347 42.2145245,3.09848067 C42.3182247,2.59884014 42.4582873,2.09875626 42.6279784,1.60177574 L42.7316786,1.30695679 L42.7918337,1.13804548 L42.8214623,1.0538115 C42.8277472,1.02676796 42.7765704,1.02233459 42.757267,1.00593113 L42.2113821,0.723525606 C41.969415,0.598947974 41.7261012,0.473483668 41.4818896,0.348019363 L40.9647355,0.0833473124 L40.8013292,0 C40.7618244,0.0310335738 40.7321957,0.0957607419 40.6971801,0.142311103 L40.4942689,0.446883462 C40.3254756,0.706678809 40.1903511,0.926573846 40.0462483,1.17617245 C39.7656743,1.66339955 39.5111375,2.16969014 39.293412,2.69415754 C39.0756866,3.21862494 38.8934257,3.75905246 38.754261,4.31278008 C38.6842297,4.58897889 38.6258703,4.86828105 38.5773871,5.14891323 L38.5136407,5.57141317 L38.4885012,5.78377148 L38.4813185,5.85913873 C38.5051112,5.88396559 38.0921062,5.96642623 37.8528327,6.07859043 C37.5771967,6.17435117 37.316824,6.30557885 37.0560024,6.43370318 C36.5455821,6.71344868 36.0728709,7.0596947 35.665253,7.46978121 L35.3433784,7.78410698 L35.0511325,8.12769297 C34.6691029,8.68585396 34.4854952,9.11766397 34.3777548,9.43420643 C34.2569957,9.74808886 34.233652,9.95734381 34.1923515,10.114285 C34.1501531,10.4352608 34.1236669,10.578902 34.0787751,11.1782933 C34.0370257,11.4602555 34.0284962,11.3494213 34.0033568,11.5001558 C33.9845022,12.8461262 34.0509422,11.054159 34.057227,11.5799564 C33.9674433,12.9516403 34.3889778,14.6443001 34.5873997,15.4808766 L34.8127568,15.8621462 C34.6637159,15.3150687 34.5779724,14.8176448 34.5402633,14.4789355 C34.6857129,15.1231038 34.8845838,15.7872223 35.1292443,16.4650842 C35.246861,16.8605406 35.4372024,17.4581586 35.1817678,16.8459105 C35.6845565,18.1905509 35.9866786,18.7717654 36.1788157,19.2057921 C36.3893585,19.6318388 36.4881205,19.916461 36.8176267,20.570826 C37.7311758,22.0462508 37.5605868,21.5811905 37.8546283,21.9801936 C38.9163205,23.4742385 39.7387392,24.6708045 40.81345,25.8518536 C40.3681229,25.4391071 40.7784343,25.9657912 41.4949082,26.7411872 C42.2149734,27.5130365 43.252424,28.5185243 43.9720403,29.1312157 C44.8815492,29.9442953 45.0817668,30.026756 45.2658234,30.1535503 C45.4543691,30.2750246 45.6590759,30.4040356 46.6839568,31.1843083 C47.1907858,31.5771047 46.6359225,31.2295286 46.148846,30.8739725 C45.6568313,30.5259532 45.2038726,30.2076374 45.857049,30.7493949 C46.1802703,30.9803734 46.4931665,31.2242086 46.8267129,31.4405569 C47.140058,31.626315 47.448465,31.8089698 47.7586676,31.9933979 C48.076053,32.1667426 48.406457,32.3511706 48.797016,32.5830358 C49.2571575,32.8632246 49.9547768,33.2737545 49.9615106,33.3030147 C49.044819,32.7736706 49.2845415,32.9988857 50.2434314,33.5725634 C50.7098576,33.8017686 50.8265764,33.858959 51.0550759,33.9595964 C50.1343442,33.3690719 50.6277056,33.6634475 51.5515798,34.1311678 C52.4678224,34.6170649 53.857225,35.197836 54.5921046,35.4217211 C55.6551435,35.7715138 56.3330104,35.966582 56.8129042,36.099583 C57.2896556,36.2454408 57.5670873,36.3345515 57.8454167,36.4147955 C58.4002799,36.5690767 58.9362886,36.8204486 61.1525991,37 C60.8159102,36.9348295 60.8316224,36.9166527 61.0641621,36.9272928 C61.2940084,36.952563 61.7626793,36.9481296 62.2995858,36.8962592 C62.837839,36.8368521 63.4770989,36.7189245 64.0036803,36.4232189 C64.5428314,36.14303 64.8754799,35.6318627 64.9419199,35.2669966 C65.0258676,34.9597642 65.0070131,34.6862254 64.9594277,34.4583503" id="Fill-15"></path>
                </g>
            </g>
        </g>
    </g>
</svg>