<?xml version="1.0" encoding="UTF-8"?>
<svg width="66px" height="43px" viewBox="0 0 66 43" version="1.1" xmlns="http://www.w3.org/2000/svg" xmlns:xlink="http://www.w3.org/1999/xlink">
    <!-- Generator: Sketch 52.5 (67469) - http://www.bohemiancoding.com/sketch -->
    <title>Group 27</title>
    <desc>Created with Sketch.</desc>
    <g id="2---Fast,-Healthy,-(Vegan)" stroke="none" stroke-width="1" fill="none" fill-rule="evenodd">
        <g id="Suncraft_MENU-Copy-2" transform="translate(-993.000000, -4415.000000)" fill="#FFFFFF">
            <g id="Group-25-Copy" transform="translate(915.000000, 4193.000000)">
                <g id="Group-27" transform="translate(78.000000, 222.000000)">
                    <path d="M7,32.5 C6.48379052,31.9675256 6.00374065,31.4594926 6,31.5025561 C6.24127182,31.771412 6.61159601,32.1810973 6.87157107,32.4569365 L6.61658354,32.1770237 C6.36346633,31.8790708 6.87281796,32.3993245 7,32.5" id="Fill-1"></path>
                    <path d="M14,15.5 C13.8685845,14.7990127 13.7361883,14.3260461 13.5998692,13.8812882 C13.4445897,13.4464034 13.3040209,13.0176305 13,12.5 C13.3079438,13.0148096 13.511932,13.632111 13.6629618,14.1723084 C13.8185682,14.7143865 13.9176201,15.1929948 14,15.5" id="Fill-3"></path>
                    <path d="M7.04092445,5.89811642 C7.06409483,5.87284622 7.0807775,5.82762587 7.10811855,5.81964581 L7.21006822,5.87240289 L7.4107237,5.97703036 L7.78144976,6.1716552 C8.02937282,6.3006662 8.27636906,6.43012054 8.51965803,6.55735819 L8.5664622,6.58174171 L7.11136241,5.8568861 C6.69244195,6.45317405 6.31059411,7.08936231 5.97694065,7.76013084 C5.82772341,8.03145295 5.68499388,8.30632174 5.5575568,8.58828393 C5.86896669,7.72422057 6.37547117,6.81405018 7.04092445,5.89811642 M8.46219549,11.1800307 C8.54514545,11.175154 8.62299792,11.1711639 8.70224062,11.1667306 C8.5052924,11.176484 8.30880759,11.1857941 8.09610351,11.2119509 C8.02705578,10.6635433 8.01129992,10.0947423 8.06737224,9.51308443 C8.08451832,9.32023293 8.11324959,9.12605143 8.1442979,8.93186992 C8.1442979,8.93585995 8.14337108,8.94295334 8.14337108,8.9460567 C8.0590309,9.47229744 8.01825103,10.1018357 8.05856749,10.7007836 C8.06829905,10.8524048 8.08081106,10.9942726 8.09610351,11.1352537 C8.07478676,11.2398811 8.18878502,11.1871241 8.25041823,11.1933308 C8.32270981,11.1888974 8.39314777,11.184464 8.46219549,11.1800307 M11.3209568,11.6601644 C11.636074,11.8476958 11.8909482,12.0250306 12.0054098,12.1358647 C12.1286762,12.2365022 12.1481394,12.2342855 11.9938246,12.0582808 C12.6254492,12.6177718 13.0726375,13.4073546 13.3956326,14.2523545 C13.7214081,15.1009011 13.9424535,16.0141748 14.1551576,16.9349853 C14.5666635,18.7788229 15.0022666,20.6630041 15.6218426,22.3312804 C15.6501104,22.4891083 15.7705964,22.8433344 15.8984969,23.2086439 C16.0430801,23.56819 16.1997118,23.9379329 16.2696864,24.1400944 C16.1821023,23.9782765 16.2520769,24.1804381 16.3489291,24.4446668 C16.3730263,24.5054039 16.3994405,24.5692444 16.4258547,24.6326416 C15.2399947,22.0338014 14.6917836,19.6167294 14.2334735,17.5937837 C13.556435,14.5994872 12.9410297,11.9372499 10.3552154,11.2984016 C10.6953566,11.3795322 11.0410587,11.4979031 11.3209568,11.6601644 M31.732207,39.3713724 C31.5422099,39.0362098 31.3193109,38.7724245 30.9838038,38.4780488 C30.8429279,38.3720914 30.566737,38.1814565 30.2937899,38.0391454 C30.0259403,37.8861943 29.7631882,37.7815668 29.6936771,37.7545232 C29.8174069,37.8600374 30.0486473,38.0116586 30.3392038,38.2271202 C30.1325241,38.1025426 29.9045275,37.9775216 29.6422388,37.8551607 C23.2360925,34.2756596 19.6604396,30.4017829 17.5310818,26.7602147 C18.4287023,28.2569196 19.5070517,29.7154976 20.7531547,31.0517146 C22.4473728,32.8822522 24.4302938,34.4787079 26.4660433,35.8109348 C27.6792443,36.5836708 28.5416458,37.0460711 29.7098963,37.7443265 C28.1352374,36.7508088 25.5355209,35.1122361 23.3843829,33.2094347 C22.521518,32.5142826 22.9812183,32.9429893 23.6341596,33.5317405 C24.3000763,34.1054183 25.2111356,34.7779602 25.1003812,34.7229864 C25.2143794,34.8426873 24.6721926,34.4201874 24.2407601,34.1032016 C23.7407433,33.7334587 23.3005061,33.2892353 22.947853,32.9695895 C22.6012241,32.643737 22.3695203,32.4123152 22.3676667,32.3764049 L21.7930413,31.8794244 C21.3365848,31.4250042 20.86947,30.9643773 20.4491593,30.4470033 C20.2322846,30.193858 20.0130928,29.9380527 19.7911205,29.679144 C19.5890748,29.4064919 19.3837853,29.1307364 19.1761787,28.8514343 C18.7428926,28.3052434 18.389776,27.6881186 17.9866114,27.0798605 C17.6334949,26.4441156 17.2414521,25.8043806 16.9254081,25.1034652 C17.1371854,25.4918282 17.2901099,25.7720171 17.4879849,26.0969829 C17.5815932,26.2632342 17.6807624,26.4392389 17.800785,26.6520405 C17.9120028,26.8675022 18.0538055,27.1091208 18.239632,27.3955163 C18.926402,28.2773131 18.6117483,27.8193463 18.0658541,27.0248868 C17.8123702,26.6165736 17.5190332,26.1124997 17.2576713,25.6536461 C17.0250407,25.1801625 16.8248486,24.7510125 16.7381914,24.5045172 C16.7544107,24.5891946 16.6089007,24.2996957 16.4402204,23.8891658 C16.2604182,23.482626 16.0491044,22.9590453 15.9244477,22.5817657 C15.9934954,22.8043207 16.0542018,23.0304225 16.1306641,23.2507609 L16.5579259,24.1884181 C17.4495221,26.1599367 16.3702458,24.0948741 16.3327098,23.9911333 C16.0370558,23.3230248 15.8572536,22.7950107 15.7131339,22.3401471 C15.5565021,21.8892736 15.474479,21.498694 15.3669684,21.1041242 C15.1667763,20.3096647 14.9786329,19.4659949 14.6000289,17.852249 C14.5421029,17.766685 14.6616621,18.2858324 14.5782487,18.0632773 C14.351179,17.1730571 14.3715689,17.3441851 14.0249401,15.8944739 C13.8562597,15.1461214 13.6472629,14.4775696 13.3302921,13.8099044 C13.0063702,13.1519926 12.6134006,12.4524072 11.8733387,11.8401591 C11.7204142,11.7111481 11.7519259,11.7177982 11.8867775,11.8002588 C12.0188487,11.8827195 12.225065,12.0737976 12.4312814,12.2790625 C12.8312021,12.7068825 13.1268562,13.2610535 13.0726375,13.1001222 C12.9248105,12.8460902 12.7802273,12.5893983 12.5860595,12.3562031 C12.4377691,12.1531549 12.2171871,11.9736035 12.0118975,11.7723286 C11.7732426,11.6051906 11.538295,11.4118958 11.2621041,11.2948549 C10.7338194,11.0137794 10.1615111,10.9193487 9.75093197,10.8896451 L9.71988366,10.8546215 C9.3616696,10.8453114 8.93996871,10.8142778 8.51363374,10.8670349 L8.43253741,10.873685 L8.42234244,10.8754583 L8.40287932,10.8781183 C8.38480643,10.8856551 8.3829528,10.872355 8.38248939,10.8581682 L8.37970895,10.8386614 L8.36858716,10.710537 C8.36348968,10.6134463 8.3583922,10.5172422 8.35329471,10.4219248 C8.32317322,9.65849889 8.43392763,8.95891347 8.47934157,8.59848067 C8.58592532,8.09884014 8.7314353,7.59875626 8.90613995,7.10177574 L9.0131871,6.80695679 L9.07482031,6.63804548 L9.10540521,6.5538115 C9.11281973,6.52676796 9.05999127,6.52233459 9.04006474,6.50548779 L8.47609772,6.22352561 C8.22585763,6.09894797 7.97515413,5.97348367 7.72352382,5.84801936 L7.18921488,5.58334731 L7.02053452,5.5 C6.98021806,5.53103357 6.94916975,5.59576074 6.91302396,5.6423111 L6.70310033,5.94688346 C6.52885908,6.20667881 6.39030021,6.42657385 6.24061957,6.67617245 C5.95145324,7.16339955 5.68870114,7.66969014 5.46394847,8.19415754 C5.2396592,8.71862494 5.05058891,9.25905246 4.90693256,9.81233674 C4.83510438,10.0889789 4.77439799,10.3682811 4.72481338,10.6489132 L4.6590095,11.0714132 L4.63259527,11.2833281 L4.62564416,11.3591387 C4.65020476,11.3839656 4.2243332,11.4664262 3.97641014,11.5785904 C3.6923413,11.6743512 3.4235649,11.8051355 3.1543251,11.9337032 C2.62789409,12.2130053 2.1394625,12.5596947 1.71868842,12.9697812 L1.38642519,13.2836636 L1.08521026,13.627693 C0.690387007,14.1854106 0.500853308,14.617664 0.389172082,14.9342064 C0.264515443,15.2480889 0.240881657,15.4573438 0.19824816,15.6138417 C0.154687847,15.9352608 0.1273468,16.078902 0.0805426349,16.6782933 C0.0374457302,16.9602555 0.0291043938,16.8489779 0.00361697702,17.0001558 C-0.0163095488,18.3461262 0.0522747727,16.5537156 0.0592258864,17.0799564 C-0.0339190368,18.4516403 0.401220679,20.1443001 0.605583421,20.9808766 L0.83914084,21.3621462 C0.685289524,20.8150687 0.595851861,20.3176448 0.556925625,19.9784922 C0.707533088,20.6231038 0.912359237,21.2872223 1.16491637,21.9650842 C1.28679256,22.3605406 1.48327737,22.9581586 1.21959846,22.3459105 C1.73815154,23.6905509 2.05048825,24.2717654 2.24882669,24.7057921 C2.46570144,25.1318388 2.56811451,25.416461 2.90825567,26.070826 C3.8512901,27.5462508 3.67565862,27.0807472 3.97919059,27.4801936 C5.07514951,28.9742385 5.92411219,30.1703611 7.03304652,31.3514103 C6.57380961,30.9386638 6.99643733,31.4657912 7.73649923,32.2411872 C8.47980498,33.0125932 9.55073989,34.0185243 10.2935822,34.6312157 C11.232446,35.4442953 11.4395892,35.526756 11.6286595,35.6535503 C11.8242175,35.7750246 12.0350679,35.9040356 13.092564,36.6838649 C13.6157512,37.0771047 13.0434428,36.7295286 12.541109,36.3739725 C12.0327509,36.0259532 11.5651726,35.7076374 12.2394307,36.2493949 C12.5730841,36.4803734 12.8960792,36.7242086 13.240391,36.9405569 C13.5638495,37.126315 13.8817471,37.3089698 14.2024252,37.4933979 C14.5295909,37.6662992 14.8715857,37.8511706 15.2738235,38.0830358 C15.7492797,38.3632246 16.469415,38.7733111 16.4763661,38.8025714 C15.5296245,38.2736706 15.7780109,38.4988857 16.7669227,39.0721201 C17.24933,39.3017686 17.3688891,39.358959 17.605227,39.4595964 C16.6547781,38.8690719 17.1645264,39.1634475 18.1182192,39.6311678 C19.0635707,40.1170649 20.4978171,40.697836 21.2564153,40.9212778 C22.3542279,41.2710705 23.0530465,41.466582 23.5488926,41.599583 C24.0414949,41.7454408 24.3274173,41.8345515 24.6142666,41.9147955 C25.1879652,42.0690767 25.7412738,42.3200053 28.0281902,42.5 C27.681098,42.4348295 27.6968538,42.4166527 27.9378258,42.4272928 C28.174627,42.452563 28.6579611,42.4481296 29.21266,42.3962592 C29.7682857,42.3368521 30.4277147,42.2189245 30.9717552,41.9232189 C31.5283077,41.64303 31.8716927,41.1318627 31.9398136,40.7669966 C32.0269342,40.4597642 32.0070077,40.1862254 31.9583499,39.9583503 C31.9078385,39.7291452 31.8272056,39.5380671 31.732207,39.3713724" id="Fill-5"></path>
                    <path d="M31.1547586,21.5 C31.0177517,20.9643132 30.8598069,20.4717537 30.8452414,20.5012619 C30.9176138,20.7611608 31.0223034,21.1600886 31.0873931,21.4358765 L31.0223034,21.1600886 C30.9644966,20.8706815 31.108331,21.3921817 31.1547586,21.5" id="Fill-7"></path>
                    <path d="M25.1037489,26.6688995 C25.4484162,27.0267943 25.7622784,27.3258373 26,27.5 C25.1072363,26.6172249 24.7538506,26.3009569 24,25.5 C24.3760535,25.9014354 24.749782,26.3177033 25.1037489,26.6688995" id="Fill-9"></path>
                    <path d="M25,29.5 C24.4841121,28.9674916 24.0031153,28.4600082 24,28.5024925 C24.2417445,28.7713656 24.611838,29.181077 24.871028,29.4569337 L24.6168224,29.1770031 C24.3638629,28.8790312 24.8722741,29.3993181 25,29.5" id="Fill-11"></path>
                    <path d="M31,12.5 C30.8685845,11.7990127 30.7361883,11.3260461 30.5995423,10.8812882 C30.4445897,10.4464034 30.3040209,10.0176305 30,9.5 C30.30729,10.0152797 30.5116051,10.632111 30.6626348,11.1723084 C30.8185682,11.7143865 30.9172932,12.1929948 31,12.5" id="Fill-13"></path>
                    <path d="M46.4178247,38.3112464 C46.3978986,38.3161231 46.3742652,38.3223298 46.3483149,38.3289798 C46.3019751,38.3374032 46.2514646,38.3467133 46.1977104,38.3560234 C46.0902019,38.3742002 45.9669379,38.388387 45.8483078,38.4003571 C45.6115111,38.4234106 45.3895432,38.4309473 45.3316184,38.4442474 C45.4558092,38.479271 45.6675824,38.516068 45.9609137,38.5280381 C45.9646209,38.5280381 45.9697183,38.5280381 45.9738888,38.5280381 C45.7889928,38.5439982 45.5781464,38.5550816 45.3320818,38.5559683 C40.9691838,38.2434158 36.7392813,36.5999665 32.9927035,34.2538283 C34.1275667,34.9441036 35.3231351,35.6024587 36.5743114,36.1787965 C38.4126137,37.0370965 40.3774238,37.6834815 42.3135032,38.0585444 C43.4655121,38.2354358 44.2458754,38.3365166 45.3422765,38.4282873 C43.843182,38.2713461 41.4108027,37.7787989 39.2217076,36.9861128 C38.3681274,36.7076973 38.831526,36.9236023 39.505771,37.1590141 C39.8435886,37.2716217 40.2282094,37.407726 40.5201506,37.4959501 C40.8144087,37.5797407 41.0108897,37.6373745 40.9617694,37.6320544 C41.0850335,37.6848115 40.5419303,37.5558005 40.1285787,37.4267895 C39.16749,37.1244338 38.2323516,36.7090273 38.2091817,36.6527235 C38.0089935,36.6008531 37.8162196,36.5281459 37.6192752,36.4656354 C35.6855128,35.6543291 33.7285805,34.5482039 31.66692,33.094946 C31.9806409,33.2807041 32.2044624,33.4176951 32.4635023,33.5905965 C32.7276395,33.7550744 33.0288486,33.9519159 33.4936374,34.2631383 C34.3305353,34.6435213 33.9204275,34.4409164 33.2424753,34.0370366 C32.5580356,33.6429102 31.6164096,33.0253421 31.3045423,32.7265331 C31.3981488,32.8329339 30.4199144,32.1333485 29.9185171,31.7166119 L30.3448438,32.1000983 L31.0431855,32.5793453 C32.4611853,33.6482302 30.8689476,32.589542 30.7864627,32.5496417 C29.8221302,31.8398596 29.3610485,31.4053895 28.876797,30.9429893 C28.6321225,30.7142275 28.3842043,30.475269 28.0783612,30.1742433 C27.7646403,29.8803111 27.395775,29.5229816 26.9133771,29.053488 C26.8304287,29.0237844 27.1418326,29.3252534 26.9819601,29.2135326 C26.4337595,28.7054686 26.5106837,28.8207362 25.6895413,27.941156 C24.8971297,26.995962 24.1691305,26.3092334 23.3391836,25.1317309 C23.1969202,24.8648422 23.4300097,25.1822713 23.7066587,25.5214239 C23.9846978,25.8605766 24.2854435,26.2347528 24.2270553,26.1181552 L23.8378005,25.572851 C23.3683777,24.9876465 22.8405666,24.1164897 22.466604,23.6434494 L22.4800425,23.6066524 C22.1843942,23.1770591 21.8104315,22.5931846 21.5008812,22.0390136 C21.1815996,21.4901627 20.9234866,20.9723454 20.7696382,20.7156534 C20.4267233,19.9548875 20.1153194,19.163088 19.8609136,18.342915 C19.6204097,17.5209686 19.4392208,16.671092 19.3803692,15.8105754 C19.3326391,14.9562654 19.4137339,14.0753553 19.8020619,13.3243428 C20.178805,12.5702269 20.8757565,11.9987658 21.6955087,11.6990702 C21.9142328,11.6383331 22.1320302,11.5789259 22.3581687,11.5470057 C22.4207275,11.5328189 22.4805059,11.5190755 22.5375039,11.5062187 C22.5671615,11.4991253 22.5954288,11.4933619 22.5954288,11.4933619 L22.6760601,11.4871552 C22.7895928,11.4774018 22.8938575,11.4685351 22.989781,11.460555 C23.181628,11.4428215 23.3391836,11.4277481 23.4749593,11.4148913 C23.7418769,11.3874044 23.9077736,11.3639076 24.0365985,11.3426274 C24.2951749,11.2996238 24.4082442,11.2628268 24.8971297,11.2074097 C25.1255852,11.1980996 25.0570022,11.2264732 25.1747055,11.2286899 C26.2363517,11.073522 24.8151081,11.2384433 25.2275329,11.1657361 C25.7683191,11.0846054 26.3957608,11.035395 26.9096699,11.1954396 C27.4296031,11.3430708 27.7651037,11.7176903 27.9189521,11.9978792 C28.0069978,12.0696997 28.1043115,12.1401903 28.1821625,12.2275276 C28.0000468,11.8271945 27.7632501,11.501342 27.5542573,11.3115939 C27.9495364,11.5944427 28.2470383,12.0391095 28.5037611,12.6593376 C28.5083951,12.6730811 28.5125657,12.6868245 28.5176631,12.7010113 C28.6233179,13.0144504 28.7243388,13.4524671 28.538516,12.9763234 C28.8772604,14.0633852 28.9597453,14.5785425 29.0338891,14.947842 C29.1038623,15.3189149 29.125642,15.5561001 29.2007126,16.1337679 C29.525555,17.4744183 29.5181407,17.0829519 29.6520629,17.4571281 C30.0357569,18.8704858 30.2530909,20.0120779 30.7039777,21.2104172 C30.4759856,20.7759472 30.6270535,21.2884445 30.9087999,22.086894 C31.0723796,22.4805771 31.2637632,22.9420906 31.4514397,23.3947375 C31.6683102,23.8363009 31.8800834,24.2681109 32.0469069,24.6090369 C32.5093787,25.4757603 32.6321794,25.5994512 32.7424682,25.7435357 C32.8569277,25.8858468 32.9639728,26.0476647 33.5376602,26.9135014 C34.0427647,27.8192384 32.3175317,25.1867047 32.9936303,26.3726305 L33.545538,27.1622133 C33.9134765,27.6552038 34.290683,27.9903664 34.7573254,28.5556208 C35.0075606,28.9120636 35.4510331,29.3961873 35.4436187,29.4227875 C34.8625169,28.7905893 34.9927319,29.018021 35.5641024,29.7176065 C35.8574337,30.0208488 35.9301873,30.0962161 36.0789382,30.2345371 C35.5585416,29.5198783 35.8546533,29.8780944 36.4167558,30.4992092 C37.0085159,31.0946105 37.844487,31.9803973 38.3644202,32.3386134 C39.7555428,33.5090225 40.1494317,33.7772412 40.4789081,34.1155072 C40.6489754,34.2773251 40.8167257,34.4404731 41.1230322,34.695835 C41.4358262,34.9423303 41.9071026,35.2570994 42.6601254,35.7496465 C42.2421398,35.3865537 42.7370495,35.7159529 43.4780239,36.1867766 C44.2412414,36.62967 45.2338413,37.2308347 45.7611889,37.5048168 C46.0786169,37.6542213 46.3154136,37.7969757 46.4891881,37.9273167 C46.6249639,38.0328309 46.7222776,38.1272616 46.7727881,38.2287857 C46.6555482,38.2771094 46.5350646,38.2979463 46.4178247,38.3112464 M22.5198948,24.2645642 C23.0305601,24.9854298 23.6190763,25.7776726 23.3725483,25.3272424 C24.1515213,26.3695272 25.1121466,27.5244195 26.182134,28.6318747 C27.2502679,29.74066 28.4263735,30.8006782 29.5756021,31.6953318 C29.7447426,31.89838 30.5190817,32.4747178 30.7915601,32.6941695 C30.6409555,32.6063888 30.8397535,32.7730835 31.0533803,32.9490882 C27.5718665,30.431822 24.6227977,27.3461981 22.5198948,24.2645642 M20.9299742,21.6307005 C21.1996722,22.1361044 21.5147832,22.6738719 21.7654819,23.1101153 C21.4614924,22.6135781 21.1871604,22.1205876 20.9299742,21.6307005 M20.6422036,21.0800762 C20.6510082,21.0933763 20.6593494,21.1066764 20.6658369,21.1137698 C20.7339565,21.2560809 20.8122709,21.4072587 20.8933657,21.5606533 C20.8099539,21.4006087 20.7200546,21.2392341 20.6422036,21.0800762 M19.1384751,16.2268686 C19.1268902,16.0043135 19.120866,15.7817585 19.1305973,15.5596468 C19.1875954,16.6653287 19.4503424,18.0418893 19.8748155,19.2929857 C19.4790731,18.215234 19.2311548,17.1853627 19.1384751,16.2268686 M24.0416958,3.89767308 C24.0644024,3.87284622 24.0815481,3.82718253 24.1084252,3.81964581 L24.2099095,3.87240289 L24.4110245,3.97703036 L24.7822068,4.17121187 C25.0291983,4.3006662 25.2761898,4.4296772 25.5204008,4.55735819 L25.5667407,4.58129838 L24.111669,3.85644276 C23.6932201,4.45317405 23.3109162,5.08891898 22.9772692,5.76013084 C22.8280549,6.03100961 22.6853281,6.30632174 22.5574301,6.58828393 C22.8692974,5.72377723 23.3753286,4.81405018 24.0416958,3.89767308 M25.462476,9.17958734 C25.5458877,9.17515397 25.6232753,9.1707206 25.7025165,9.16628723 C25.5060355,9.17604064 25.3090911,9.18579405 25.0959277,9.21150758 C25.0273447,8.6631 25.0120525,8.09429893 25.0676604,7.51308443 C25.0852695,7.32023293 25.1135368,7.12605143 25.1445845,6.93186992 C25.1445845,6.93585995 25.1436578,6.94251001 25.1441212,6.94561336 C25.0597826,7.47185411 25.0185401,8.10139232 25.0588558,8.70078363 C25.0681238,8.85196147 25.0806355,8.99382923 25.0963911,9.13525366 C25.0750748,9.23988114 25.1886074,9.18668073 25.2507028,9.19288744 C25.3225296,9.18845407 25.3929662,9.18402071 25.462476,9.17958734 M28.3216454,9.65972106 C28.6358297,9.84725251 28.8911623,10.0250306 29.0051584,10.1354214 C29.127959,10.2365022 29.1478852,10.2338422 28.99311,10.0578375 C29.6256491,10.6177718 30.0723654,11.4069113 30.3953542,12.2519111 C30.7220503,13.1009011 30.9421646,14.0137315 31.155328,14.9345419 C31.5672893,16.7788229 32.0024206,18.6630041 32.6219846,20.3312804 C32.6507153,20.4891083 32.7711989,20.842891 32.8986336,21.2082005 C33.0432139,21.56819 33.2003061,21.9379329 33.2698158,22.1400944 C33.1822335,21.9782765 33.2526701,22.1799947 33.3485936,22.4446668 C33.3731537,22.5054039 33.3995675,22.5692444 33.4264446,22.6321982 C32.2406075,20.0333581 31.6914802,17.616286 31.2336423,15.5933404 C30.5561536,12.5994872 29.9412236,9.93724987 27.3554593,9.29795825 C27.6955939,9.37908888 28.0412893,9.49790314 28.3216454,9.65972106 M48.7320374,37.3709291 C48.542044,37.0362098 48.3196126,36.7719811 47.9836486,36.4780488 C47.8423121,36.371648 47.5665899,36.1814565 47.2936481,36.0387021 C47.0258037,35.8861943 46.7630567,35.7811234 46.6940103,35.7540799 C46.8177377,35.859594 47.0485102,36.0112152 47.3390612,36.2271202 C47.1328488,36.1020993 46.9043933,35.9775216 46.6421096,35.8547173 C40.2360872,32.2756596 36.6605035,28.4017829 34.5316503,24.7602147 C35.4292534,26.2564763 36.5071186,27.7154976 37.7531974,29.0512713 C39.4473828,30.8822522 41.4307288,32.4787079 43.4664389,33.8104915 C44.6791531,34.5836708 45.5415379,35.0460711 46.7097658,35.7438832 C45.134674,34.7508088 42.5359345,33.1117928 40.3839114,31.2089913 C39.5215265,30.5142826 39.981218,30.9429893 40.63461,31.5312972 C41.299587,32.104975 42.2110921,32.7775168 42.0998764,32.7225431 C42.2147993,32.8426873 41.6716961,32.4201874 41.2407354,32.1032016 C40.7402649,31.7334587 40.3004996,31.288792 39.9478533,30.9695895 C39.6007677,30.643737 39.3695318,30.4123152 39.3672148,30.3764049 L38.7930639,29.878981 C38.3366163,29.4250042 37.8695105,28.9643773 37.4492079,28.4465599 C37.2323374,28.193858 37.0131498,27.9380527 36.7916453,27.6787007 C36.5886767,27.4060486 36.3843179,27.1302931 36.1767153,26.8509909 C35.7434376,26.3048 35.3894011,25.6881186 34.9867077,25.0798605 C34.633598,24.4436723 34.2410993,23.8043806 33.9255249,23.1030219 C34.1377614,23.4918282 34.290683,23.7720171 34.4880908,24.0965396 C34.5812339,24.2627909 34.6808646,24.4392389 34.8004215,24.6515972 C34.9116371,24.8670589 35.0539005,25.1086774 35.2401867,25.395073 C35.9264801,26.2768698 35.611369,25.8193463 35.0654855,25.0248868 C34.8124698,24.6161303 34.5186751,24.1124997 34.2573183,23.6532028 C34.0251556,23.1797191 33.8254308,22.7510125 33.7383118,22.5040739 C33.7540674,22.5891946 33.6090236,22.2992523 33.4398831,21.8887225 C33.2605479,21.482626 33.0497015,20.9590453 32.9245839,20.5817657 C32.9936303,20.8043207 33.0543355,21.0304225 33.1307963,21.2507609 L33.5575864,22.1879748 C34.4496287,24.1599367 33.3703733,22.0944307 33.3328381,21.9906899 C33.0371897,21.3225814 32.8578545,20.7945673 32.7132741,20.3397038 C32.5566454,19.8888303 32.4741604,19.4982506 32.3671153,19.1036809 C32.1669271,18.3092214 31.9783239,17.4659949 31.5997272,15.852249 C31.5422658,15.7662417 31.6622861,16.2858324 31.5784109,16.062834 C31.3508822,15.1730571 31.3717351,15.3441851 31.025113,13.8944739 C30.8559725,13.1461214 30.6479065,12.4775696 30.3304784,11.8099044 C30.0070262,11.1519926 29.6140642,10.4524072 28.8735532,9.83971579 C28.7201683,9.71070479 28.7526062,9.71779817 28.8865284,9.79981548 C29.018597,9.88227611 29.2248093,10.0737976 29.4314851,10.2790625 C29.8313981,10.7064392 30.1275098,11.2610535 30.0723654,11.1001222 C29.925468,10.8456469 29.7804243,10.5893983 29.5862603,10.3562031 C29.4384361,10.1527115 29.217395,9.97360349 29.0121094,9.77188526 C28.7734591,9.6047473 28.5389794,9.41145247 28.2627938,9.2948549 C27.7335926,9.01333605 27.1617587,8.91934865 26.7507241,8.88964509 L26.7206032,8.85417815 C26.3619327,8.84531141 25.9407034,8.81427784 25.5134498,8.86659158 L25.4328185,8.87368497 L25.4226237,8.87545831 L25.4036244,8.87811833 C25.3850884,8.88521172 25.3836982,8.87235496 25.3827714,8.85816818 L25.3795276,8.83866136 L25.3688695,8.7100937 C25.3637721,8.61344628 25.3586747,8.51679887 25.3531139,8.42148146 C25.3234564,7.65805555 25.4346721,6.95891347 25.4791583,6.59848067 C25.5866668,6.0983968 25.7312472,5.59875626 25.9064119,5.10177574 L26.013457,4.80695679 L26.0755524,4.63804548 L26.1061367,4.55336816 C26.1126243,4.52632462 26.0597968,4.52233459 26.0398707,4.50548779 L25.476378,4.22308227 C25.2266061,4.09850464 24.9754441,3.97348367 24.7233552,3.84801936 L24.18952,3.58290398 L24.0208429,3.5 C23.9800638,3.53059024 23.9494795,3.59576074 23.9133344,3.64186777 L23.7034149,3.94688346 C23.529177,4.20623547 23.3901574,4.42657385 23.2414064,4.67572911 C22.9517823,5.16295622 22.6890353,5.66924681 22.464287,6.19415754 C22.2395386,6.71862494 22.0513988,7.25860912 21.9072818,7.81233674 C21.835455,8.08897889 21.7752132,8.36783771 21.7251662,8.64891323 L21.6593636,9.07141317 L21.6334133,9.28332814 L21.6259989,9.35913873 C21.650559,9.38352225 21.2242323,9.46598289 20.9772408,9.57814709 C20.6927141,9.67390783 20.4239429,9.80513552 20.1547083,9.93370318 C19.6273607,10.2130053 19.1398653,10.5596947 18.7190994,10.9693379 L18.3868426,11.2836636 L18.0851701,11.627693 C17.6908178,12.1854106 17.5012878,12.617664 17.3900721,12.9342064 C17.2654179,13.2476455 17.2413212,13.4569005 17.1986885,13.6138417 C17.155129,13.9352608 17.1277885,14.0784586 17.0814487,14.6778499 C17.0383526,14.9598121 17.029548,14.8489779 17.0035977,15.0001558 C16.9836716,16.3456829 17.052718,14.5537156 17.0592055,15.079513 C16.9665258,16.451197 17.4016571,18.1443001 17.6064793,18.9804333 L17.8391054,19.3621462 C17.6852571,18.8146253 17.5967479,18.3176448 17.5578224,17.9784922 C17.7079636,18.6231038 17.9132492,19.2872223 18.1658014,19.9646409 C18.2872119,20.3600973 18.4836929,20.9577153 18.2200191,20.3459105 C18.7390255,21.6905509 19.0508928,22.2713221 19.2492274,22.7053488 C19.4665613,23.1313954 19.568509,23.4160176 19.9086436,24.070826 C20.8516598,25.5458075 20.6755683,25.0807472 20.9790944,25.4801936 C22.0750321,26.9742385 22.9239784,28.1703611 24.0333547,29.3514103 C23.5736632,28.9386638 23.9972096,29.4653478 24.7367938,30.2411872 C25.4800851,31.0125932 26.5509993,32.018081 27.2933639,32.6307724 C28.2326729,33.443852 28.4393487,33.5263126 28.6293421,33.6535503 C28.8239695,33.7750246 29.0352793,33.9040356 30.0927549,34.6838649 C30.615932,35.0771047 30.0436347,34.7295286 29.5408472,34.3735292 C29.0329623,34.0255098 28.5653931,33.7076374 29.2396381,34.2493949 C29.5728217,34.47993 29.8962739,34.7237652 30.2405791,34.9401136 C30.5640313,35.1258717 30.8823862,35.3089698 31.2025946,35.4929545 C31.5302174,35.6662992 31.8712788,35.8507273 32.2744356,36.0825924 C32.7494192,36.3627813 33.4695406,36.7733111 33.4764916,36.8025714 C32.5302317,36.2736706 32.7772231,36.4984423 33.767506,37.0721201 C34.2489771,37.3017686 34.3694608,37.3585157 34.6053306,37.4591531 C33.6549001,36.8686285 34.1641752,37.1630041 35.1178495,37.6307244 C36.0636461,38.1170649 37.4978648,38.6973927 38.2564483,38.9208344 C39.3537762,39.2710705 40.0535082,39.466582 40.5488813,39.599583 C41.0405472,39.7449975 41.3273909,39.8345515 41.6146981,39.9143521 C42.1874588,40.0686333 42.7402933,40.3200053 45.0285557,40.5 C44.6810067,40.4343862 44.6972257,40.4162094 44.9372661,40.4268494 C45.1745262,40.452563 45.6583144,40.4481296 46.2125391,40.3962592 C46.7681541,40.3368521 47.4280337,40.2184812 47.9716003,39.9232189 C48.528142,39.64303 48.8715204,39.1318627 48.9401034,38.7665532 C49.0267589,38.4597642 49.0072962,38.1862254 48.9577125,37.9583503 C48.9076655,37.7287019 48.8270341,37.5380671 48.7320374,37.3709291" id="Fill-15"></path>
                    <path d="M47.154531,18.5 C47.0175241,17.9643132 46.8595793,17.4717537 46.845469,17.5012619 C46.9173862,17.7611608 47.022531,18.1600886 47.0876207,18.4364439 L47.022531,18.1600886 C46.964269,17.8706815 47.1081034,18.3921817 47.154531,18.5" id="Fill-17"></path>
                    <path d="M41.1043301,23.6688995 C41.4484162,24.0267943 41.7622784,24.3258373 42,24.5 C41.1072363,23.6172249 40.7538506,23.3009569 40,22.5 C40.3760535,22.9014354 40.749782,23.3177033 41.1043301,23.6688995" id="Fill-19"></path>
                    <path d="M41,26.5 C40.4837905,25.9674916 40.0031172,25.4600082 40,25.5024925 C40.2412718,25.7713656 40.611596,26.181077 40.8715711,26.4569337 L40.6165835,26.1770031 C40.3634663,25.8790312 40.872818,26.3993181 41,26.5" id="Fill-21"></path>
                    <path d="M48,9.5 C47.8685845,8.79901269 47.7361883,8.32557593 47.5998692,7.8812882 C47.4445897,7.44593324 47.3040209,7.01716032 47,6.5 C47.3076169,7.01480959 47.511932,7.63211095 47.6626348,8.17230842 C47.8185682,8.71391631 47.9172932,9.19252468 48,9.5" id="Fill-23"></path>
                    <path d="M63.4182507,35.3112464 C63.3978609,35.3161231 63.3742272,35.3223298 63.3487399,35.3289798 C63.3023994,35.3374032 63.2518882,35.3467133 63.1981332,35.3560234 C63.0901598,35.3742002 62.9673573,35.388387 62.8487256,35.4003571 C62.6114621,35.4234106 62.3899543,35.4309473 62.3320286,35.4442474 C62.4557579,35.479271 62.6679975,35.516068 62.9613331,35.5280381 C62.9645769,35.5280381 62.9696744,35.5280381 62.973845,35.5280381 C62.7894097,35.5444415 62.5785603,35.5550816 62.3320286,35.5559683 C57.9690675,35.2434158 53.7391037,33.5999665 49.9924717,31.2538283 C51.1273513,31.9441036 52.322937,32.6024587 53.5741314,33.1787965 C55.4129237,34.0370965 57.3777623,34.6834815 59.3134064,35.0585444 C60.4658954,35.2354358 61.24627,35.3365166 62.3422236,35.4282873 C60.8431073,35.2717894 58.4111562,34.7787989 56.2220294,33.9861128 C55.3684368,33.7076973 55.8318422,33.9236023 56.5056335,34.1590141 C56.8439194,34.2716217 57.2280824,34.407726 57.5204912,34.4959501 C57.8147535,34.5797407 58.0112374,34.6373745 57.961653,34.6320544 C58.0853823,34.6848115 57.5418078,34.5558005 57.1289137,34.4267895 C56.167811,34.1248772 55.2321957,33.7090273 55.2090254,33.6527235 C55.0088343,33.6008531 54.8165211,33.5281459 54.6191104,33.4656354 C52.6857834,32.6543291 50.7288227,31.5482039 48.6671324,30.094946 C48.9803944,30.2807041 49.2042192,30.4176951 49.4632628,30.5905965 C49.7278672,30.7550744 50.0290807,30.9519159 50.4934128,31.2631383 C51.3307862,31.6435213 50.9206725,31.4409164 50.2427105,31.0370366 C49.5577975,30.6429102 48.6166213,30.0253421 48.3042861,29.7265331 C48.3978939,29.8329339 47.4201087,29.1333485 46.9182407,28.7166119 L47.3445736,29.1000983 L48.0433889,29.5793453 C49.4609458,30.6482302 47.8686851,29.589542 47.7866623,29.5496417 C46.8223158,28.8398596 46.3607641,28.4053895 45.8765056,27.9429893 C45.632291,27.7142275 45.3839057,27.475269 45.0780582,27.1742433 C44.7643328,26.8803111 44.3959256,26.5229816 43.9130572,26.053488 C43.8301077,26.0237844 44.141516,26.3252534 43.9816412,26.2135326 C43.4334327,25.7054686 43.5108214,25.8207362 42.6892038,24.941156 C41.8972441,23.995962 41.1692343,23.3092334 40.3392754,22.1317309 C40.1965465,21.8648422 40.4301028,22.1822713 40.7067558,22.5214239 C40.9843356,22.8605766 41.2850856,23.2347528 41.22716,23.1181552 L40.8374361,22.572851 C40.3684699,21.9876465 39.8406512,21.1164897 39.4666831,20.6434494 L39.4796585,20.6070958 C39.1844693,20.1770591 38.8105012,19.5931846 38.5009464,19.0390136 C38.1811968,18.4901627 37.9235434,17.9723454 37.7692294,17.7156534 C37.4267729,16.9548875 37.1153645,16.163088 36.860955,15.342915 C36.6204476,14.5209686 36.4392561,13.671092 36.3799403,12.8105754 C36.3322095,11.9562654 36.4133054,11.0753553 36.8021025,10.3243428 C37.1783876,9.57022694 37.8758126,8.99920918 38.6955767,8.69907019 C38.9138406,8.63833305 39.1321045,8.57892593 39.3582463,8.54700568 C39.420806,8.5328189 39.4801219,8.51907546 39.5375841,8.5062187 C39.5672421,8.49912531 39.5955098,8.49336193 39.5955098,8.49336193 L39.6756789,8.48715522 C39.7892132,8.47740181 39.8939428,8.46897841 39.9898677,8.46055501 C40.1812541,8.44282154 40.3392754,8.42774809 40.4745897,8.41489132 C40.7415112,8.38740444 40.9074103,8.36390759 41.036237,8.34262743 C41.2952805,8.29962376 41.4083514,8.26282681 41.8967806,8.20740972 C42.1252395,8.19809964 42.0571189,8.2264732 42.1743604,8.22868988 C43.236022,8.07352201 41.8147579,8.23844329 42.2271886,8.16573606 C42.7679827,8.08460543 43.3954335,8.03539505 43.9098134,8.19543962 C44.4292907,8.34307077 44.7652596,8.71769034 44.9191102,8.99832251 C45.0071572,9.06969973 45.1044723,9.14019028 45.1823244,9.22752762 C44.9997427,8.82719452 44.763406,8.50134199 44.5544102,8.31159386 C44.9496949,8.59488605 45.2467377,9.03910949 45.5039277,9.65933763 C45.5085617,9.67308107 45.5127324,9.68682451 45.5173664,9.70101129 C45.6234863,10.0144504 45.7240452,10.4524671 45.5382197,9.97632342 C45.8774324,11.0633852 45.9599185,11.5785425 46.0340634,11.947842 C46.1035742,12.3189149 46.1258176,12.5561001 46.2008893,13.1337679 C46.5257364,14.4744183 46.5183219,14.0829519 46.6522461,14.4571281 C47.0359457,15.8704858 47.2532828,17.0120779 47.7041762,18.2104172 C47.4761808,17.7759472 47.6272509,18.2884445 47.9085379,19.086894 C48.0725834,19.4805771 48.2635064,19.9420906 48.451649,20.3947375 C48.6680592,20.8363009 48.8798355,21.2681109 49.0471248,21.6090369 C49.5091399,22.4757603 49.6319423,22.5994512 49.7422328,22.7435357 C49.8571573,22.8858468 49.9642039,23.0476647 50.5378997,23.9135014 C51.0430115,24.8192384 49.3172901,22.1867047 49.9938619,23.3726305 L50.5453142,24.1622133 C50.913258,24.6552038 51.2909334,24.9903664 51.7571191,25.5556208 C52.0078214,25.9120636 52.4508369,26.3961873 52.4438858,26.4227875 C51.8627756,25.7905893 51.992529,26.018021 52.5639078,26.7176065 C52.8572434,27.0208488 52.929998,27.0962161 53.0787511,27.2345371 C52.5588104,26.5198783 52.8549264,26.8780944 53.4165736,27.4992092 C54.0083422,28.0946105 54.8443254,28.9803973 55.3642662,29.3386134 C56.755409,30.5090225 57.1497669,30.7776846 57.4787847,31.1155072 C57.6493178,31.2777685 57.8166072,31.4404731 58.1229181,31.695835 C58.4357167,31.9423303 58.9074633,32.2570994 59.6604969,32.7496465 C59.2420419,32.3865537 59.7374222,32.7163963 60.4784073,33.1867766 C61.2411725,33.62967 62.2342501,34.2308347 62.761142,34.5048168 C63.0785746,34.6542213 63.3158381,34.7969757 63.4896151,34.9273167 C63.6253929,35.0332742 63.7222446,35.1272616 63.7727558,35.2287857 C63.6555143,35.2771094 63.5350289,35.2979463 63.4182507,35.3112464 M39.5195113,21.2645642 C40.0306474,21.9854298 40.6182454,22.7776726 40.3721771,22.3272424 C41.1511615,23.3695272 42.1118007,24.5244195 43.182267,25.6318747 C44.2504163,26.74066 45.4260756,27.8006782 46.5753208,28.6953318 C46.7444637,28.8988234 47.518814,29.4747178 47.7917598,29.6946129 C47.6406896,29.6063888 47.8394905,29.7730835 48.0535838,29.9490882 C44.5715562,27.431822 41.6229081,24.3461981 39.5195113,21.2645642 M37.9291043,18.6307005 C38.1992696,19.1361044 38.5139218,19.6738719 38.7655509,20.1101153 C38.4606302,19.6135781 38.187221,19.1205876 37.9291043,18.6307005 M37.6422564,18.0800762 C37.6510611,18.0933763 37.6594024,18.1066764 37.6654266,18.1137698 C37.7335472,18.2560809 37.8118627,18.4077021 37.8929586,18.5606533 C37.8095457,18.4006087 37.7201085,18.2392341 37.6422564,18.0800762 M36.1380427,13.2268686 C36.1264575,13.0043135 36.1204333,12.7817585 36.1306282,12.5596468 C36.187627,13.6653287 36.4503779,15.0418893 36.8748571,16.2929857 C36.479109,15.215234 36.2311871,14.1853627 36.1380427,13.2268686 M41.0413344,0.897673081 C41.0645047,0.872846222 41.0811873,0.827182535 41.1080648,0.81964581 L41.210014,0.872402885 L41.4111319,0.977030363 L41.7818561,1.17121187 C42.0293146,1.3006662 42.2763096,1.4296772 42.5200608,1.55735819 L42.5668647,1.58129838 L41.1113086,0.856442762 C40.6928536,1.45317405 40.3105442,2.08891898 39.9773558,2.76013084 C39.8281393,3.03100961 39.684947,3.30632174 39.5575106,3.58828393 C39.8689189,2.72377723 40.375421,1.81405018 41.0413344,0.897673081 M42.4625985,6.17958734 C42.5455481,6.17515397 42.6229368,6.1707206 42.7026425,6.16628723 C42.5056952,6.17604064 42.308748,6.18579405 42.0960449,6.21150758 C42.0274609,5.6631 42.0117052,5.09429893 42.0673138,4.51308443 C42.0849232,4.32023293 42.1131909,4.12605143 42.1442391,3.93186992 C42.1442391,3.93585995 42.1433123,3.94251001 42.1437757,3.94561336 C42.0594359,4.47185411 42.0181928,5.10183565 42.0589725,5.70078363 C42.0682406,5.85196147 42.0807526,5.99382923 42.0960449,6.13525366 C42.0751917,6.23988114 42.188726,6.18668073 42.2508223,6.19288744 C42.3226501,6.18845407 42.3930877,6.18402071 42.4625985,6.17958734 M45.321346,6.65972106 C45.6359982,6.84725251 45.8913345,7.02503055 46.0053323,7.13542141 C46.1281347,7.23650219 46.1480611,7.23384217 45.9932837,7.05783748 C46.6253686,7.61777181 47.0725547,8.40691126 47.3955482,9.25191114 C47.7217856,10.1009011 47.9423665,11.0141748 48.1550696,11.9345419 C48.5670369,13.7788229 49.0021745,15.6630041 49.6222108,17.3312804 C49.6504785,17.4891083 49.7709639,17.842891 49.8988638,18.2082005 C50.0429828,18.56819 50.2000772,18.9379329 50.2700515,19.1400944 C50.1824678,18.9782765 50.2524421,19.1804381 50.3488304,19.4446668 C50.3733908,19.5054039 50.3993415,19.5692444 50.426219,19.6321982 C49.2403648,17.0333581 48.6916929,14.616286 48.2333851,12.5933404 C47.5563499,9.59948717 46.9409476,6.93724987 44.3551459,6.29795825 C44.6957488,6.37953222 45.0414492,6.49790314 45.321346,6.65972106 M65.9577119,34.9583503 C65.9081275,34.7287019 65.827495,34.5380671 65.7324969,34.3709291 C65.5425007,34.0362098 65.3196028,33.7719811 64.9840973,33.4780488 C64.8427587,33.371648 64.5670325,33.1814565 64.2936234,33.0391454 C64.0262385,32.8861943 63.7630243,32.7811234 63.6939769,32.7540799 C63.8177061,32.859594 64.0489454,33.0112152 64.3395005,33.2271202 C64.1328217,33.1020993 63.9043629,32.9775216 63.6425389,32.8547173 C57.2364237,29.2756596 53.6603248,25.4017829 51.5314407,21.7602147 C52.4290569,23.2564763 53.5074011,24.7154976 54.7530346,26.0512713 C56.4472444,27.8822522 58.4306192,29.4787079 60.4663588,30.8104915 C61.6795539,31.5836708 62.5419513,32.0460711 63.7097327,32.7438832 C62.134618,31.7508088 59.5358409,30.1117928 57.38425,28.2089913 C56.5213893,27.5142826 56.9810874,27.9429893 57.6344889,28.5312972 C58.2999389,29.104975 59.2114572,29.7775168 59.1002399,29.7225431 C59.214701,29.8426873 58.6720534,29.4201874 58.2410864,29.1032016 C57.7406087,28.7334587 57.300837,28.288792 56.9477222,27.9695895 C56.601095,27.643737 56.3693923,27.4123152 56.3675387,27.3764049 L55.7929161,26.878981 C55.3369253,26.4250042 54.8698127,25.9643773 54.4490407,25.4470033 C54.2326304,25.193858 54.0134397,24.9380527 53.7914685,24.6787007 C53.5889604,24.4064919 53.3841352,24.1302931 53.1765296,23.8509909 C52.7432457,23.3048 52.3896674,22.6881186 51.9869682,22.0798605 C51.6338533,21.4436723 51.241349,20.8043806 50.9253066,20.1030219 C51.1375462,20.4918282 51.29047,20.7720171 51.4883441,21.0965396 C51.5814885,21.2627909 51.6811207,21.4392389 51.8006792,21.6515972 C51.9118965,21.8670589 52.054162,22.1086774 52.2399875,22.395073 C52.9262908,23.2768698 52.6116386,22.8193463 52.0657471,22.0248868 C51.8122644,21.6161303 51.5189288,21.1124997 51.2575682,20.6532028 C51.0249387,20.1797191 50.825211,19.7510125 50.7380908,19.5040739 C50.75431,19.5891946 50.6092642,19.2992523 50.4401212,18.8887225 C50.2603199,18.482626 50.0494705,17.9590453 49.9243511,17.5817657 C49.9938619,17.8043207 50.054568,18.0304225 50.1305665,18.2507609 L50.5578262,19.1879748 C51.449418,21.1599367 50.3706104,19.0944307 50.3326112,18.9906899 C50.037422,18.3225814 49.8576207,17.7945673 49.7135017,17.3397038 C49.5568707,16.8888303 49.4743845,16.4982506 49.3668745,16.1036809 C49.1666834,15.3092214 48.9785408,14.4659949 48.5999387,12.852249 C48.542013,12.7662417 48.662035,13.2858324 48.578622,13.062834 C48.35109,12.1730571 48.3719432,12.3441851 48.0253161,10.8944739 C47.8561731,10.1461214 47.6476407,9.47756956 47.3302081,8.80990438 C47.0067512,8.15199262 46.6137834,7.4524072 45.8732617,6.83971579 C45.720338,6.71070479 45.7523129,6.71779817 45.8867005,6.79981548 C46.018771,6.88227611 46.2249864,7.0737976 46.4316652,7.27906252 C46.8315839,7.7068825 47.1272365,8.26105346 47.0725547,8.10012222 C46.9251918,7.84564691 46.780146,7.58939826 46.5864425,7.35620312 C46.4381528,7.15315488 46.2171085,6.97360349 46.0118199,6.77188526 C45.7736296,6.6047473 45.5386831,6.41145247 45.2624935,6.2948549 C44.733748,6.01377939 44.1614425,5.91934865 43.7508653,5.88964509 L43.7202806,5.85417815 C43.3616049,5.84531141 42.9403694,5.81427784 42.5135731,5.86659158 L42.4329406,5.87368497 L42.4227457,5.87545831 L42.4032827,5.87811833 C42.3847465,5.88521172 42.3833562,5.87235496 42.3824294,5.85816818 L42.379649,5.83866136 L42.3685273,5.7100937 C42.3634298,5.61344628 42.3587958,5.51679887 42.3532349,5.42148146 C42.3235769,4.65805555 42.4343308,3.95891347 42.4788177,3.59848067 C42.5863278,3.0983968 42.7313736,2.59875626 42.9060774,2.10177574 L43.0131241,1.80695679 L43.0752204,1.63804548 L43.1058051,1.55336816 C43.1127562,1.52632462 43.059928,1.52233459 43.0400016,1.50548779 L42.4765007,1.22308227 C42.2262618,1.09850464 41.9750961,0.973483668 41.7234671,0.848019363 L41.1891607,0.582903976 L41.0209446,0.5 C40.9801649,0.530590237 40.9495802,0.595760742 40.9134345,0.641867766 L40.7030485,0.946883462 C40.5288081,1.20667881 40.3902499,1.42657385 40.2410334,1.67572911 C39.9518685,2.16295622 39.6886543,2.66969014 39.4643661,3.19415754 C39.2396145,3.71862494 39.0510085,4.25860912 38.9068895,4.81233674 C38.8350617,5.08897889 38.774819,5.36783771 38.7247712,5.64891323 L38.659431,6.07141317 L38.6330169,6.28332814 L38.6260659,6.35913873 C38.6506263,6.38352225 38.2242934,6.46598289 37.976835,6.57814709 C37.6927675,6.67390783 37.4239925,6.80513552 37.1542906,6.93370318 C36.6278621,7.21300534 36.1398963,7.5596947 35.7191243,7.96933787 L35.3868626,8.28366364 L35.0851858,8.62769297 C34.6908279,9.18541063 34.5008317,9.61766397 34.3896144,9.93420643 C34.2649584,10.2476455 34.2408613,10.4569005 34.198228,10.6138417 C34.1551313,10.9352608 34.1277904,11.0784586 34.0809864,11.6782933 C34.0378897,11.9598121 34.029085,11.8489779 34.0035978,12.0001558 C33.9836713,13.3456829 34.0527187,11.5537156 34.0592064,12.079513 C33.9665253,13.451197 34.4011995,15.1443001 34.6060247,15.9804333 L34.8391176,16.3621462 C34.685267,15.8146253 34.5962932,15.3176448 34.5573671,14.9784922 C34.7079738,15.6231038 34.912799,16.2872223 35.1653549,16.9646409 C35.2872305,17.3600973 35.4837144,17.9577153 35.2200367,17.3459105 C35.7385873,18.6905509 36.0509225,19.2713221 36.24926,19.7053488 C36.4661336,20.1313954 36.5680828,20.4160176 36.9082223,21.070826 C37.8512522,22.5462508 37.6756215,22.0807472 37.979152,22.4801936 C39.0751056,23.9742385 39.9240642,25.1703611 41.0334565,26.3514103 C40.5737584,25.9386638 40.9968475,26.4653478 41.7369058,27.2411872 C42.4797445,28.0125932 43.5506742,29.018081 44.293513,29.6307724 C45.2323722,30.443852 45.4395144,30.5263126 45.6290471,30.6535503 C45.8241408,30.7750246 46.0349902,30.9040356 47.0929445,31.6838649 C47.6161292,32.0771047 47.0433602,31.7295286 46.5410288,31.3735292 C46.0331366,31.0255098 45.5655606,30.7076374 46.2398153,31.2493949 C46.5725404,31.4803734 46.8959973,31.7237652 47.2407708,31.9401136 C47.5637644,32.1258717 47.8821238,32.3089698 48.2028003,32.4929545 C48.5299645,32.6662992 48.8714942,32.8511706 49.2741934,33.0825924 C49.7496473,33.3632246 50.4693157,33.7733111 50.4762668,33.8025714 C49.5299932,33.2736706 49.7774516,33.4988857 50.7672854,34.0721201 C51.2492269,34.3017686 51.3692489,34.3585157 51.6051222,34.4591531 C50.6546779,33.8686285 51.1644237,34.1630041 52.1181119,34.6307244 C53.0639222,35.1170649 54.4976982,35.6973927 55.2562927,35.9208344 C56.3541,36.2710705 57.0533786,36.466582 57.5487589,36.599583 C58.0408953,36.7449975 58.3272798,36.8345515 58.6145911,36.9143521 C59.1878235,37.0686333 59.7406661,37.3200053 62.0284982,37.5 C61.6814076,37.4343862 61.6971633,37.4162094 61.9376707,37.4268494 C62.1744708,37.452563 62.658266,37.4481296 63.2129622,37.3962592 C63.7685852,37.3368521 64.4280109,37.2184812 64.9715854,36.9232189 C65.5281352,36.64303 65.8719819,36.1318627 65.9401025,35.7665532 C66.0267593,35.4597642 66.0072963,35.1862254 65.9577119,34.9583503" id="Fill-25"></path>
                </g>
            </g>
        </g>
    </g>
</svg>