<?xml version="1.0" encoding="UTF-8"?>
<svg width="181px" height="181px" viewBox="0 0 181 181" version="1.1" xmlns="http://www.w3.org/2000/svg" xmlns:xlink="http://www.w3.org/1999/xlink">
    <!-- Generator: Sketch 51.2 (57519) - http://www.bohemiancoding.com/sketch -->
    <title>new</title>
    <desc>Created with Sketch.</desc>
    <defs></defs>
    <g id="2---My-Programmes" stroke="none" stroke-width="1" fill="none" fill-rule="evenodd">
        <g id="PL-2_MyProgrammes_v1" transform="translate(-1191.000000, -824.000000)" fill="#DFDFDF">
            <g id="Group-4-Copy" transform="translate(1082.000000, 718.000000)">
                <path d="M244.675781,118.378906 C258.503975,126.347696 269.4316,137.246025 277.458984,151.074219 C285.486368,164.902413 289.5,179.960856 289.5,196.25 C289.5,212.539144 285.486368,227.597587 277.458984,241.425781 C269.4316,255.253975 258.503975,266.1816 244.675781,274.208984 C230.847587,282.236368 215.789144,286.25 199.5,286.25 C183.210856,286.25 168.152413,282.236368 154.324219,274.208984 C140.496025,266.1816 129.5684,255.253975 121.541016,241.425781 C113.513632,227.597587 109.5,212.539144 109.5,196.25 C109.5,179.960856 113.513632,164.902413 121.541016,151.074219 C129.5684,137.246025 140.496025,126.3184 154.324219,118.291016 C168.152413,110.263632 183.210856,106.25 199.5,106.25 C215.789144,106.25 230.847587,110.292928 244.675781,118.378906 Z M199.5,275.175781 C210.164116,275.175781 220.359326,273.095724 230.085938,268.935547 C239.812549,264.77537 248.191371,259.150426 255.222656,252.060547 C262.253941,244.970668 267.849589,236.562549 272.009766,226.835938 C276.169943,217.109326 278.25,206.914116 278.25,196.25 C278.25,185.585884 276.169943,175.390674 272.009766,165.664062 C267.849589,155.937451 262.253941,147.558629 255.222656,140.527344 C248.191371,133.496059 239.812549,127.900411 230.085938,123.740234 C220.359326,119.580057 210.164116,117.5 199.5,117.5 C188.835884,117.5 178.640674,119.580057 168.914062,123.740234 C159.187451,127.900411 150.808629,133.496059 143.777344,140.527344 C136.746059,147.558629 131.150411,155.937451 126.990234,165.664062 C122.830057,175.390674 120.75,185.585884 120.75,196.25 C120.75,204.80473 122.068346,213.095663 124.705078,221.123047 C127.34181,229.150431 131.091773,236.386687 135.955078,242.832031 C140.818384,249.277376 146.472624,254.960913 152.917969,259.882812 C159.363313,264.804712 166.599569,268.583971 174.626953,271.220703 C182.654337,273.857435 190.94527,275.175781 199.5,275.175781 Z M238.875,190.625 C240.398445,190.625 241.716791,191.181635 242.830078,192.294922 C243.943365,193.408209 244.5,194.726555 244.5,196.25 C244.5,197.773445 243.943365,199.091791 242.830078,200.205078 C241.716791,201.318365 240.398445,201.875 238.875,201.875 L205.125,201.875 L205.125,235.625 C205.125,237.148445 204.568365,238.466791 203.455078,239.580078 C202.341791,240.693365 201.023445,241.25 199.5,241.25 C197.976555,241.25 196.658209,240.693365 195.544922,239.580078 C194.431635,238.466791 193.875,237.148445 193.875,235.625 L193.875,201.875 L160.125,201.875 C158.601555,201.875 157.283209,201.318365 156.169922,200.205078 C155.056635,199.091791 154.5,197.773445 154.5,196.25 C154.5,194.726555 155.056635,193.408209 156.169922,192.294922 C157.283209,191.181635 158.601555,190.625 160.125,190.625 L193.875,190.625 L193.875,156.875 C193.875,155.351555 194.431635,154.033209 195.544922,152.919922 C196.658209,151.806635 197.976555,151.25 199.5,151.25 C201.023445,151.25 202.341791,151.806635 203.455078,152.919922 C204.568365,154.033209 205.125,155.351555 205.125,156.875 L205.125,190.625 L238.875,190.625 Z" id="new"></path>
            </g>
        </g>
    </g>
</svg>