<?xml version="1.0" encoding="UTF-8"?>
<svg width="45px" height="41px" viewBox="0 0 45 41" version="1.1" xmlns="http://www.w3.org/2000/svg" xmlns:xlink="http://www.w3.org/1999/xlink">
    <!-- Generator: Sketch 52.5 (67469) - http://www.bohemiancoding.com/sketch -->
    <title>Group 17</title>
    <desc>Created with Sketch.</desc>
    <defs>
        <polygon id="path-1" points="0 0.00490009026 26.8722409 0.00490009026 26.8722409 14.9752351 0 14.9752351"></polygon>
        <polygon id="path-3" points="0.153126193 0.191497325 25.8597857 0.191497325 25.8597857 39.7404409 0.153126193 39.7404409"></polygon>
    </defs>
    <g id="2---Fast,-Healthy,-(Vegan)" stroke="none" stroke-width="1" fill="none" fill-rule="evenodd">
        <g id="Suncraft_MENU-Copy-2" transform="translate(-1291.000000, -4419.000000)">
            <g id="Group-25-Copy" transform="translate(915.000000, 4193.000000)">
                <g id="Group-22" transform="translate(53.000000, 223.000000)">
                    <g id="Group-23">
                        <g id="Group-17" transform="translate(323.000000, 3.000000)">
                            <g id="Group-14" transform="translate(0.000000, 2.000000)">
                                <path d="M26.6911026,28.2820164 C13.7480372,47.3018218 -12.2357852,25.6946234 6.66490987,21.5690337 C25.565605,17.443444 13.4200943,10.7744901 16.5035117,2.36312088 C19.5872432,-6.04793604 39.6341679,9.26189875 26.6911026,28.2820164" id="Fill-1" fill="#FFFFFF"></path>
                                <g id="Group-5" transform="translate(0.000000, 22.000000)">
                                    <mask id="mask-2" fill="white">
                                        <use xlink:href="#path-1"></use>
                                    </mask>
                                    <g id="Clip-4"></g>
                                    <path d="M24.7254341,9.82924468 C24.9159682,9.61732979 24.6297068,9.89084043 24.3882409,10.0925426 C24.1406386,10.2885 23.9497977,10.4235 24.3679909,9.99009574 C24.0400023,10.2517979 23.5908205,10.7100957 23.0894795,11.1575426 C22.8421841,11.3844574 22.5734114,11.5970106 22.3255023,11.8070106 C22.0690023,12.0055213 21.8183318,12.1829681 21.6017182,12.3323298 C21.5136614,12.3061596 21.6419114,12.1325426 21.5931273,12.0894574 C21.5455705,12.0463723 21.3237409,12.1402021 20.5079114,12.5640319 C20.2357636,12.7082872 20.0286614,12.8180745 19.8691159,12.9026489 C19.7077295,12.9837128 19.5975818,13.0459468 19.5221045,13.0960532 C19.37115,13.1956277 19.3588773,13.245734 19.3555023,13.294883 C19.3466045,13.3890319 19.3834227,13.5064787 18.3439227,13.9175426 C18.8256273,13.7535 19.3024227,13.5680745 19.7654114,13.3504149 C19.1309114,13.8055213 17.9156045,14.3340319 16.5060818,14.6410532 C15.0974795,14.9550957 13.5146045,15.0246702 12.2029568,14.944883 C11.2239,14.7875426 10.3215477,14.5038191 9.38207045,14.1543511 C8.4429,13.7994574 7.46108182,13.3906277 6.32063864,12.8550957 C6.45165,12.9045638 7.03460455,13.1123298 6.95053636,12.9891383 C6.55504773,12.7472234 5.82696818,12.4003085 5.40294545,12.1794574 C4.19899091,11.6311596 5.60667273,12.570734 5.12097955,12.4220106 C4.13824091,11.9053085 3.16808182,11.3783936 2.1114,10.1343511 C1.730025,9.5685 1.39620682,8.97232979 1.13633182,8.34935106 C0.632229545,7.8878617 0.201456818,7.05615957 0.0486613636,5.96307447 C-0.118247727,4.87605319 0.134877273,3.50626596 0.938740909,2.33371277 C1.00133182,2.29573404 1.08110455,2.22552128 1.17315,2.13137234 C1.26274091,2.03467021 1.37043409,1.91945745 1.49837727,1.80041489 C1.62141136,1.67594681 1.75641136,1.53839362 1.91074091,1.41201064 C1.98591136,1.34562766 2.06261591,1.27828723 2.14024091,1.20998936 C2.22154773,1.14775532 2.30438864,1.08520213 2.38661591,1.02232979 C3.04934318,0.522861702 3.78417273,0.147861702 4.05969545,0.1485 C4.62178636,-0.102989362 4.72610455,0.0246702128 4.80434318,0.162223404 C4.88288864,0.302968085 4.94486591,0.472117021 5.41092273,0.384670213 C7.01772955,0.0249893617 4.355775,0.812648936 5.95644545,0.453606383 C5.53610455,0.596904255 5.29157045,0.663287234 5.11515,0.679882979 C4.93872955,0.695840426 4.82950227,0.658180851 4.70493409,0.63456383 C4.46684318,0.604882979 4.10357045,0.534031915 3.06621818,1.18828723 L3.20551364,1.19243617 C2.80665,1.49435106 2.243025,1.86360638 1.80274091,2.3222234 C1.35355909,2.76903191 1.05625227,3.30839362 1.02833182,3.65562766 C0.782570455,4.23328723 0.753115909,4.55339362 0.693286364,4.68105319 C0.652172727,4.8128617 0.615661364,4.76435106 0.579456818,4.66956383 C0.526684091,4.48892553 0.469922727,4.09062766 0.301786364,4.76626596 C0.326945455,4.97147872 0.346275,5.32126596 0.433104545,5.71828723 C0.504593182,6.11754255 0.661990909,6.55669149 0.840559091,6.95371277 C1.21180909,7.74935106 1.72542273,8.34328723 1.85305909,8.31169149 C1.47751364,7.75254255 1.16946818,7.14807447 0.974025,6.51232979 C1.07680909,6.81871277 1.05165,6.56371277 1.11055909,6.68084043 C1.17161591,7.02073404 1.36951364,7.47360638 1.68185455,7.89041489 C1.98805909,8.31073404 2.37250227,8.70743617 2.72718409,9.02020213 C3.43194545,9.64573404 3.97900227,9.99935106 3.35800227,9.9447766 C3.13310455,9.79605319 2.65508182,9.26626596 2.46822955,9.15264894 C2.43601364,9.25126596 2.66612727,9.55509574 3.01712727,9.90647872 C3.36229773,10.2652021 3.84522955,10.6469043 4.25697955,10.9756277 C5.23388864,11.4833936 6.38660455,11.8702021 7.87375227,12.5761596 C8.38859318,12.832117 8.04035455,12.8030745 8.56685455,13.0443511 C9.38820682,13.267117 9.998775,13.3982872 10.5047182,13.5119043 C11.0118886,13.6204149 11.4144341,13.7085 11.8267977,13.7873298 C12.2391614,13.8626489 12.6610364,13.9303085 13.2056386,13.9603085 C13.7490136,13.9800957 14.4191045,13.9832872 15.3055023,13.8294574 C16.4327523,13.7876489 17.6652409,13.4586064 18.8323773,12.975734 C20.0053432,12.4970106 21.0988432,11.8392447 22.0757523,11.2204149 C21.8935023,11.2663723 22.1831386,11.0145638 22.5648205,10.7164787 C22.9330023,10.4008404 23.3898545,10.0287128 23.559525,9.86243617 C23.8534568,9.69998936 24.8131841,8.82871277 25.3596273,8.06275532 C25.0162977,8.49424468 25.2792409,8.2778617 25.0629341,8.60084043 C25.7112409,7.76211702 26.0950705,7.26935106 26.3626159,6.99647872 C26.6304682,6.72424468 26.7801955,6.6728617 26.8722409,6.66392553 C26.6571614,7.02105319 26.5009909,7.30764894 26.3690591,7.56105319 C26.2303773,7.80871277 26.1101045,8.02381915 25.9870705,8.24243617 C25.8640364,8.46392553 25.7204455,8.68254255 25.5222409,8.93562766 C25.4240591,9.06296809 25.3136045,9.20020213 25.186275,9.35084043 C25.0537295,9.49732979 24.9000136,9.65435106 24.7254341,9.82924468" id="Fill-3" fill="#FFFFFF" mask="url(#mask-2)"></path>
                                </g>
                            </g>
                            <path d="M9.94011356,21.8290434 C9.78388674,22.0330004 10.6467785,21.8140512 11.3204868,21.6010364 C11.9922938,21.3867723 12.505022,21.2362252 11.6849104,21.7209743 C12.9185636,21.3324254 13.4284398,21.0050948 14.0181722,20.5965562 C12.6656853,21.1703218 14.3112956,20.3947856 13.5498087,20.629664 C14.5673428,20.0771375 15.515161,19.4115444 16.1749262,18.5601099 C16.3568211,18.3586517 16.4690002,18.1175265 16.6103332,17.8954539 C16.6708592,17.779264 16.7139563,17.6552657 16.7675107,17.5362647 L16.8441981,17.3569825 L16.8949005,17.1683301 C17.0561976,16.6738985 17.0818657,16.1432356 17.0720421,15.6169454 C17.0295788,14.5556196 16.7548351,13.4917951 16.4721691,12.4307816 C16.1910876,11.3682064 15.8894082,10.3003215 15.7081471,9.20307679 C15.5370265,7.55580418 15.5344913,5.96319079 15.9299702,4.44335223 C16.1039428,3.69780052 16.394848,2.89415388 16.9715879,2.24667642 C17.5321665,1.58139567 18.3966427,1.15099338 19.2858363,1.00700539 C19.843246,0.976396229 20.1544321,1.05323147 20.3122433,1.09976989 C20.4703715,1.15068104 20.474808,1.1934714 20.4012895,1.23188902 C20.3274541,1.27061898 20.1766144,1.30310217 20.0181693,1.33808407 C19.8581398,1.38462249 19.6911387,1.42085374 19.5805441,1.47145256 C19.9966208,1.45677266 20.4111131,1.49706431 20.8167324,1.57265019 C21.2210841,1.65666922 21.6159292,1.77379611 22,1.9177841 C21.6000847,1.80378059 21.1935147,1.72069859 20.7856771,1.67103678 C20.376572,1.62980812 19.9661994,1.62699707 19.5675516,1.67759589 C19.5326937,1.7378772 19.7820862,1.75443113 20.105631,1.80471761 C20.4307602,1.84625861 20.8290911,1.95745108 21.0993983,2.06614483 C21.3110809,2.11643131 21.5249817,2.16453142 21.7341292,2.23262119 C21.5027994,2.29758757 21.1215806,2.24105433 20.6411753,2.1773373 C20.1623543,2.1195547 19.5729387,2.05989807 18.9775022,2.17046585 C18.3849178,2.27541155 17.7939177,2.57588107 17.389566,3.06250426 C16.9620812,3.53132417 16.7633911,4.1485048 16.6439236,4.68416512 C16.8236003,4.04730717 16.9291247,3.78400592 16.9547928,3.68718102 C16.9848973,3.59379184 16.9069424,3.65844589 16.8296212,3.78150721 C16.6581836,4.01388696 16.4522051,4.47708478 16.5811793,3.91550037 C16.4766056,4.1769276 16.3945311,4.45053602 16.299464,4.71821001 C16.4243187,4.36151958 16.4876968,3.78275656 16.844515,3.14995901 C17.011833,2.82949983 17.2634437,2.50404324 17.6044175,2.21950298 C17.9447574,1.93589973 18.3858684,1.70758037 18.8884561,1.58982881 C18.1862277,1.73163043 17.5242443,2.10487479 17.0634861,2.65052994 C16.8226496,2.91476821 16.6518458,3.22773126 16.4937177,3.5397573 C16.3476313,3.86052882 16.2528812,4.19254452 16.1536946,4.52206151 C15.7680393,5.84949962 15.7927568,7.23721903 15.9958833,8.53061226 C16.2177064,9.82962758 16.6141359,11.0505583 16.994404,12.2327591 C17.3737215,13.4143352 17.7311735,14.5768586 17.8173676,15.7703035 C17.7774394,15.6310006 17.7118432,15.2686881 17.6931467,15.6922189 C17.7064561,17.3635416 17.3547081,18.4473558 16.9405327,19.1363743 C17.0958088,18.9205484 17.2035515,18.6684914 17.3166812,18.4286155 C16.9937702,18.8980601 16.5222378,19.4443399 15.988278,19.9715671 C15.4321358,20.462563 14.8180028,20.9329446 14.2514033,21.2371622 C12.934725,21.7493971 12.0518692,21.9546034 9.88022133,22.7176461 L9.92014948,22.5795925 C9.31995963,22.7276409 8.71850223,22.8675685 8.11641104,23 C8.55657139,22.8700672 8.36009953,22.8641328 8.26154671,22.8672562 C8.38228184,22.7985417 8.47988399,22.7982294 8.79645719,22.7279533 C8.82877998,22.626131 8.59998533,22.5767815 8.23841373,22.5695977 C7.87525768,22.5564795 7.37488822,22.5714717 6.86691339,22.6248816 C7.18126837,22.5664743 7.49657401,22.5083794 7.71522818,22.4471611 C7.29629947,22.5115028 6.37858575,22.6523674 5.72452459,22.752628 C5.06127361,22.8535133 4.66991434,22.9016134 5.37150902,22.5989575 C5.98912782,22.4465364 6.45463937,22.3675148 6.81177451,22.3237874 C7.17809947,22.2784983 7.47122281,22.2622567 7.75895901,22.2457028 C8.04827967,22.2332093 8.3258754,22.2029125 8.66779981,22.1454422 C9.00718911,22.0811005 9.41851246,22.010512 9.94011356,21.8290434" id="Fill-6" fill="#FFFFFF"></path>
                            <path d="M1.47595623,26.4632858 C1.7812732,26.1358499 1.93978909,26.0181619 1.98481786,26.0019755 C2.03094488,25.9857892 1.96468304,26.0707674 1.88377771,26.1945254 C1.69780525,26.4292271 1.48401015,26.8197221 1.65387475,26.7077667 C1.36173693,27.1070294 1.148674,27.5416997 1.03921384,27.999975 C0.997479861,28.001661 0.993086811,27.9180317 1.00736422,27.785169 C1.01322162,27.6502829 1.06630431,27.4739194 1.12853919,27.2914861 C1.18455057,27.1066922 1.28742116,26.9303287 1.34599516,26.7752098 C1.42653441,26.6308817 1.48034928,26.5138681 1.47595623,26.4632858" id="Fill-8" fill="#FFFFFF"></path>
                            <path d="M29.4050595,7.38928072 C29.4064306,7.56890355 30.1269531,8.49984213 30.4172874,9.0858198 C30.6017027,9.35570993 30.7525257,9.57514762 30.8834675,9.78030059 C31.0209221,9.98302212 31.1374671,10.1714589 31.2546977,10.3793473 C31.4919011,10.7939082 31.7301329,11.2902264 31.9954442,12.1770951 C31.5930211,11.5415768 31.6173584,11.9357745 31.748643,12.6323828 C31.8730719,13.3332461 32.0225238,14.3614424 31.9971581,15 C31.9159194,14.5656836 31.7304757,13.9614701 31.5254935,13.303157 C31.3181119,12.644236 31.0658262,11.9369902 30.8841531,11.2598334 C30.9636779,11.3224431 30.9040343,11.0552883 30.7782342,10.7018173 C30.6544908,10.3480424 30.4563642,9.91251028 30.3202808,9.62408041 C29.9963541,9.2301867 29.9744162,9.45479121 29.7776608,9.34780774 C29.6823681,9.29370814 29.5360012,9.16210631 29.2806305,8.83963624 C29.0160047,8.52263691 28.6509446,8.00777894 28.0020629,7.25646317 C27.7915963,6.96225862 27.369292,6.48843124 26.9942912,6.1121655 C26.6244321,5.73194866 26.3200439,5.43379301 26.4321328,5.41130217 C26.0948378,5.01892812 25.5484472,4.88519877 25.1892143,4.43690154 L25,4.21320882 C25.7349193,4.66910431 26.4263055,5.18700159 27.0693599,5.75170413 C27.1197485,5.83102995 27.2112706,6.00183879 27.3819748,6.15836291 C27.2668009,5.94713133 27.8080497,6.39208533 28.2272691,6.76105674 C28.4397924,6.94311101 28.62695,7.10054691 28.7057893,7.12607706 C28.783943,7.15191114 28.7719457,7.03398617 28.5443401,6.68477023 C27.7785707,5.78726398 26.9085963,4.95631847 25.9340742,4.22688569 C25.6077481,3.93116148 25.711953,3.94878944 26.0365652,4.14056948 C26.3642624,4.32870235 26.8907718,4.71378207 27.3806037,5.15235353 C28.0240008,5.84774611 28.2882838,6.19848171 28.5330284,6.46715612 C28.7736596,6.7385659 28.9858401,6.93216951 29.4050595,7.38928072" id="Fill-10" fill="#FFFFFF"></path>
                            <path d="M21.1827981,2.07757805 L21,2 C22.0807897,2.21215705 23.0788608,2.57284768 24,3 C23.125156,2.60974456 22.1842732,2.28382214 21.1827981,2.07757805" id="Fill-12" fill="#FFFFFF"></path>
                            <path d="M31.955,18 C31.9221034,17.3342522 31.9745517,16.7553411 31.8879655,16.0954514 L32.1120345,16 C32.0841034,16.672295 32.0397241,17.3401103 31.955,18" id="Fill-14" fill="#FFFFFF"></path>
                            <path d="M17,9 C17.1580969,9.37294512 17.3088061,10.0530793 17.4855201,10.7269976 C17.6575059,11.3979717 17.8413121,12.0686186 18,12.3826777 C17.8711584,11.8271857 17.8717494,12.0319784 17.8067376,11.9060276 L17.9970449,13 C17.5605792,11.6956735 17.2621158,10.4266787 17,9" id="Fill-16" fill="#FFFFFF"></path>
                            <path d="M30.9899973,23.5022402 C30.8308262,23.9812269 30.6798352,24.3552635 30.5731531,24.6975712 C30.4511333,25.0331669 30.3430879,25.3294064 30.2319749,25.632968 C29.9848677,26.2312436 29.7046994,26.8734518 29.0046193,27.8613236 C28.6688945,28.2725809 29.2316171,27.2624377 28.7834159,27.8762728 C28.3335105,28.4830909 28.3103335,28.6679736 28.1504808,29.0002134 L28.3822502,28.7976356 C28.1569567,29.0047897 27.732955,29.4550981 27.4190437,29.7446257 C27.1041099,30.0314075 26.8893824,30.1482558 27.0604828,29.7095407 C27.9872197,28.5404473 28.4439418,27.5611179 28.8389724,26.6678231 C29.2346846,25.7708673 29.5533676,24.9495731 30.105865,23.9629216 L30.5056673,23.6822416 C30.6389347,23.2526791 30.7790189,22.8264725 30.8850193,22.3917235 C30.9371675,22.3099602 30.9964732,22.3636555 31.1000877,21.927076 C31.1685961,21.4636488 31.093271,21.6244297 30.9879522,21.8852791 C30.8833151,22.1467386 30.7227807,22.5027752 30.674041,22.4509104 C30.8897911,21.6207686 31.0418045,20.7799488 31.1304223,19.9372984 C31.2002939,19.6325165 31.1617793,20.2018089 31.2040432,20.1157744 C31.5404497,18.9305113 31.2139274,18.1528445 31.4586487,17.1271419 C31.5063659,17.6518916 31.5244303,18.1803023 31.5223853,18.7105436 C31.6345208,17.758367 31.6726946,16.9187675 31.6720129,16.1487279 C31.6713312,15.3786882 31.6372475,14.6757677 31.5489706,14 C31.8795829,15.9125905 32.0138728,17.4200255 31.998876,18.9027484 C31.9545671,20.3772339 31.7497238,21.8416516 30.9899973,23.5022402" id="Fill-18" fill="#FFFFFF"></path>
                            <path d="M40.4833957,1.05959703 C37.5678745,0.0135937788 24.4886467,12.9455655 20.9201525,23.4144704 C17.3516583,33.8833754 25.1221602,37.006492 27.8918899,38.000211 C30.6619285,38.9939299 38.6362915,41.5187872 42.2044768,31.0498822 C45.772971,20.5806604 43.398917,2.10560027 40.4833957,1.05959703" id="Fill-20" fill="#FFFFFF"></path>
                            <path d="M38.4941135,2.48843364 C38.6924547,2.36239451 38.3985237,2.50652837 38.1612615,2.62726387 C37.9236881,2.74643949 37.7384243,2.82817774 38.1519205,2.52867881 C37.5042759,2.83535323 36.3889571,3.84616211 35.6936733,4.42862513 C35.521487,4.39430754 36.0505005,3.7581843 34.7424452,4.76088175 C33.8989504,5.47031983 33.9042436,5.57888819 33.9313326,5.66593006 C33.9612239,5.75609172 34.0132223,5.82753469 33.3185612,6.51575827 C33.6454972,6.21126769 33.9767923,5.91239272 34.3115125,5.61757347 C33.9020641,6.15916736 33.1040289,6.95595929 32.2393611,7.85882377 C31.3725136,8.75888043 30.4409018,9.76625755 29.7222653,10.6619465 C28.4948542,11.8724214 27.2387973,12.8888458 26.0042248,14.790664 C26.0549777,14.6749202 26.3336517,14.1901063 26.2087933,14.2390868 C25.9111258,14.5388977 25.5256527,15.1690934 25.3126773,15.5456509 C24.7995435,16.6235351 25.6807138,15.3921577 25.5415325,15.8336066 C25.0713674,16.7002817 24.6802897,17.5404385 23.9404803,18.6969412 C23.5764915,19.1440057 23.2234007,19.6016775 22.8796508,20.0693326 C22.802743,20.6717622 22.4951118,21.3378353 22.1448233,22.1486663 C21.7948461,22.9557535 21.4068821,23.9191417 21.2209956,25.051934 C21.1512493,25.150831 21.0771438,25.3742073 21.0223431,25.6615391 C20.982488,25.9507428 20.9171008,26.2995342 20.9086939,26.6514455 C20.8987301,26.8267771 20.8887664,27.0021088 20.8794253,27.169641 C20.8794253,27.3371732 20.8778685,27.4972179 20.8722639,27.6419758 C20.8538932,27.9324273 20.8610546,28.1617312 20.8115472,28.2765391 C20.8208882,28.5442163 20.8056312,28.6920939 20.7645307,28.7803837 C20.7212506,28.8686734 20.6505701,28.8964395 20.5745964,28.9185899 C20.4266968,28.9632028 20.2389422,28.9816095 20.2355171,29.4551922 C20.4204695,31.0971326 19.9269518,28.3433024 20.1143951,29.9967861 C20.0063506,29.5550251 19.9811298,29.2907797 20.0125779,29.1101445 C20.037176,28.9298211 20.0935335,28.8334199 20.1489569,28.7198599 C20.1997099,28.6069239 20.2694562,28.4758931 20.3024612,28.2309903 C20.3307956,27.9860875 20.3566391,27.6279367 20.3628665,27.0504654 C20.3351548,27.0869668 20.3055748,27.1228443 20.2812882,27.1599697 C20.2672766,26.9203705 20.2872041,26.6374064 20.3139818,26.3388434 C20.3585073,26.0427763 20.4139308,25.7311102 20.4727792,25.4312993 C20.5443938,25.1333603 20.6094696,24.8447806 20.655552,24.5877107 C20.7137778,24.3343845 20.7480282,24.1113202 20.7399326,23.9391083 C21.1135738,22.7529678 21.1979544,22.7960207 21.2237979,22.9813357 C21.2558688,23.1694585 21.2568029,23.5038989 21.5180403,22.963241 C21.5454406,22.6060261 21.7929779,21.7742926 22.0517244,21.0214896 C22.3073572,20.2677506 22.5608104,19.5888864 22.4714479,19.4871816 C22.1862352,20.0593493 21.9165908,20.6402524 21.6671854,21.2308269 C21.784571,20.9419352 21.6410305,21.1419131 21.6712332,21.0164979 C22.0411379,20.4533776 22.3898696,19.2884515 22.7258352,18.4195927 C23.0561963,17.5494859 23.3301998,16.9766942 23.399012,17.5844274 C23.3093381,17.8255865 22.9606064,18.4058656 22.9397448,18.6205065 C23.1346609,18.614579 23.6845361,17.4259426 24.2210225,16.6020086 C24.5999569,15.6523474 24.9882323,14.5083239 26.0029793,13.2750747 C26.3619861,12.8564001 26.255187,13.1817932 26.6166848,12.7677984 C27.5118667,11.4184933 28.0520895,10.853501 28.6094375,10.2841411 C29.1727015,9.71852491 29.7521566,9.14510926 30.8677868,7.869743 C32.451091,6.46116211 34.2075157,4.54374502 35.9885384,3.38069086 C35.6379385,3.45899735 37.0406495,2.45130826 37.4167816,2.23791527 C37.7029284,2.11905163 38.7189209,1.55842708 39.458419,1.18873309 C39.0190793,1.40306201 39.3155013,1.33349091 39.0334022,1.52379752 C39.8345511,1.05177473 40.3950127,0.96254901 40.6852074,1.01215352 C40.9816293,1.06674968 40.9950181,1.20869969 41,1.27327915 C40.8275023,1.24332925 40.5955335,1.30354102 40.4143175,1.3834074 C40.2271856,1.46452169 40.067454,1.5624828 39.9018065,1.66106786 C39.5705113,1.8694692 39.2071453,2.08535801 38.4941135,2.48843364" id="Fill-22" fill="#FFFFFF"></path>
                            <path d="M22.6681551,34.1840279 C22.4319386,34.1522849 22.9185754,34.7381697 23.3792747,35.1453869 C23.8334895,35.5510925 24.1950705,35.8534066 23.4326935,35.4863972 C24.2941888,36.2294854 24.7996611,36.4278035 25.3937532,36.6542368 C24.3145683,35.9398685 25.6877114,36.7694185 25.1507436,36.3171565 C26.0628787,36.7899759 27.0133026,37.1560783 27.9770039,37.4674619 C28.9425579,37.7842871 29.9013188,38.0524398 30.8690343,38.2159917 C32.7930404,38.5570021 34.763981,38.4808189 36.4798696,37.7667529 C37.1366439,37.5484821 37.7443223,37.2307499 38.2748058,36.8301836 C38.8046717,36.4281058 39.2666061,35.9598212 39.6677109,35.4513288 C40.4557166,34.418926 40.996081,33.2423193 41.4073755,31.9895294 C42.083603,30.5027484 41.9134654,31.5581271 41.9285956,31.9786461 C42.1885881,31.3292753 42.429745,30.6720444 42.6258201,30 C42.4930448,30.6965318 42.3117911,31.3836919 42.1092317,32.0705496 C42.1898232,32.1766619 42.5625202,31.2857421 42.8061474,30.8017371 C42.8561697,30.6073491 42.9108237,30.414775 42.9565231,30.2200847 C43.1226465,30.6333481 42.7981191,31.6742158 42.2318172,32.7985221 C41.6716909,33.9285724 40.8426175,35.0985282 40.2099279,35.93745 C40.6014606,35.4404455 40.7610997,35.1976872 40.7950654,35.1033652 C40.8330453,35.0111594 40.7595558,35.07525 40.6595111,35.1738044 C40.4486146,35.3666808 40.1169853,35.6813899 40.3951957,35.2384996 C40.2272196,35.4343992 40.0786966,35.6445075 39.8952815,35.8274076 C40.3408505,35.3016833 41.0556755,34.13989 41.7204781,32.531881 C41.2088302,33.6280721 40.5971376,34.6798231 39.8372309,35.6052067 C39.0717661,36.5230325 38.1639539,37.3196303 37.1279981,37.8770976 C36.0985267,38.4454482 34.9634526,38.7704359 33.8453615,38.9140351 C32.7244913,39.0479603 31.6209127,39.0165196 30.5889711,38.8810829 C30.7155708,38.8698972 31.0400982,38.8856176 30.6800611,38.7801099 C29.2358986,38.4880745 28.3219108,38.4593546 27.6737823,38.3369174 L28.3197493,38.4614708 C27.4912935,38.0696717 26.0039018,37.7141502 24.9911045,37.1844958 C24.4819268,36.8301836 24.087924,36.4976381 23.6154911,36.1043274 C23.1479987,35.7049704 22.5921953,35.2530107 21.8644016,34.5087133 L22.0008822,34.4857374 C21.6553578,34.0543351 21.3434903,33.5984454 21.0834978,33.115952 C21.3166265,33.4524276 21.2693832,33.283434 21.2462247,33.1999953 C21.3416376,33.2807132 21.3530625,33.3701982 21.5074523,33.6108402 C21.7081591,33.594213 21.4311837,32.7918712 21.2236838,31.9735068 C21.2721622,32.0971533 21.3150826,32.2235206 21.3660312,32.3356791 C21.4203765,32.4463261 21.472869,32.5476014 21.5216562,32.6289239 C21.3746771,32.3148195 21.1214777,31.586847 21.0430477,31.0641458 C21.0025976,30.8020394 20.9849971,30.5979774 21.0152575,30.5245151 C21.0458267,30.4504481 21.0838066,30.5187711 21.2054658,30.7814821 C21.2666042,31.0121478 21.3132299,31.2156052 21.3709717,31.3918544 C21.4203765,31.570522 21.460209,31.7295393 21.5068348,31.869813 C21.5834121,32.1570115 21.6525788,32.3828401 21.7186576,32.6095758 C21.8705772,33.0494429 22.0218792,33.504728 22.6681551,34.1840279" id="Fill-24" fill="#FFFFFF"></path>
                            <path d="M19.5586583,24.4480641 C18.4999854,25.8938138 19.4853537,24.0081411 19,24.3027684 C19.1250037,24.0816538 19.2932184,23.8660165 19.439056,23.6474964 C19.5787206,23.4278232 19.7515652,23.2130508 19.9367558,23.0000081 C20.24695,22.9962604 19.3017063,24.289219 19.5586583,24.4480641" id="Fill-26" fill="#FFFFFF"></path>
                            <path d="M43.2894562,22.3240651 C43.3801795,22.1988647 43.3958374,21.1783396 43.4361333,20.6050038 C43.4066597,19.4614859 43.3230745,19.1871173 43.3714295,17.5456361 C43.6145865,18.8263383 43.6712311,16.1895614 43.7688623,15 C43.82827,15.8171139 43.9988943,17.3318178 43.8582041,18.6320727 C43.7911977,18.4756511 43.7336321,19.638091 43.6919547,20.2152112 C43.736165,20.6639773 43.8319542,20.4927334 43.9077105,20.6624005 C43.9779405,20.8323829 44.0507033,21.3476913 43.9516906,23.1749231 C43.8729408,23.8393998 43.7674807,25.4966492 43.6431391,25.3638801 C43.5473499,25.8117001 43.6587969,26.2793882 43.4828765,26.7596909 L43.3930742,27 C43.4709029,26.2478516 43.5310013,25.4941263 43.5765933,24.7400857 C43.6023826,24.6606134 43.656264,24.496623 43.6668561,24.2903734 C43.6014616,24.4947308 43.6102116,23.8762976 43.5867248,23.3881107 C43.5648499,22.8996084 43.5208698,22.54356 43.3905413,23.2594413 C43.3166271,24.2805971 43.2210683,25.2985992 43.0928122,26.3071404 C42.9383062,27.0261754 43.0034704,25.973483 43.095345,24.880739 C43.3341271,23.3061155 43.3009693,23.3808573 43.2894562,22.3240651" id="Fill-28" fill="#FFFFFF"></path>
                            <path d="M42.1568331,29.8342541 L42,30 C42.404942,29.0141725 42.7312153,28.0106894 43,27 C42.7730711,27.9519577 42.5022693,28.8995916 42.1568331,29.8342541" id="Fill-30" fill="#FFFFFF"></path>
                            <path d="M42.9505,13 C43.0522931,13.3292099 43.0231207,13.6209098 43.1118793,13.9505188 L42.8881207,14 C42.9163621,13.6671987 42.9368448,13.3337989 42.9505,13" id="Fill-32" fill="#FFFFFF"></path>
                            <path d="M37,39 C36.6752547,39.2500761 35.989976,39.5028902 35.2997266,39.659568 C34.6094773,39.8238515 33.9225416,39.9020383 33.5848728,40 C34.1521829,39.9714025 33.9520338,39.9263766 34.085577,39.8834804 C33.903322,39.8929115 33.7217298,39.8950411 33.5411316,39.8901734 C33.3598708,39.8889565 33.1792726,39.8868269 33,39.8734408 C33.6637395,39.7946456 34.3155497,39.7191968 34.9819402,39.5959842 C35.6460111,39.4666869 36.3239997,39.2874962 37,39" id="Fill-34" fill="#FFFFFF"></path>
                            <path d="M42.4226572,6.59267304 C42.2159364,5.74099371 42.0038808,5.25687476 41.7961598,4.74253691 C41.5801032,4.2328244 41.3853855,3.6747 41.040962,2.77306699 C40.922931,2.36572869 41.37705,3.1985983 41.1666616,2.62135583 C40.9399355,2.05613924 40.7625557,1.99138448 40.567838,1.80637086 C40.5895104,1.87050892 40.6061814,1.94667285 40.6241861,2.01512789 C40.5791743,1.7955784 40.3507812,1.42801802 40.2357511,1.29912521 C40.2224142,1.28463247 40.2104111,1.2682896 40.1987414,1.25071331 C40.1757353,1.23067017 40.1343912,1.20723511 40.109718,1.18750033 C40.0540368,1.14679733 40.0166937,1.11071968 40.0043571,1.08142585 C39.9800174,1.02314657 40.0553705,0.991077539 40.2880981,1.00217836 C40.505155,1.08790133 40.7162102,1.27414837 40.8902558,1.47457978 C41.067969,1.67408613 41.2213425,1.88685178 41.3610458,2.09530046 C41.6427863,2.51158109 41.8755139,2.91151885 42.0839018,3.303131 C42.4953429,4.08882214 42.8050907,4.85354508 42.91712,5.85878571 L42.7424076,6.25039786 C42.8541035,6.63615124 42.9581308,7.02467983 43.055823,7.41505856 C43.0441533,7.50047318 42.9768023,7.47703812 43.070827,7.86803355 C43.3258938,8.67500127 43.081163,7.24268754 43.2151981,7.28863259 C43.4162508,8.04379649 43.5952977,8.80574422 43.755673,9.57200893 C43.7806796,9.8569299 43.6479781,9.34629233 43.6336411,9.43294037 C43.6629821,10.5402468 44.1131,11.1948867 43.9730633,12.1646664 C43.8853737,11.6882563 43.7880148,11.2140048 43.6869884,10.7409866 C43.8553658,12.4745642 43.8180227,13.7829188 43.7763451,15 C43.7383351,13.2658057 43.4685978,11.9324743 43.1925255,10.6537219 C42.9104516,9.37342766 42.6273775,8.14555397 42.4226572,6.59267304" id="Fill-36" fill="#FFFFFF"></path>
                            <path d="M28,38.0644733 C27.9507648,38.0491374 27.8910134,38.0338015 27.8393881,38.0184656 C27.5296367,37.9931145 27.251912,37.9674504 27,37.9355267 L28,38.0644733 Z" id="Fill-38" fill="#FFFFFF"></path>
                            <path d="M34,41 L27,39.618022 L27.3141342,38 C27.4712012,38.0303297 27.6440407,38.0543956 27.8375816,38.0787912 L27.9617894,38.0942857 L28.0758109,38.1463736 C28.1379148,38.1730769 28.1717598,38.1875824 28.2019903,38.2024176 L34,41 Z" id="Fill-40" fill="#2C2C2C"></path>
                            <path d="M41,35 C40.6518021,35.3578345 40.313989,35.6941021 40,36 C40.5198534,35.5149648 40.8295663,35.1989437 41,35" id="Fill-42" fill="#FFFFFF"></path>
                            <path d="M40.3822969,36 L39,34.8492837 C39.173913,34.5894938 39.3613373,34.3037249 39.5543045,34 L41,35.0510029 C40.8745886,35.2744986 40.6726139,35.5851003 40.3822969,36" id="Fill-44" fill="#2C2C2C"></path>
                            <path d="M43.8766878,20.6609974 C43.8456323,20.6093115 43.8127319,20.5897717 43.7798316,20.5740138 C43.8145768,19.8274043 43.8354854,19.0782736 43.84225,18.3316642 C43.9065133,17.6663655 43.8800701,16.9698662 43.8281059,16.3464835 C43.8001252,15.1198883 43.7373993,13.912833 43.6442329,12.7470633 C43.7158757,12.1810394 43.6104101,11.7180722 43.5024846,11.2138193 C43.4591299,10.8028532 43.4114705,10.3991357 43.3607363,10.0032972 C43.3997862,10.1041478 43.4597449,10.320031 43.4428334,10.1088751 C43.3751878,9.75054042 43.30293,9.39346634 43.2275974,9.03733773 C42.5837342,4.67933204 41.5075541,1.47606549 40.3440497,1.05911137 C39.6823527,0.822112508 38.4945573,1.30871656 37.014041,2.32226489 C36.851999,2.40735756 36.720705,2.47385591 36.64445,2.50631719 C36.2730141,2.72188531 34.8878166,3.73984585 35.2340391,3.66074118 C33.4752533,4.83565044 31.740451,6.77261189 30.176915,8.19555054 C29.0752141,9.4839167 28.5033012,10.0631772 27.9467623,10.6345588 C27.3963731,11.2097223 26.8632027,11.7801583 25.9788901,13.1435321 C25.6222133,13.5614317 25.727679,13.233037 25.372847,13.6559791 C24.3707696,14.901799 23.987342,16.0574836 23.6134463,17.0168247 C23.0833507,17.8491572 22.540341,19.0499094 22.3478585,19.0558974 C22.3687671,18.8390686 22.7131447,18.2525595 22.8013915,18.0092575 C22.7334384,17.3953295 22.462856,17.9739598 22.1369272,18.8529356 C21.8051562,19.7303356 21.4607786,20.907451 21.0951848,21.4763113 C21.0653593,21.6030048 21.2071075,21.4009885 21.0911876,21.6928249 C21.3374791,21.0962307 21.6037568,20.5094064 21.8854085,19.9314065 C21.9739627,20.034148 21.7233665,20.719932 21.4712329,21.4813538 C21.3516232,21.836537 21.2357032,22.207478 21.1422293,22.5406001 C21.046603,22.7927265 19.8661871,29.5040175 20.0125476,29.4589499 C20.0168523,29.4576892 20.0214645,29.4557983 20.0260767,29.4542225 C20.9273007,37.1116179 27.1470068,38.0016243 27.9867347,38.3921052 C28.5823236,38.4686886 29.3633228,38.5427507 30.4407329,38.77061 C30.7992546,38.8809153 30.4757856,38.8645271 30.3500263,38.8758728 C31.3776245,39.0173788 32.4765582,39.04984 33.5927107,38.9105402 C34.6412176,38.7693494 35.7038686,38.457658 36.6804251,37.927247 C38.0733097,37.2383115 39.4163824,36.0700206 40.5540586,34.1872663 C40.1955368,34.8695835 39.8640734,35.387073 39.6168594,35.6924612 C39.7995026,35.5017906 39.9477079,35.2827557 40.1149771,35.0788484 C39.8376301,35.5402398 40.1678636,35.2121603 40.3778725,35.0114046 C40.477496,34.9083479 40.5509838,34.8415344 40.5131637,34.9376576 C40.501787,34.9698038 40.4753437,35.0211745 40.4335264,35.0911396 C40.9571649,34.32436 41.5256955,33.4179655 41.9438683,32.5348926 C42.5077867,31.3631349 42.8309482,30.2780457 42.6655239,29.8469094 C42.6197094,30.0501864 42.5652854,30.2509421 42.5154737,30.4532736 C42.2728719,30.9578416 41.9017435,31.8866124 41.8214912,31.7759919 C41.9054333,31.4787979 41.9841482,31.1812887 42.0585584,30.8834643 C42.7405491,28.8831561 43.2039215,26.5891206 43.4874181,24.1809978 C43.4994098,24.3127339 43.518781,24.3716684 43.5550637,24.2862606 C43.5409196,24.4926891 43.4692767,24.6565713 43.434839,24.735676 C43.3736504,25.4895341 43.2937056,26.2427618 43.1897774,26.9940987 L43.3093871,26.7542634 C43.5443019,26.2742776 43.395789,25.8068982 43.5237007,25.3593738 C43.6897399,25.4920553 43.8305658,23.8355846 43.9354165,23.1718617 C44.0676329,21.3455207 43.9707767,20.8308676 43.8766878,20.6609974" id="Fill-46" fill="#FFFFFF"></path>
                            <g id="Group-50" transform="translate(19.000000, 0.000000)">
                                <mask id="mask-4" fill="white">
                                    <use xlink:href="#path-3"></use>
                                </mask>
                                <g id="Clip-49"></g>
                                <path d="M21.7883714,35.5262677 C21.8007524,35.500126 21.8115857,35.4705197 21.8205619,35.4374488 L21.8335619,35.4472126 C21.8131333,35.4809134 21.7976571,35.5067402 21.7883714,35.5262677 Z M1.31151429,21.3615433 C1.2830381,21.4881575 1.28272857,21.7234331 1.43315714,21.9420157 C1.47896667,21.7911496 1.52818095,21.6342992 1.58018095,21.4752441 L1.31151429,21.3615433 Z M11.9789429,38.1105197 C12.8471571,38.1924094 13.6986571,38.1832756 14.515181,38.0821732 C15.5511571,37.9439055 16.5085143,37.6418583 17.3547524,37.1854803 C18.7835143,36.4834331 19.9875619,35.3250079 20.9588476,33.7291024 L21.3036571,33.931937 C21.7057286,33.308 22.0347524,32.7347717 22.2848476,32.2207559 L22.0424905,31.8900472 L22.1492762,31.5152441 C22.2313,31.2261102 22.308681,30.9363465 22.381419,30.6462677 L22.4006095,30.5820157 C23.0345143,28.7354016 23.505919,26.5372913 23.8012048,24.0491024 L24.154681,21.0720945 L24.0658476,21.0305197 L24.0906095,20.5010709 C24.1255857,19.763748 24.1463238,19.020126 24.1528238,18.2906772 L24.1562286,18.2204409 C24.206681,17.7032756 24.2017286,17.1017008 24.1413714,16.3807559 L24.1388952,16.332252 C24.1116571,15.1435906 24.0500619,13.9489449 23.9562762,12.7810709 L23.9491571,12.6982362 L23.9599905,12.6157165 C24.0126095,12.203748 23.9355381,11.8491024 23.8389667,11.3999685 L23.8154429,11.2695748 C23.7721095,10.8648504 23.7250619,10.4670551 23.674919,10.0771339 L23.5693714,9.25981102 C23.563181,9.23209449 23.5576095,9.20406299 23.551419,9.17634646 L23.5427524,9.12752756 C22.7992762,4.13004724 21.6800381,1.96815748 21.1498238,1.77949606 C21.1337286,1.77382677 20.8697048,1.69004724 20.1379905,2.00469291 L16.6837048,4.29571654 C15.5152524,5.07083465 14.3356571,6.2160315 13.1947524,7.32343307 C12.6843476,7.8191811 12.2008714,8.28847244 11.7208,8.72406299 C10.6662524,9.9464252 10.0741333,10.5498898 9.5510381,11.0828031 L9.47334762,11.1618583 C8.98027619,11.6733543 8.4655381,12.2068976 7.58896667,13.5489449 L7.5270619,13.6314646 C7.32463333,13.8670551 7.16739524,13.9952441 6.97239524,14.0796535 C6.95784762,14.0957165 6.94113333,14.1149291 6.92132381,14.1382362 C6.1035619,15.148 5.72934762,16.1180787 5.39908571,16.9738268 L5.2533,17.3486299 L5.21120476,17.4141417 C5.02115714,17.7108346 4.81872857,18.076189 4.64013333,18.3987087 C4.21113333,19.1738268 3.97125238,19.6075276 3.59920476,19.7530394 C3.67534762,20.1120945 3.51841905,20.5772913 3.24510952,21.3851654 L3.1395619,21.6985512 C3.01699048,22.0607559 2.9068,22.4131969 2.81951429,22.7218583 L2.8093,22.7580787 C2.67713333,23.2941417 1.80613333,28.2094173 1.70863333,29.2311496 L1.72039524,29.3193386 C2.45860952,35.5457953 6.97177619,36.9070551 8.67075238,37.4194961 C8.87070476,37.4796535 9.02949048,37.5275276 9.15887143,37.5763465 L9.38791905,37.6046929 C9.95651429,37.6727244 10.6647048,37.7580787 11.5923476,37.9530394 L11.6579667,37.9697323 C11.7861095,38.0087874 11.8913476,38.0566614 11.9789429,38.1105197 Z M13.1347048,39.7404409 C12.5119429,39.7404409 11.8795857,39.6969764 11.2419667,39.6097323 L4.37951429,38.6730394 L6.82134762,38.4506772 C4.5318,37.5454803 0.974442857,35.3933543 0.214252381,29.7470551 C0.0724904762,29.4446929 0.159466667,28.8245354 0.664609524,25.8724094 C0.754990476,25.3435906 1.19172857,22.8081575 1.33349048,22.2872126 L1.33225238,22.2868976 C1.36041905,22.1864252 1.3910619,22.0821732 1.42325238,21.9750866 C1.33410952,21.860126 1.19234762,21.6106772 1.27591905,21.2563465 L1.3078,21.1224882 L1.38208571,21.0075276 C1.5950381,20.6787087 1.84296667,19.972252 2.06210952,19.3489449 C2.16084762,19.0667402 2.25865714,18.788315 2.3555381,18.5344567 C2.6845619,17.6535118 2.9653,16.8831181 3.68246667,16.9341417 C3.74499048,16.828 3.80813333,16.7231181 3.87158571,16.6220157 L3.9585619,16.3980787 C4.31234762,15.4809134 4.75310952,14.3394961 5.73770476,13.124378 C5.95499048,12.8667402 6.11068095,12.7379213 6.31125238,12.652252 C6.31713333,12.6459528 6.32332381,12.6390236 6.33013333,12.6314646 C7.19989524,11.3051654 7.74868095,10.7023307 8.3733,10.0541417 L8.45594286,9.96973228 C8.99265714,9.42327559 9.54763333,8.85792126 10.5885619,7.64910236 L10.6566571,7.5791811 C11.128681,7.15335433 11.6133952,6.68248819 12.1265857,6.18390551 C13.2371571,5.10611024 14.3827048,3.99366929 15.5762286,3.15587402 C15.743681,2.91051969 16.0312286,2.69319685 16.3410619,2.4591811 C16.6465619,2.22862992 17.0737048,1.9272126 17.2996571,1.79713386 L17.3850857,1.75461417 C17.4442048,1.72973228 17.5407762,1.68059843 17.6608714,1.61823622 C19.4533238,0.406897638 20.762919,-0.026488189 21.6605381,0.29288189 C23.517681,0.953354331 24.5388,5.31398425 25.0693238,8.86674016 C25.1445381,9.22044094 25.2166571,9.57508661 25.2841333,9.93067717 L25.2958952,10.0163465 C25.3067286,10.1520945 25.2958952,10.268315 25.2708238,10.3678425 C25.2983714,10.5952441 25.3243714,10.8251654 25.3494429,11.0572913 L25.350681,11.0623307 C25.4593238,11.5665827 25.571681,12.0872126 25.5048238,12.7306772 C25.5970619,13.8963465 25.6577286,15.0865827 25.6852762,16.2714646 C25.7508952,17.0629606 25.7555381,17.740126 25.7001333,18.3394961 C25.695181,18.8513071 25.683419,19.3700472 25.6648476,19.8884724 L25.7233476,19.7527244 L25.6831095,20.3328819 C25.8282762,20.6478425 25.9353714,21.228315 25.7923714,23.1933543 L25.7843238,23.2610709 C25.7577048,23.4273701 25.728919,23.6588661 25.6982762,23.9073701 C25.5778714,24.8698898 25.5110143,25.4056378 25.3225143,25.7215433 C25.3188,25.7804409 25.3169429,25.8456378 25.3153952,25.9149291 C25.3073476,26.2179213 25.2965143,26.6330394 25.0823238,27.068 L24.7919905,27.6450079 C24.6709667,28.2311496 24.5378714,28.7968189 24.3936333,29.3410709 L24.4620381,29.5177638 C24.7146095,30.1709921 24.4617286,31.2891024 23.7095857,32.8405984 C23.3384667,33.6188661 22.8057762,34.5146142 22.1291571,35.4985512 L21.8481095,35.3105197 L21.8391333,35.3253228 C21.8397524,35.3187087 21.8400619,35.3120945 21.840681,35.3054803 L21.802919,35.2802835 C21.7806333,35.3120945 21.7577286,35.3435906 21.7354429,35.3754016 L21.7855857,35.411937 C21.7657762,35.443748 21.7456571,35.4752441 21.7261571,35.5061102 L21.7670143,35.5407559 C21.7438,35.5687874 21.7212048,35.5971339 21.698919,35.6254803 C21.8394429,35.6028031 21.9601571,35.5432756 22.0359905,35.4746142 C22.0223714,35.4868976 22.0062762,35.5035906 21.9883238,35.5218583 L21.9344667,35.5738268 C21.809419,35.6928819 21.6370143,35.8576063 21.4342762,35.9624882 C21.3698952,36.0412283 21.3008714,36.1212283 21.2253476,36.1996535 L21.1495143,36.1297323 C20.2466333,37.1980787 19.2103476,38.0223307 18.0536571,38.5905197 C17.069681,39.1215433 15.9362048,39.4805984 14.7095619,39.644378 C14.1932762,39.7086299 13.6677048,39.7404409 13.1347048,39.7404409 Z" id="Fill-48" fill="#2C2C2C" mask="url(#mask-4)"></path>
                            </g>
                            <path d="M34,39.9491412 C33.5981375,39.9835687 33.2514327,40.0161183 33,40.0508588 C34.0601719,40.0255076 33.8803725,39.9876374 34,39.9491412" id="Fill-51" fill="#FFFFFF"></path>
                            <path d="M27,41 L32.9898059,38.9006335 C33.144933,38.8464336 33.3348846,38.8017363 33.5172381,38.7619662 L37,38 L34.2026467,40.2820272 C33.9427296,40.5773111 33.5881534,40.5991319 33.2712508,40.618489 L27,41 Z" id="Fill-53" fill="#2C2C2C"></path>
                            <path d="M33,38.9696049 C33.1792726,38.984127 33.3598708,38.9864911 33.5411316,38.9881797 C33.7220611,38.9935832 33.9036534,38.9912192 34.085577,38.9807497 C34.0680142,38.9871665 34.0564162,38.9935832 34.0478005,39 C34.3997183,38.9297535 34.8480656,38.8514016 35.2997266,38.7321851 C35.989976,38.5582573 36.6752547,38.2776089 37,38 C36.3239997,38.3191489 35.6460111,38.5180682 34.9819402,38.6616008 C34.315881,38.7983789 33.6637395,38.8821344 33,38.9696049" id="Fill-55" fill="#FFFFFF"></path>
                            <path d="M31.188226,41 L32.1915862,40.1698667 L26,39.6216399 L33.3448667,38.5729614 C33.9316449,38.4892704 34.4855514,38.4099842 35.0508247,38.2846171 C35.7054972,38.131466 36.2480367,37.9393494 36.7503312,37.6828552 L42,35 L38.3899311,38.3388299 L39.6765423,38.2595437 L37.5669054,39.1005195 C37.0065475,39.6185905 35.9819896,39.9265869 35.6815345,40.0082449 C35.3356118,40.1071832 34.9976767,40.1779986 34.6999866,40.2403433 L31.188226,41 Z" id="Fill-57" fill="#2C2C2C"></path>
                            <path d="M28.5766913,16.9113785 L28.5324862,16.972194 C28.6445175,16.7598077 28.7956923,16.5533471 28.9529411,16.3543714 C28.4474504,16.7011754 27.9375729,17.177719 28.20989,17.7665373 C27.9335235,17.6860738 27.5663848,18.0989951 27.6247625,18.1373556 C27.6203758,18.2555559 27.6072154,18.3706374 27.5866314,18.4838477 C27.6041785,18.4074386 27.6193634,18.3304057 27.6304991,18.2521253 C27.6193634,18.3304057 27.6041785,18.4074386 27.5866314,18.4838477 C27.5161056,18.8384486 27.3926012,19.1846288 27.2151058,19.5198935 C27.1277079,19.6883055 27.0288369,19.8548462 26.9252416,20.0223226 C26.8253583,20.1894871 26.7221005,20.3613298 26.6178304,20.5350436 C26.5078237,20.7287175 26.3026579,21.0879964 26.1244876,21.4619335 C25.9449676,21.8352468 25.7610607,22.2098075 25.6402559,22.409407 C25.6071864,22.4689749 25.5747918,22.5272954 25.5423972,22.5859277 C25.606174,22.4904942 25.606174,22.4904942 25.6702884,22.3953726 C25.6368814,22.6741881 25.6422805,22.9377217 25.6095485,23.1791122 C25.6621897,23.1501079 25.7023455,23.1538504 25.7877188,23.0740107 L25.7236045,23.1831666 C25.8018914,23.3219506 25.7168556,23.5645886 25.7273164,23.692457 C25.67535,23.6516015 25.6338444,23.7389262 25.5987503,23.816271 L25.648692,23.7953754 C25.5157391,24.0891608 25.4779454,24.4618504 25.3969589,24.7350521 C25.3871731,24.7734126 25.3568031,24.797115 25.3314948,24.8099019 L25.3085487,25.084663 C25.2326238,25.0466143 25.1793077,25.2889405 25.1617606,25.1517159 C25.207653,25.3706515 25.087523,25.557776 25.1573739,25.7701622 C25.0983212,26.1135356 25.0504042,26.4700077 25.0176722,26.8302223 C24.9771789,27.1888775 25.0156475,27.5618789 25.0399434,27.9214697 L25.072338,27.9064998 C25.1070947,28.1606772 25.2302617,28.3861621 25.1695218,28.68369 C25.2791911,28.9032494 25.3352067,29.2070148 25.5083154,29.2915326 C25.5302492,29.5344826 25.6169722,29.629916 25.6594902,29.8644453 C25.7441885,29.8005112 25.7640977,30.0902422 25.8288869,29.9707944 C25.9510416,29.8120505 25.8487961,29.8070605 25.9469922,29.6738903 L25.9183095,29.6785684 C25.9857983,29.3726199 26.0391144,29.0704139 26.0809574,28.7691435 C26.1184136,28.4678731 26.2044618,28.1656671 26.2486669,27.8625255 C26.233482,27.6554411 26.2523788,27.4421192 26.2776871,27.2278617 C26.320205,27.014228 26.3714965,26.7999705 26.4005166,26.5869605 C26.428187,26.3571093 26.4514706,26.1163425 26.4683428,25.8818131 C26.494326,25.6482194 26.527058,25.4230463 26.5419055,25.2203282 C26.542243,25.121776 26.6296409,25.0703167 26.6897059,25.0004569 C26.7190635,24.8180106 26.7663056,24.6134212 26.8233336,24.4047774 C26.8881228,24.197693 26.9532495,23.984683 26.9964423,23.7788461 C26.9934053,23.7857073 26.9896934,23.7928804 26.9873313,23.7975586 C27.043347,23.5814298 27.1796742,23.4476358 27.2336652,23.2371208 C27.2097067,23.2308833 27.2191551,23.1984484 27.2117314,23.1791122 C27.3244376,23.1775529 27.450979,21.9029234 27.5397267,21.8480336 C27.5431011,21.8249549 27.546813,21.8012525 27.552887,21.7778619 C27.7850483,21.3652525 28.1872812,21.004726 28.3273204,20.6342196 C28.3107857,20.5350436 28.3141601,20.4311896 28.2891893,20.3423055 C28.3651141,20.2967718 28.2841276,20.249367 28.3333944,20.1773241 C28.6384435,20.0681681 28.6057115,19.9190923 28.482882,19.9886402 C28.5328236,19.8161739 28.62967,19.6630437 28.6917596,19.5173985 C28.7076195,19.4456674 28.7238168,19.3733126 28.7400141,19.298151 C28.7524995,19.2345287 28.7997416,19.2167518 28.8638559,19.2102025 C28.9097483,19.0545773 28.9387685,19.1191353 29.0386518,18.9787919 C29.1300991,18.9753613 29.1230127,18.5518363 29.1675553,18.5190895 L29.1651932,18.5484057 C29.2708131,18.3812411 29.466193,18.3291582 29.5687759,18.1669836 C29.8822612,17.7294243 30.1161097,17.1989264 30.4009122,16.791307 C30.330049,16.749204 30.3607564,16.892978 30.260873,16.8477562 C30.4235209,16.6041825 30.666143,16.4011525 30.8382393,16.1616332 C30.8861563,16.1273271 30.9573569,16.092709 30.993126,16.0849122 C31.0704006,16.020978 30.9884018,16.0194186 31.0346315,15.9667119 L31.1044824,15.9947806 C31.1051573,15.8809465 31.2549823,15.9108864 31.2792783,15.8173242 C31.2556572,15.7986118 31.2715171,15.7680481 31.2921011,15.7415388 C31.3616145,15.7786518 31.3444049,15.6532784 31.4044699,15.6925746 L31.3997457,15.6888321 C31.4118937,15.6726146 31.4156055,15.6582684 31.4409138,15.6445459 C31.4378768,15.5996361 31.4503622,15.1932641 31.4432759,15.1433643 L31.4645349,15.1349437 C31.4928802,15.0890982 31.4557613,15.0407577 31.4253914,15.059782 L31.4672344,15.0073872 L31.4675719,15.0161196 L31.5090775,14.9643485 C31.5222378,14.9577992 31.5613812,14.9649723 31.5802781,14.9980309 C31.5782534,14.953433 31.5893891,14.91133 31.622796,14.8879394 C31.5222378,14.9487548 31.3879351,15.0192384 31.2583568,15.0703857 C31.2593691,15.0192384 31.3423802,14.9737048 31.3629643,14.9294186 C31.4405764,14.9078993 31.5468712,14.8324258 31.6305572,14.7747291 C31.637981,14.7557048 31.5711671,14.6989437 31.6305572,14.680855 C31.6953464,14.6936418 31.658565,14.6365689 31.7182926,14.6281483 C31.7199798,14.6805431 31.6831984,14.7089237 31.6551906,14.7438536 C31.7206547,14.7744172 31.7584484,14.6789837 31.7962421,14.6615188 C31.7867937,14.6365689 31.8566445,14.579184 31.8711546,14.5255417 C31.9156972,14.5804315 31.9332442,14.5133786 31.9831859,14.5071411 C32.0115312,14.4821912 32.0014079,14.4488207 31.9723877,14.447885 C31.9160346,14.3989208 31.8502331,14.5411354 31.8134517,14.4591125 C31.8515829,14.4672212 31.8826277,14.4029752 31.9021994,14.3702284 C31.8681176,14.3483972 31.8606938,14.3752184 31.8424719,14.3343629 C31.8741916,14.3059823 31.8590066,14.2451669 31.9082734,14.2489094 C31.9129976,14.2610725 31.8971378,14.2707406 31.8890391,14.2797849 C31.9248081,14.2364344 31.9410054,14.6593357 31.9622644,14.5897878 C31.9210963,14.5835503 31.9396557,14.2105489 31.9160346,14.2401769 C31.8795907,14.2554587 31.868455,14.1815446 31.8360604,14.2011926 L31.8552947,14.2576418 C31.8154764,14.2863343 31.7436009,14.2638793 31.7297657,14.2358107 C31.781732,14.1746833 31.8320111,14.5670209 31.8374102,14.489988 L31.8046782,14.5021511 C31.7992791,14.4650381 31.8249248,14.3898765 31.8785784,14.3880052 C31.8451714,14.3664859 31.8559696,14.3268779 31.8617062,14.2947549 L31.8738541,14.2897649 C31.8758788,14.2529637 31.910973,14.2217763 31.853945,14.2099251 C31.7446132,14.3683572 31.587027,13.885576 31.4540741,14.0259194 C31.5772411,14.0093901 31.5144766,14.0951554 31.4736459,14.1709408 C31.4429385,14.1615846 31.3832109,14.1690696 31.3271953,14.2071182 C31.301887,14.2542112 31.3369811,14.249845 31.3501414,14.2698049 C31.3157222,14.2832155 31.2684801,14.3206404 31.232711,14.2900768 C31.2556572,14.3527634 31.1631976,14.3259423 31.1513871,14.3770896 C31.1480126,14.4266776 31.1736584,14.3870696 31.17872,14.4266776 C31.1358647,14.4781368 31.0761371,14.5501797 31.0369937,14.5879165 C30.9877269,14.5823028 30.885144,14.5938421 30.8524119,14.5217992 C30.917876,14.4438307 30.9259747,14.6100596 30.9732168,14.5164973 C30.8611855,14.5021511 31.002237,14.4260539 30.9479085,14.3714759 C30.8902056,14.3758421 30.8507247,14.4313557 30.8294658,14.4843743 L30.8473503,14.4818793 C30.8301406,14.5299079 30.7909972,14.6225345 30.7137225,14.6399995 C30.6907764,14.6116189 30.6543325,14.6178564 30.6678302,14.5829265 L30.6226127,14.6365689 C30.627337,14.6493557 30.6323986,14.6627663 30.6506206,14.6502913 C30.6560197,14.690835 30.6246374,14.7101712 30.5929177,14.7207749 C30.5561363,14.7086118 30.5254289,15.1034444 30.5115937,15.082237 C30.4852731,15.1240281 30.4295949,15.1062513 30.4360063,15.1651955 C30.45929,15.1845317 30.587856,14.707988 30.5622103,14.7678679 C30.5028202,14.7834616 30.4123853,15.3276819 30.3340983,15.3183256 C30.3168887,15.3507606 30.2996791,15.3916161 30.3378102,15.4028435 C30.288206,15.446194 30.2844941,15.352008 30.2294908,15.371968 C30.2345524,15.3757105 30.2483876,15.3782055 30.2396141,15.3894329 L30.1748249,15.4019079 C30.1744874,15.5116876 30.0317487,15.5937105 30.0459214,15.7159651 C30.0253373,15.671679 29.9801199,15.6093042 29.982482,15.5366375 L30.0057656,15.5366375 C30.0010414,15.5232269 30.0179136,15.4717677 29.9841692,15.4549265 C29.9288284,15.4948464 29.9062197,15.542875 29.904195,15.6155417 C29.8886726,15.6208435 29.8721379,15.6277047 29.8579652,15.6308235 L29.871463,15.637061 C29.8394058,15.6436103 29.8370437,15.6398678 29.8282702,15.6261454 C29.8265829,15.6242741 29.8242208,15.6217791 29.8232085,15.6183485 C29.7047658,15.5987005 29.75437,15.8569322 29.643351,15.9246089 C29.6393017,15.9601625 29.6578611,15.9361482 29.6548241,15.98137 C29.5562905,16.0593385 29.4850899,16.1117333 29.4000541,16.2031125 C29.4226628,16.2580023 29.4381852,16.2692298 29.5063488,16.2527004 L29.445609,16.3234959 C29.3750832,16.1937562 29.2495541,16.4130037 29.1837526,16.2764029 C29.1442717,16.286071 29.1101899,16.3300452 29.1024287,16.3833757 C29.1280744,16.4024 29.1699174,16.4329637 29.136173,16.4878535 C29.0521496,16.5452383 29.0767829,16.5340109 29.0022079,16.5789207 C28.9556406,16.5751783 28.9549658,16.5443027 28.9235835,16.5318278 C28.9121104,16.6540824 28.7909681,16.5767376 28.7420388,16.6731067 C28.71943,16.7376647 28.6576778,16.8561768 28.7217921,16.8917305 C28.6735377,16.9693871 28.6256207,16.9456847 28.5766913,16.9113785" id="Fill-59" fill="#3A3A3A"></path>
                            <path d="M38.3668321,14.8310323 L38.3552219,14.9359864 C38.3620689,14.5946493 38.4061281,14.2369229 38.4391725,13.8832939 C38.194763,14.6498053 37.9512465,15.5291503 38.3766561,16.1613962 C38.1212317,16.2061513 37.9443994,16.9335808 38.0009619,16.9540673 C38.0316248,17.1122864 38.0539521,17.2720813 38.06973,17.433137 C38.0622876,17.3228249 38.0524636,17.212828 38.0390672,17.1031462 C38.0524636,17.212828 38.0622876,17.3228249 38.06973,17.433137 C38.1590393,18.4508448 37.924156,19.5252845 37.6216955,20.600985 C37.5356609,20.8988277 37.4043764,21.4588979 37.2382612,22.0076217 C37.0846493,22.5604429 36.8905506,23.0984507 36.7735556,23.3887291 L36.6693615,23.6396103 C36.735748,23.5025082 36.735748,23.5025082 36.8024322,23.3657212 C36.751526,23.7486617 36.7181838,24.1051273 36.649118,24.4373243 C36.7018105,24.3938298 36.7431904,24.3988727 36.8313089,24.2809963 C36.8074931,24.333631 36.7812957,24.3850049 36.7539075,24.4357484 C36.7997529,24.6204424 36.6738269,24.9602036 36.6577513,25.1379637 C36.6187529,25.0821773 36.5633812,25.2041509 36.5160473,25.3122568 L36.5654651,25.2826301 C36.3728549,25.6854268 36.2341279,26.1944383 36.0486624,26.5468067 C36.0251443,26.597235 35.9891229,26.6252858 35.9614371,26.6388385 L35.8372972,27.0047594 C35.7869864,26.9439302 35.6420077,27.2556406 35.6821969,27.0712619 C35.6259321,27.364692 35.4422528,27.5894135 35.3919419,27.8765401 C34.9191985,28.7205852 34.3887017,29.5945721 33.8183135,30.4304226 L33.8537395,30.4313681 C33.6501144,30.717234 33.5355009,31.0557345 33.1955305,31.3160711 C33.0300107,31.5934272 32.7308249,31.9231028 32.7284433,32.1345868 C32.4521801,32.365927 32.3777557,32.5146907 32.1095304,32.7592684 C32.2256324,32.7756576 31.8755402,33.0404066 32.0493955,32.9947059 C32.3015452,32.9499507 32.2637376,32.861701 32.4774844,32.8175762 L32.458134,32.7986656 C33.3122279,32.3586779 34.0689747,31.7226499 34.7486178,31.0030999 C35.134136,30.4575278 35.6021163,29.9163682 35.9572693,29.3241499 C36.3347496,28.6852853 36.6753154,27.9572255 36.8854898,27.3587036 C36.9298467,27.2127765 37.03285,27.1450134 37.1191822,27.044787 C37.2329027,26.7772013 37.3490046,26.469273 37.475526,26.1553563 C37.6065129,25.8433307 37.7169586,25.5139703 37.8065655,25.1991081 C37.8018024,25.2101393 37.7967415,25.2208553 37.7934669,25.2284196 C37.901531,24.8993744 38.0566314,24.6806413 38.1414751,24.3519112 C38.1206363,24.3462381 38.1349258,24.2958097 38.1316511,24.2677589 C38.2674011,24.2450661 38.4707284,22.2963242 38.5332449,22.1970434 L38.5463436,22.0892527 C38.750564,21.4131972 39.0807104,20.7317836 39.163768,20.124752 C39.1390591,19.9851284 39.1238765,19.8310066 39.089046,19.7118696 C39.1470969,19.6129039 39.067314,19.5782343 39.0970838,19.4521634 C39.3441726,19.1596788 39.2885032,18.9541831 39.19324,19.1117718 C39.2072318,18.8397737 39.2590312,18.5734488 39.2792746,18.3335988 C39.276893,18.2217108 39.2745114,18.110138 39.2718322,17.9954134 C39.2664736,17.8983388 39.3027927,17.8494863 39.3557828,17.8075677 C39.3531035,17.5614142 39.3941858,17.6389478 39.4400312,17.3861755 C39.5156463,17.3316498 39.392995,16.735019 39.4159177,16.6653648 L39.4233601,16.7082289 C39.4584884,16.4147988 39.6100164,16.2301048 39.6382977,15.9410871 C39.741301,15.1405366 39.7308815,14.2580398 39.7672006,13.5132756 C39.6933717,13.5041355 39.7797039,13.6781134 39.6814638,13.684417 C39.7061727,13.24569 39.8005427,12.803181 39.8121529,12.3581505 C39.831801,12.2780954 39.8684177,12.1794449 39.8919358,12.1428843 C39.9187286,12.0004241 39.8562122,12.0590471 39.8651431,11.9550386 L39.932125,11.9402252 C39.8749671,11.7886249 40.0023816,11.7161341 39.9723141,11.5727284 C39.9452237,11.5657945 39.9407582,11.5131599 39.941949,11.4624163 C40.0125033,11.4580038 39.9342089,11.3051428 39.9988092,11.3111311 L39.9937484,11.3095553 C39.9943437,11.2786679 39.9889852,11.2569206 40,11.2190993 C39.9732072,11.1604763 39.7633306,10.6202623 39.7287977,10.5629 L39.7395148,10.5351644 C39.7338585,10.4535334 39.6799753,10.4210702 39.6692582,10.4692923 L39.6689605,10.3684355 L39.674319,10.3797819 L39.674319,10.2798707 C39.6796776,10.26096 39.7118289,10.2382673 39.7439802,10.2650574 C39.7171875,10.2095861 39.7002187,10.1465506 39.709745,10.0891884 C39.6755098,10.2496137 39.6198404,10.4484906 39.5555378,10.6158498 C39.5284473,10.5493474 39.561194,10.4257978 39.5504769,10.3529918 C39.5942384,10.2631663 39.6243059,10.0806786 39.6493125,9.93853357 C39.6433585,9.90764618 39.5635756,9.89157213 39.5945361,9.81939651 C39.6472286,9.78157522 39.5876891,9.74028698 39.6234128,9.67945774 C39.6567549,9.74438429 39.647824,9.81088672 39.6484194,9.87896504 C39.7124243,9.86320617 39.6826546,9.7106603 39.6972417,9.65581944 C39.6752121,9.63155078 39.6883108,9.49917627 39.664495,9.41754532 C39.7287977,9.44874789 39.6993256,9.34726076 39.7287977,9.29525649 C39.7320723,9.23852456 39.7046842,9.2044854 39.6847385,9.22938441 C39.6159704,9.2170925 39.660625,9.45536661 39.5844144,9.38319099 C39.615375,9.35986786 39.5963223,9.25176201 39.5885822,9.19282384 C39.5519654,9.19534526 39.564171,9.23568796 39.5263634,9.20038809 C39.5284473,9.13230978 39.4796249,9.06990465 39.5135624,9.02388875 C39.5248749,9.03618067 39.5210049,9.06580734 39.5216003,9.08471799 C39.5195164,8.99835938 39.796375,9.5294333 39.7660098,9.42038192 C39.7368355,9.45095413 39.5126694,8.95234348 39.5126694,9.0037174 C39.4998684,9.06107968 39.4430082,8.9715693 39.4355657,9.02956194 L39.4852812,9.08723941 C39.4775411,9.16288198 39.4159177,9.19881221 39.3888272,9.1751739 C39.3855526,9.05099401 39.6647927,9.50327358 39.6198404,9.4011561 L39.6055509,9.44559611 C39.5784605,9.40241681 39.5492861,9.28517081 39.5844144,9.23600314 C39.548393,9.23883974 39.5308289,9.17958639 39.5135624,9.13041871 L39.5180279,9.11182324 C39.4959983,9.06328593 39.4971891,8.98323087 39.4525345,9.0245191 C39.4846858,9.33118672 39.0682071,8.86314828 39.0720772,9.15752397 C39.1420361,9.02924677 39.1581117,9.19061759 39.176569,9.31637338 C39.1503716,9.33118672 39.1146479,9.39075524 39.1003585,9.48278704 C39.111671,9.56095104 39.1325098,9.52691188 39.153944,9.54046451 C39.1384637,9.5852197 39.1289374,9.66968724 39.0857713,9.66180781 C39.1399522,9.71948527 39.0598716,9.76171904 39.0816035,9.83357949 C39.1083963,9.89661497 39.1036331,9.8279063 39.1298305,9.87203113 C39.1298305,9.96942095 39.1298305,10.1058928 39.1241742,10.1837416 C39.0866644,10.2155745 39.0205755,10.3101277 38.9562729,10.2474074 C38.9568683,10.1005347 39.0589785,10.2978358 39.037842,10.1459203 C38.9509144,10.2168352 39.0056907,10.0122851 38.9360295,9.98896195 C38.8979242,10.0397055 38.9026874,10.1380409 38.9184653,10.2196718 L38.9294801,10.202337 C38.9455558,10.2741975 38.9693716,10.4185487 38.924717,10.498919 C38.8925657,10.4822146 38.869643,10.5175144 38.859819,10.4645646 L38.8580328,10.5644759 C38.8687499,10.5767678 38.879467,10.5893749 38.8854209,10.5600634 C38.911916,10.6060793 38.9003058,10.6539863 38.8830393,10.690862 C38.8511857,10.7022084 39.040819,11.2162627 39.0193848,11.2011342 C39.0223617,11.2733099 38.972944,11.2922205 39.0080723,11.3615595 C39.0372466,11.3675479 38.8729176,10.6773094 38.8869094,10.772493 C38.8532696,10.8342677 39.0786265,11.5821837 39.0131331,11.6291451 C39.0167055,11.6827253 39.025041,11.7467063 39.0586808,11.733784 C39.0437959,11.8242399 38.9931874,11.7079395 38.9625246,11.7725509 C38.9678831,11.7738116 38.9794933,11.7671928 38.9786002,11.7876794 L38.9366249,11.8500845 C38.9922943,11.9890777 38.9229308,12.1948886 38.9937828,12.3411309 C38.9565706,12.2985819 38.8919703,12.250675 38.8580328,12.1567521 L38.8758946,12.1400477 C38.8654752,12.1268103 38.8532696,12.0495918 38.8193321,12.0521132 C38.7967071,12.1416236 38.8035541,12.2178965 38.8374916,12.3118194 C38.828263,12.3291541 38.8193321,12.3493255 38.8098058,12.3628781 C38.8142713,12.3625629 38.8181413,12.3613022 38.8232022,12.3616174 C38.8020657,12.3921896 38.7984933,12.3890379 38.7850969,12.3776915 C38.7827153,12.3764308 38.780036,12.3745397 38.7776545,12.3713879 C38.6788189,12.4274895 38.8422548,12.72155 38.7877762,12.8844967 C38.8014703,12.9327189 38.8047449,12.8892244 38.8229045,12.9491081 C38.7818222,13.1155218 38.7511594,13.229616 38.724962,13.4029635 C38.7666397,13.4593803 38.7833107,13.464108 38.8303469,13.3979207 L38.8127828,13.5290345 C38.7014439,13.4070609 38.6975739,13.7717211 38.5865327,13.6371404 C38.5594423,13.6749616 38.5522975,13.7531256 38.5689686,13.8268771 C38.5975475,13.8350718 38.6436906,13.847994 38.6410114,13.940341 C38.5996314,14.0676727 38.6145163,14.0374157 38.5749225,14.1423697 C38.5362219,14.1663232 38.5231232,14.1266109 38.4930558,14.1300778 C38.534138,14.2955459 38.4058304,14.2697014 38.4067235,14.4238231 C38.4138682,14.5205826 38.4102959,14.7112649 38.4757893,14.7194595 C38.4677515,14.8493126 38.4195245,14.8467912 38.3668321,14.8310323" id="Fill-61" fill="#3A3A3A"></path>
                        </g>
                    </g>
                </g>
            </g>
        </g>
    </g>
</svg>